<?xml version="1.0" encoding="utf-8" standalone="no"?>
<!DOCTYPE svg PUBLIC "-//W3C//DTD SVG 1.1//EN"
  "http://www.w3.org/Graphics/SVG/1.1/DTD/svg11.dtd">
<svg height="432pt" version="1.1" viewBox="0 0 576 432" width="576pt" xmlns="http://www.w3.org/2000/svg" xmlns:xlink="http://www.w3.org/1999/xlink">
 <metadata>
  <rdf:RDF xmlns:cc="http://creativecommons.org/ns#" xmlns:dc="http://purl.org/dc/elements/1.1/" xmlns:rdf="http://www.w3.org/1999/02/22-rdf-syntax-ns#">
   <cc:Work>
    <dc:type rdf:resource="http://purl.org/dc/dcmitype/StillImage"/>
    <dc:date>2021-10-15T04:46:28.859494</dc:date>
    <dc:format>image/svg+xml</dc:format>
    <dc:creator>
     <cc:Agent>
      <dc:title>Matplotlib v3.4.3, https://matplotlib.org/</dc:title>
     </cc:Agent>
    </dc:creator>
   </cc:Work>
  </rdf:RDF>
 </metadata>
 <defs>
  <style type="text/css">*{stroke-linecap:butt;stroke-linejoin:round;}</style>
 </defs>
 <g id="figure_1">
  <g id="patch_1">
   <path d="M 0 432 
L 576 432 
L 576 0 
L 0 0 
z
" style="fill:#ffffff;"/>
  </g>
  <g id="axes_1">
   <g id="patch_2">
    <path d="M 72 384.48 
L 518.4 384.48 
L 518.4 51.84 
L 72 51.84 
z
" style="fill:#ffffff;"/>
   </g>
   <g id="matplotlib.axis_1">
    <g id="xtick_1">
     <g id="line2d_1">
      <path clip-path="url(#p5e7cb1f6a4)" d="M 90.471724 384.48 
L 90.471724 51.84 
" style="fill:none;stroke:#000000;stroke-dasharray:0.8,1.32;stroke-dashoffset:0;stroke-opacity:0.5;stroke-width:0.8;"/>
     </g>
     <g id="line2d_2">
      <defs>
       <path d="M 0 0 
L 0 3.5 
" id="m51ca41896c" style="stroke:#000000;stroke-width:0.8;"/>
      </defs>
      <g>
       <use style="stroke:#000000;stroke-width:0.8;" x="90.471724" xlink:href="#m51ca41896c" y="384.48"/>
      </g>
     </g>
     <g id="text_1">
      <!-- 15 -->
      <g transform="translate(84.109224 399.078438)scale(0.1 -0.1)">
       <defs>
        <path d="M 794 531 
L 1825 531 
L 1825 4091 
L 703 3866 
L 703 4441 
L 1819 4666 
L 2450 4666 
L 2450 531 
L 3481 531 
L 3481 0 
L 794 0 
L 794 531 
z
" id="DejaVuSans-31" transform="scale(0.015625)"/>
        <path d="M 691 4666 
L 3169 4666 
L 3169 4134 
L 1269 4134 
L 1269 2991 
Q 1406 3038 1543 3061 
Q 1681 3084 1819 3084 
Q 2600 3084 3056 2656 
Q 3513 2228 3513 1497 
Q 3513 744 3044 326 
Q 2575 -91 1722 -91 
Q 1428 -91 1123 -41 
Q 819 9 494 109 
L 494 744 
Q 775 591 1075 516 
Q 1375 441 1709 441 
Q 2250 441 2565 725 
Q 2881 1009 2881 1497 
Q 2881 1984 2565 2268 
Q 2250 2553 1709 2553 
Q 1456 2553 1204 2497 
Q 953 2441 691 2322 
L 691 4666 
z
" id="DejaVuSans-35" transform="scale(0.015625)"/>
       </defs>
       <use xlink:href="#DejaVuSans-31"/>
       <use x="63.623047" xlink:href="#DejaVuSans-35"/>
      </g>
     </g>
    </g>
    <g id="xtick_2">
     <g id="line2d_3">
      <path clip-path="url(#p5e7cb1f6a4)" d="M 142.808276 384.48 
L 142.808276 51.84 
" style="fill:none;stroke:#000000;stroke-dasharray:0.8,1.32;stroke-dashoffset:0;stroke-opacity:0.5;stroke-width:0.8;"/>
     </g>
     <g id="line2d_4">
      <g>
       <use style="stroke:#000000;stroke-width:0.8;" x="142.808276" xlink:href="#m51ca41896c" y="384.48"/>
      </g>
     </g>
     <g id="text_2">
      <!-- Jun -->
      <g transform="translate(134.995776 399.078438)scale(0.1 -0.1)">
       <defs>
        <path d="M 628 4666 
L 1259 4666 
L 1259 325 
Q 1259 -519 939 -900 
Q 619 -1281 -91 -1281 
L -331 -1281 
L -331 -750 
L -134 -750 
Q 284 -750 456 -515 
Q 628 -281 628 325 
L 628 4666 
z
" id="DejaVuSans-4a" transform="scale(0.015625)"/>
        <path d="M 544 1381 
L 544 3500 
L 1119 3500 
L 1119 1403 
Q 1119 906 1312 657 
Q 1506 409 1894 409 
Q 2359 409 2629 706 
Q 2900 1003 2900 1516 
L 2900 3500 
L 3475 3500 
L 3475 0 
L 2900 0 
L 2900 538 
Q 2691 219 2414 64 
Q 2138 -91 1772 -91 
Q 1169 -91 856 284 
Q 544 659 544 1381 
z
M 1991 3584 
L 1991 3584 
z
" id="DejaVuSans-75" transform="scale(0.015625)"/>
        <path d="M 3513 2113 
L 3513 0 
L 2938 0 
L 2938 2094 
Q 2938 2591 2744 2837 
Q 2550 3084 2163 3084 
Q 1697 3084 1428 2787 
Q 1159 2491 1159 1978 
L 1159 0 
L 581 0 
L 581 3500 
L 1159 3500 
L 1159 2956 
Q 1366 3272 1645 3428 
Q 1925 3584 2291 3584 
Q 2894 3584 3203 3211 
Q 3513 2838 3513 2113 
z
" id="DejaVuSans-6e" transform="scale(0.015625)"/>
       </defs>
       <use xlink:href="#DejaVuSans-4a"/>
       <use x="29.492188" xlink:href="#DejaVuSans-75"/>
       <use x="92.871094" xlink:href="#DejaVuSans-6e"/>
      </g>
     </g>
    </g>
    <g id="xtick_3">
     <g id="line2d_5">
      <path clip-path="url(#p5e7cb1f6a4)" d="M 185.908966 384.48 
L 185.908966 51.84 
" style="fill:none;stroke:#000000;stroke-dasharray:0.8,1.32;stroke-dashoffset:0;stroke-opacity:0.5;stroke-width:0.8;"/>
     </g>
     <g id="line2d_6">
      <g>
       <use style="stroke:#000000;stroke-width:0.8;" x="185.908966" xlink:href="#m51ca41896c" y="384.48"/>
      </g>
     </g>
     <g id="text_3">
      <!-- 15 -->
      <g transform="translate(179.546466 399.078438)scale(0.1 -0.1)">
       <use xlink:href="#DejaVuSans-31"/>
       <use x="63.623047" xlink:href="#DejaVuSans-35"/>
      </g>
     </g>
    </g>
    <g id="xtick_4">
     <g id="line2d_7">
      <path clip-path="url(#p5e7cb1f6a4)" d="M 235.166897 384.48 
L 235.166897 51.84 
" style="fill:none;stroke:#000000;stroke-dasharray:0.8,1.32;stroke-dashoffset:0;stroke-opacity:0.5;stroke-width:0.8;"/>
     </g>
     <g id="line2d_8">
      <g>
       <use style="stroke:#000000;stroke-width:0.8;" x="235.166897" xlink:href="#m51ca41896c" y="384.48"/>
      </g>
     </g>
     <g id="text_4">
      <!-- Jul -->
      <g transform="translate(229.134084 399.078438)scale(0.1 -0.1)">
       <defs>
        <path d="M 603 4863 
L 1178 4863 
L 1178 0 
L 603 0 
L 603 4863 
z
" id="DejaVuSans-6c" transform="scale(0.015625)"/>
       </defs>
       <use xlink:href="#DejaVuSans-4a"/>
       <use x="29.492188" xlink:href="#DejaVuSans-75"/>
       <use x="92.871094" xlink:href="#DejaVuSans-6c"/>
      </g>
     </g>
    </g>
    <g id="xtick_5">
     <g id="line2d_9">
      <path clip-path="url(#p5e7cb1f6a4)" d="M 278.267586 384.48 
L 278.267586 51.84 
" style="fill:none;stroke:#000000;stroke-dasharray:0.8,1.32;stroke-dashoffset:0;stroke-opacity:0.5;stroke-width:0.8;"/>
     </g>
     <g id="line2d_10">
      <g>
       <use style="stroke:#000000;stroke-width:0.8;" x="278.267586" xlink:href="#m51ca41896c" y="384.48"/>
      </g>
     </g>
     <g id="text_5">
      <!-- 15 -->
      <g transform="translate(271.905086 399.078438)scale(0.1 -0.1)">
       <use xlink:href="#DejaVuSans-31"/>
       <use x="63.623047" xlink:href="#DejaVuSans-35"/>
      </g>
     </g>
    </g>
    <g id="xtick_6">
     <g id="line2d_11">
      <path clip-path="url(#p5e7cb1f6a4)" d="M 330.604138 384.48 
L 330.604138 51.84 
" style="fill:none;stroke:#000000;stroke-dasharray:0.8,1.32;stroke-dashoffset:0;stroke-opacity:0.5;stroke-width:0.8;"/>
     </g>
     <g id="line2d_12">
      <g>
       <use style="stroke:#000000;stroke-width:0.8;" x="330.604138" xlink:href="#m51ca41896c" y="384.48"/>
      </g>
     </g>
     <g id="text_6">
      <!-- Aug -->
      <g transform="translate(320.840857 399.078438)scale(0.1 -0.1)">
       <defs>
        <path d="M 2188 4044 
L 1331 1722 
L 3047 1722 
L 2188 4044 
z
M 1831 4666 
L 2547 4666 
L 4325 0 
L 3669 0 
L 3244 1197 
L 1141 1197 
L 716 0 
L 50 0 
L 1831 4666 
z
" id="DejaVuSans-41" transform="scale(0.015625)"/>
        <path d="M 2906 1791 
Q 2906 2416 2648 2759 
Q 2391 3103 1925 3103 
Q 1463 3103 1205 2759 
Q 947 2416 947 1791 
Q 947 1169 1205 825 
Q 1463 481 1925 481 
Q 2391 481 2648 825 
Q 2906 1169 2906 1791 
z
M 3481 434 
Q 3481 -459 3084 -895 
Q 2688 -1331 1869 -1331 
Q 1566 -1331 1297 -1286 
Q 1028 -1241 775 -1147 
L 775 -588 
Q 1028 -725 1275 -790 
Q 1522 -856 1778 -856 
Q 2344 -856 2625 -561 
Q 2906 -266 2906 331 
L 2906 616 
Q 2728 306 2450 153 
Q 2172 0 1784 0 
Q 1141 0 747 490 
Q 353 981 353 1791 
Q 353 2603 747 3093 
Q 1141 3584 1784 3584 
Q 2172 3584 2450 3431 
Q 2728 3278 2906 2969 
L 2906 3500 
L 3481 3500 
L 3481 434 
z
" id="DejaVuSans-67" transform="scale(0.015625)"/>
       </defs>
       <use xlink:href="#DejaVuSans-41"/>
       <use x="68.408203" xlink:href="#DejaVuSans-75"/>
       <use x="131.787109" xlink:href="#DejaVuSans-67"/>
      </g>
     </g>
    </g>
    <g id="xtick_7">
     <g id="line2d_13">
      <path clip-path="url(#p5e7cb1f6a4)" d="M 373.704828 384.48 
L 373.704828 51.84 
" style="fill:none;stroke:#000000;stroke-dasharray:0.8,1.32;stroke-dashoffset:0;stroke-opacity:0.5;stroke-width:0.8;"/>
     </g>
     <g id="line2d_14">
      <g>
       <use style="stroke:#000000;stroke-width:0.8;" x="373.704828" xlink:href="#m51ca41896c" y="384.48"/>
      </g>
     </g>
     <g id="text_7">
      <!-- 15 -->
      <g transform="translate(367.342328 399.078438)scale(0.1 -0.1)">
       <use xlink:href="#DejaVuSans-31"/>
       <use x="63.623047" xlink:href="#DejaVuSans-35"/>
      </g>
     </g>
    </g>
    <g id="xtick_8">
     <g id="line2d_15">
      <path clip-path="url(#p5e7cb1f6a4)" d="M 426.041379 384.48 
L 426.041379 51.84 
" style="fill:none;stroke:#000000;stroke-dasharray:0.8,1.32;stroke-dashoffset:0;stroke-opacity:0.5;stroke-width:0.8;"/>
     </g>
     <g id="line2d_16">
      <g>
       <use style="stroke:#000000;stroke-width:0.8;" x="426.041379" xlink:href="#m51ca41896c" y="384.48"/>
      </g>
     </g>
     <g id="text_8">
      <!-- Sep -->
      <g transform="translate(416.616379 399.078438)scale(0.1 -0.1)">
       <defs>
        <path d="M 3425 4513 
L 3425 3897 
Q 3066 4069 2747 4153 
Q 2428 4238 2131 4238 
Q 1616 4238 1336 4038 
Q 1056 3838 1056 3469 
Q 1056 3159 1242 3001 
Q 1428 2844 1947 2747 
L 2328 2669 
Q 3034 2534 3370 2195 
Q 3706 1856 3706 1288 
Q 3706 609 3251 259 
Q 2797 -91 1919 -91 
Q 1588 -91 1214 -16 
Q 841 59 441 206 
L 441 856 
Q 825 641 1194 531 
Q 1563 422 1919 422 
Q 2459 422 2753 634 
Q 3047 847 3047 1241 
Q 3047 1584 2836 1778 
Q 2625 1972 2144 2069 
L 1759 2144 
Q 1053 2284 737 2584 
Q 422 2884 422 3419 
Q 422 4038 858 4394 
Q 1294 4750 2059 4750 
Q 2388 4750 2728 4690 
Q 3069 4631 3425 4513 
z
" id="DejaVuSans-53" transform="scale(0.015625)"/>
        <path d="M 3597 1894 
L 3597 1613 
L 953 1613 
Q 991 1019 1311 708 
Q 1631 397 2203 397 
Q 2534 397 2845 478 
Q 3156 559 3463 722 
L 3463 178 
Q 3153 47 2828 -22 
Q 2503 -91 2169 -91 
Q 1331 -91 842 396 
Q 353 884 353 1716 
Q 353 2575 817 3079 
Q 1281 3584 2069 3584 
Q 2775 3584 3186 3129 
Q 3597 2675 3597 1894 
z
M 3022 2063 
Q 3016 2534 2758 2815 
Q 2500 3097 2075 3097 
Q 1594 3097 1305 2825 
Q 1016 2553 972 2059 
L 3022 2063 
z
" id="DejaVuSans-65" transform="scale(0.015625)"/>
        <path d="M 1159 525 
L 1159 -1331 
L 581 -1331 
L 581 3500 
L 1159 3500 
L 1159 2969 
Q 1341 3281 1617 3432 
Q 1894 3584 2278 3584 
Q 2916 3584 3314 3078 
Q 3713 2572 3713 1747 
Q 3713 922 3314 415 
Q 2916 -91 2278 -91 
Q 1894 -91 1617 61 
Q 1341 213 1159 525 
z
M 3116 1747 
Q 3116 2381 2855 2742 
Q 2594 3103 2138 3103 
Q 1681 3103 1420 2742 
Q 1159 2381 1159 1747 
Q 1159 1113 1420 752 
Q 1681 391 2138 391 
Q 2594 391 2855 752 
Q 3116 1113 3116 1747 
z
" id="DejaVuSans-70" transform="scale(0.015625)"/>
       </defs>
       <use xlink:href="#DejaVuSans-53"/>
       <use x="63.476562" xlink:href="#DejaVuSans-65"/>
       <use x="125" xlink:href="#DejaVuSans-70"/>
      </g>
     </g>
    </g>
    <g id="xtick_9">
     <g id="line2d_17">
      <path clip-path="url(#p5e7cb1f6a4)" d="M 469.142069 384.48 
L 469.142069 51.84 
" style="fill:none;stroke:#000000;stroke-dasharray:0.8,1.32;stroke-dashoffset:0;stroke-opacity:0.5;stroke-width:0.8;"/>
     </g>
     <g id="line2d_18">
      <g>
       <use style="stroke:#000000;stroke-width:0.8;" x="469.142069" xlink:href="#m51ca41896c" y="384.48"/>
      </g>
     </g>
     <g id="text_9">
      <!-- 15 -->
      <g transform="translate(462.779569 399.078438)scale(0.1 -0.1)">
       <use xlink:href="#DejaVuSans-31"/>
       <use x="63.623047" xlink:href="#DejaVuSans-35"/>
      </g>
     </g>
    </g>
    <g id="xtick_10">
     <g id="line2d_19">
      <path clip-path="url(#p5e7cb1f6a4)" d="M 518.4 384.48 
L 518.4 51.84 
" style="fill:none;stroke:#000000;stroke-dasharray:0.8,1.32;stroke-dashoffset:0;stroke-opacity:0.5;stroke-width:0.8;"/>
     </g>
     <g id="line2d_20">
      <g>
       <use style="stroke:#000000;stroke-width:0.8;" x="518.4" xlink:href="#m51ca41896c" y="384.48"/>
      </g>
     </g>
     <g id="text_10">
      <!-- Oct -->
      <g transform="translate(509.754687 399.078438)scale(0.1 -0.1)">
       <defs>
        <path d="M 2522 4238 
Q 1834 4238 1429 3725 
Q 1025 3213 1025 2328 
Q 1025 1447 1429 934 
Q 1834 422 2522 422 
Q 3209 422 3611 934 
Q 4013 1447 4013 2328 
Q 4013 3213 3611 3725 
Q 3209 4238 2522 4238 
z
M 2522 4750 
Q 3503 4750 4090 4092 
Q 4678 3434 4678 2328 
Q 4678 1225 4090 567 
Q 3503 -91 2522 -91 
Q 1538 -91 948 565 
Q 359 1222 359 2328 
Q 359 3434 948 4092 
Q 1538 4750 2522 4750 
z
" id="DejaVuSans-4f" transform="scale(0.015625)"/>
        <path d="M 3122 3366 
L 3122 2828 
Q 2878 2963 2633 3030 
Q 2388 3097 2138 3097 
Q 1578 3097 1268 2742 
Q 959 2388 959 1747 
Q 959 1106 1268 751 
Q 1578 397 2138 397 
Q 2388 397 2633 464 
Q 2878 531 3122 666 
L 3122 134 
Q 2881 22 2623 -34 
Q 2366 -91 2075 -91 
Q 1284 -91 818 406 
Q 353 903 353 1747 
Q 353 2603 823 3093 
Q 1294 3584 2113 3584 
Q 2378 3584 2631 3529 
Q 2884 3475 3122 3366 
z
" id="DejaVuSans-63" transform="scale(0.015625)"/>
        <path d="M 1172 4494 
L 1172 3500 
L 2356 3500 
L 2356 3053 
L 1172 3053 
L 1172 1153 
Q 1172 725 1289 603 
Q 1406 481 1766 481 
L 2356 481 
L 2356 0 
L 1766 0 
Q 1100 0 847 248 
Q 594 497 594 1153 
L 594 3053 
L 172 3053 
L 172 3500 
L 594 3500 
L 594 4494 
L 1172 4494 
z
" id="DejaVuSans-74" transform="scale(0.015625)"/>
       </defs>
       <use xlink:href="#DejaVuSans-4f"/>
       <use x="78.710938" xlink:href="#DejaVuSans-63"/>
       <use x="133.691406" xlink:href="#DejaVuSans-74"/>
      </g>
     </g>
    </g>
    <g id="text_11">
     <!-- 2021-Oct -->
     <g transform="translate(471.776562 411.756563)scale(0.1 -0.1)">
      <defs>
       <path d="M 1228 531 
L 3431 531 
L 3431 0 
L 469 0 
L 469 531 
Q 828 903 1448 1529 
Q 2069 2156 2228 2338 
Q 2531 2678 2651 2914 
Q 2772 3150 2772 3378 
Q 2772 3750 2511 3984 
Q 2250 4219 1831 4219 
Q 1534 4219 1204 4116 
Q 875 4013 500 3803 
L 500 4441 
Q 881 4594 1212 4672 
Q 1544 4750 1819 4750 
Q 2544 4750 2975 4387 
Q 3406 4025 3406 3419 
Q 3406 3131 3298 2873 
Q 3191 2616 2906 2266 
Q 2828 2175 2409 1742 
Q 1991 1309 1228 531 
z
" id="DejaVuSans-32" transform="scale(0.015625)"/>
       <path d="M 2034 4250 
Q 1547 4250 1301 3770 
Q 1056 3291 1056 2328 
Q 1056 1369 1301 889 
Q 1547 409 2034 409 
Q 2525 409 2770 889 
Q 3016 1369 3016 2328 
Q 3016 3291 2770 3770 
Q 2525 4250 2034 4250 
z
M 2034 4750 
Q 2819 4750 3233 4129 
Q 3647 3509 3647 2328 
Q 3647 1150 3233 529 
Q 2819 -91 2034 -91 
Q 1250 -91 836 529 
Q 422 1150 422 2328 
Q 422 3509 836 4129 
Q 1250 4750 2034 4750 
z
" id="DejaVuSans-30" transform="scale(0.015625)"/>
       <path d="M 313 2009 
L 1997 2009 
L 1997 1497 
L 313 1497 
L 313 2009 
z
" id="DejaVuSans-2d" transform="scale(0.015625)"/>
      </defs>
      <use xlink:href="#DejaVuSans-32"/>
      <use x="63.623047" xlink:href="#DejaVuSans-30"/>
      <use x="127.246094" xlink:href="#DejaVuSans-32"/>
      <use x="190.869141" xlink:href="#DejaVuSans-31"/>
      <use x="254.492188" xlink:href="#DejaVuSans-2d"/>
      <use x="293.326172" xlink:href="#DejaVuSans-4f"/>
      <use x="372.037109" xlink:href="#DejaVuSans-63"/>
      <use x="427.017578" xlink:href="#DejaVuSans-74"/>
     </g>
    </g>
   </g>
   <g id="matplotlib.axis_2">
    <g id="ytick_1">
     <g id="line2d_21">
      <path clip-path="url(#p5e7cb1f6a4)" d="M 72 384.48 
L 518.4 384.48 
" style="fill:none;stroke:#000000;stroke-dasharray:0.8,1.32;stroke-dashoffset:0;stroke-opacity:0.5;stroke-width:0.8;"/>
     </g>
     <g id="line2d_22">
      <defs>
       <path d="M 0 0 
L -3.5 0 
" id="mfdca4a1baa" style="stroke:#000000;stroke-width:0.8;"/>
      </defs>
      <g>
       <use style="stroke:#000000;stroke-width:0.8;" x="72" xlink:href="#mfdca4a1baa" y="384.48"/>
      </g>
     </g>
     <g id="text_12">
      <!-- 0 -->
      <g transform="translate(58.6375 388.279219)scale(0.1 -0.1)">
       <use xlink:href="#DejaVuSans-30"/>
      </g>
     </g>
    </g>
    <g id="ytick_2">
     <g id="line2d_23">
      <path clip-path="url(#p5e7cb1f6a4)" d="M 72 351.216 
L 518.4 351.216 
" style="fill:none;stroke:#000000;stroke-dasharray:0.8,1.32;stroke-dashoffset:0;stroke-opacity:0.5;stroke-width:0.8;"/>
     </g>
     <g id="line2d_24">
      <g>
       <use style="stroke:#000000;stroke-width:0.8;" x="72" xlink:href="#mfdca4a1baa" y="351.216"/>
      </g>
     </g>
     <g id="text_13">
      <!-- 10 -->
      <g transform="translate(52.275 355.015219)scale(0.1 -0.1)">
       <use xlink:href="#DejaVuSans-31"/>
       <use x="63.623047" xlink:href="#DejaVuSans-30"/>
      </g>
     </g>
    </g>
    <g id="ytick_3">
     <g id="line2d_25">
      <path clip-path="url(#p5e7cb1f6a4)" d="M 72 317.952 
L 518.4 317.952 
" style="fill:none;stroke:#000000;stroke-dasharray:0.8,1.32;stroke-dashoffset:0;stroke-opacity:0.5;stroke-width:0.8;"/>
     </g>
     <g id="line2d_26">
      <g>
       <use style="stroke:#000000;stroke-width:0.8;" x="72" xlink:href="#mfdca4a1baa" y="317.952"/>
      </g>
     </g>
     <g id="text_14">
      <!-- 20 -->
      <g transform="translate(52.275 321.751219)scale(0.1 -0.1)">
       <use xlink:href="#DejaVuSans-32"/>
       <use x="63.623047" xlink:href="#DejaVuSans-30"/>
      </g>
     </g>
    </g>
    <g id="ytick_4">
     <g id="line2d_27">
      <path clip-path="url(#p5e7cb1f6a4)" d="M 72 284.688 
L 518.4 284.688 
" style="fill:none;stroke:#000000;stroke-dasharray:0.8,1.32;stroke-dashoffset:0;stroke-opacity:0.5;stroke-width:0.8;"/>
     </g>
     <g id="line2d_28">
      <g>
       <use style="stroke:#000000;stroke-width:0.8;" x="72" xlink:href="#mfdca4a1baa" y="284.688"/>
      </g>
     </g>
     <g id="text_15">
      <!-- 30 -->
      <g transform="translate(52.275 288.487219)scale(0.1 -0.1)">
       <defs>
        <path d="M 2597 2516 
Q 3050 2419 3304 2112 
Q 3559 1806 3559 1356 
Q 3559 666 3084 287 
Q 2609 -91 1734 -91 
Q 1441 -91 1130 -33 
Q 819 25 488 141 
L 488 750 
Q 750 597 1062 519 
Q 1375 441 1716 441 
Q 2309 441 2620 675 
Q 2931 909 2931 1356 
Q 2931 1769 2642 2001 
Q 2353 2234 1838 2234 
L 1294 2234 
L 1294 2753 
L 1863 2753 
Q 2328 2753 2575 2939 
Q 2822 3125 2822 3475 
Q 2822 3834 2567 4026 
Q 2313 4219 1838 4219 
Q 1578 4219 1281 4162 
Q 984 4106 628 3988 
L 628 4550 
Q 988 4650 1302 4700 
Q 1616 4750 1894 4750 
Q 2613 4750 3031 4423 
Q 3450 4097 3450 3541 
Q 3450 3153 3228 2886 
Q 3006 2619 2597 2516 
z
" id="DejaVuSans-33" transform="scale(0.015625)"/>
       </defs>
       <use xlink:href="#DejaVuSans-33"/>
       <use x="63.623047" xlink:href="#DejaVuSans-30"/>
      </g>
     </g>
    </g>
    <g id="ytick_5">
     <g id="line2d_29">
      <path clip-path="url(#p5e7cb1f6a4)" d="M 72 251.424 
L 518.4 251.424 
" style="fill:none;stroke:#000000;stroke-dasharray:0.8,1.32;stroke-dashoffset:0;stroke-opacity:0.5;stroke-width:0.8;"/>
     </g>
     <g id="line2d_30">
      <g>
       <use style="stroke:#000000;stroke-width:0.8;" x="72" xlink:href="#mfdca4a1baa" y="251.424"/>
      </g>
     </g>
     <g id="text_16">
      <!-- 40 -->
      <g transform="translate(52.275 255.223219)scale(0.1 -0.1)">
       <defs>
        <path d="M 2419 4116 
L 825 1625 
L 2419 1625 
L 2419 4116 
z
M 2253 4666 
L 3047 4666 
L 3047 1625 
L 3713 1625 
L 3713 1100 
L 3047 1100 
L 3047 0 
L 2419 0 
L 2419 1100 
L 313 1100 
L 313 1709 
L 2253 4666 
z
" id="DejaVuSans-34" transform="scale(0.015625)"/>
       </defs>
       <use xlink:href="#DejaVuSans-34"/>
       <use x="63.623047" xlink:href="#DejaVuSans-30"/>
      </g>
     </g>
    </g>
    <g id="ytick_6">
     <g id="line2d_31">
      <path clip-path="url(#p5e7cb1f6a4)" d="M 72 218.16 
L 518.4 218.16 
" style="fill:none;stroke:#000000;stroke-dasharray:0.8,1.32;stroke-dashoffset:0;stroke-opacity:0.5;stroke-width:0.8;"/>
     </g>
     <g id="line2d_32">
      <g>
       <use style="stroke:#000000;stroke-width:0.8;" x="72" xlink:href="#mfdca4a1baa" y="218.16"/>
      </g>
     </g>
     <g id="text_17">
      <!-- 50 -->
      <g transform="translate(52.275 221.959219)scale(0.1 -0.1)">
       <use xlink:href="#DejaVuSans-35"/>
       <use x="63.623047" xlink:href="#DejaVuSans-30"/>
      </g>
     </g>
    </g>
    <g id="ytick_7">
     <g id="line2d_33">
      <path clip-path="url(#p5e7cb1f6a4)" d="M 72 184.896 
L 518.4 184.896 
" style="fill:none;stroke:#000000;stroke-dasharray:0.8,1.32;stroke-dashoffset:0;stroke-opacity:0.5;stroke-width:0.8;"/>
     </g>
     <g id="line2d_34">
      <g>
       <use style="stroke:#000000;stroke-width:0.8;" x="72" xlink:href="#mfdca4a1baa" y="184.896"/>
      </g>
     </g>
     <g id="text_18">
      <!-- 60 -->
      <g transform="translate(52.275 188.695219)scale(0.1 -0.1)">
       <defs>
        <path d="M 2113 2584 
Q 1688 2584 1439 2293 
Q 1191 2003 1191 1497 
Q 1191 994 1439 701 
Q 1688 409 2113 409 
Q 2538 409 2786 701 
Q 3034 994 3034 1497 
Q 3034 2003 2786 2293 
Q 2538 2584 2113 2584 
z
M 3366 4563 
L 3366 3988 
Q 3128 4100 2886 4159 
Q 2644 4219 2406 4219 
Q 1781 4219 1451 3797 
Q 1122 3375 1075 2522 
Q 1259 2794 1537 2939 
Q 1816 3084 2150 3084 
Q 2853 3084 3261 2657 
Q 3669 2231 3669 1497 
Q 3669 778 3244 343 
Q 2819 -91 2113 -91 
Q 1303 -91 875 529 
Q 447 1150 447 2328 
Q 447 3434 972 4092 
Q 1497 4750 2381 4750 
Q 2619 4750 2861 4703 
Q 3103 4656 3366 4563 
z
" id="DejaVuSans-36" transform="scale(0.015625)"/>
       </defs>
       <use xlink:href="#DejaVuSans-36"/>
       <use x="63.623047" xlink:href="#DejaVuSans-30"/>
      </g>
     </g>
    </g>
    <g id="ytick_8">
     <g id="line2d_35">
      <path clip-path="url(#p5e7cb1f6a4)" d="M 72 151.632 
L 518.4 151.632 
" style="fill:none;stroke:#000000;stroke-dasharray:0.8,1.32;stroke-dashoffset:0;stroke-opacity:0.5;stroke-width:0.8;"/>
     </g>
     <g id="line2d_36">
      <g>
       <use style="stroke:#000000;stroke-width:0.8;" x="72" xlink:href="#mfdca4a1baa" y="151.632"/>
      </g>
     </g>
     <g id="text_19">
      <!-- 70 -->
      <g transform="translate(52.275 155.431219)scale(0.1 -0.1)">
       <defs>
        <path d="M 525 4666 
L 3525 4666 
L 3525 4397 
L 1831 0 
L 1172 0 
L 2766 4134 
L 525 4134 
L 525 4666 
z
" id="DejaVuSans-37" transform="scale(0.015625)"/>
       </defs>
       <use xlink:href="#DejaVuSans-37"/>
       <use x="63.623047" xlink:href="#DejaVuSans-30"/>
      </g>
     </g>
    </g>
    <g id="ytick_9">
     <g id="line2d_37">
      <path clip-path="url(#p5e7cb1f6a4)" d="M 72 118.368 
L 518.4 118.368 
" style="fill:none;stroke:#000000;stroke-dasharray:0.8,1.32;stroke-dashoffset:0;stroke-opacity:0.5;stroke-width:0.8;"/>
     </g>
     <g id="line2d_38">
      <g>
       <use style="stroke:#000000;stroke-width:0.8;" x="72" xlink:href="#mfdca4a1baa" y="118.368"/>
      </g>
     </g>
     <g id="text_20">
      <!-- 80 -->
      <g transform="translate(52.275 122.167219)scale(0.1 -0.1)">
       <defs>
        <path d="M 2034 2216 
Q 1584 2216 1326 1975 
Q 1069 1734 1069 1313 
Q 1069 891 1326 650 
Q 1584 409 2034 409 
Q 2484 409 2743 651 
Q 3003 894 3003 1313 
Q 3003 1734 2745 1975 
Q 2488 2216 2034 2216 
z
M 1403 2484 
Q 997 2584 770 2862 
Q 544 3141 544 3541 
Q 544 4100 942 4425 
Q 1341 4750 2034 4750 
Q 2731 4750 3128 4425 
Q 3525 4100 3525 3541 
Q 3525 3141 3298 2862 
Q 3072 2584 2669 2484 
Q 3125 2378 3379 2068 
Q 3634 1759 3634 1313 
Q 3634 634 3220 271 
Q 2806 -91 2034 -91 
Q 1263 -91 848 271 
Q 434 634 434 1313 
Q 434 1759 690 2068 
Q 947 2378 1403 2484 
z
M 1172 3481 
Q 1172 3119 1398 2916 
Q 1625 2713 2034 2713 
Q 2441 2713 2670 2916 
Q 2900 3119 2900 3481 
Q 2900 3844 2670 4047 
Q 2441 4250 2034 4250 
Q 1625 4250 1398 4047 
Q 1172 3844 1172 3481 
z
" id="DejaVuSans-38" transform="scale(0.015625)"/>
       </defs>
       <use xlink:href="#DejaVuSans-38"/>
       <use x="63.623047" xlink:href="#DejaVuSans-30"/>
      </g>
     </g>
    </g>
    <g id="ytick_10">
     <g id="line2d_39">
      <path clip-path="url(#p5e7cb1f6a4)" d="M 72 85.104 
L 518.4 85.104 
" style="fill:none;stroke:#000000;stroke-dasharray:0.8,1.32;stroke-dashoffset:0;stroke-opacity:0.5;stroke-width:0.8;"/>
     </g>
     <g id="line2d_40">
      <g>
       <use style="stroke:#000000;stroke-width:0.8;" x="72" xlink:href="#mfdca4a1baa" y="85.104"/>
      </g>
     </g>
     <g id="text_21">
      <!-- 90 -->
      <g transform="translate(52.275 88.903219)scale(0.1 -0.1)">
       <defs>
        <path d="M 703 97 
L 703 672 
Q 941 559 1184 500 
Q 1428 441 1663 441 
Q 2288 441 2617 861 
Q 2947 1281 2994 2138 
Q 2813 1869 2534 1725 
Q 2256 1581 1919 1581 
Q 1219 1581 811 2004 
Q 403 2428 403 3163 
Q 403 3881 828 4315 
Q 1253 4750 1959 4750 
Q 2769 4750 3195 4129 
Q 3622 3509 3622 2328 
Q 3622 1225 3098 567 
Q 2575 -91 1691 -91 
Q 1453 -91 1209 -44 
Q 966 3 703 97 
z
M 1959 2075 
Q 2384 2075 2632 2365 
Q 2881 2656 2881 3163 
Q 2881 3666 2632 3958 
Q 2384 4250 1959 4250 
Q 1534 4250 1286 3958 
Q 1038 3666 1038 3163 
Q 1038 2656 1286 2365 
Q 1534 2075 1959 2075 
z
" id="DejaVuSans-39" transform="scale(0.015625)"/>
       </defs>
       <use xlink:href="#DejaVuSans-39"/>
       <use x="63.623047" xlink:href="#DejaVuSans-30"/>
      </g>
     </g>
    </g>
    <g id="ytick_11">
     <g id="line2d_41">
      <path clip-path="url(#p5e7cb1f6a4)" d="M 72 51.84 
L 518.4 51.84 
" style="fill:none;stroke:#000000;stroke-dasharray:0.8,1.32;stroke-dashoffset:0;stroke-opacity:0.5;stroke-width:0.8;"/>
     </g>
     <g id="line2d_42">
      <g>
       <use style="stroke:#000000;stroke-width:0.8;" x="72" xlink:href="#mfdca4a1baa" y="51.84"/>
      </g>
     </g>
     <g id="text_22">
      <!-- 100 -->
      <g transform="translate(45.9125 55.639219)scale(0.1 -0.1)">
       <use xlink:href="#DejaVuSans-31"/>
       <use x="63.623047" xlink:href="#DejaVuSans-30"/>
       <use x="127.246094" xlink:href="#DejaVuSans-30"/>
      </g>
     </g>
    </g>
    <g id="text_23">
     <!-- Vaccine coverage (%) -->
     <g transform="translate(39.832812 272.435)rotate(-90)scale(0.1 -0.1)">
      <defs>
       <path d="M 1831 0 
L 50 4666 
L 709 4666 
L 2188 738 
L 3669 4666 
L 4325 4666 
L 2547 0 
L 1831 0 
z
" id="DejaVuSans-56" transform="scale(0.015625)"/>
       <path d="M 2194 1759 
Q 1497 1759 1228 1600 
Q 959 1441 959 1056 
Q 959 750 1161 570 
Q 1363 391 1709 391 
Q 2188 391 2477 730 
Q 2766 1069 2766 1631 
L 2766 1759 
L 2194 1759 
z
M 3341 1997 
L 3341 0 
L 2766 0 
L 2766 531 
Q 2569 213 2275 61 
Q 1981 -91 1556 -91 
Q 1019 -91 701 211 
Q 384 513 384 1019 
Q 384 1609 779 1909 
Q 1175 2209 1959 2209 
L 2766 2209 
L 2766 2266 
Q 2766 2663 2505 2880 
Q 2244 3097 1772 3097 
Q 1472 3097 1187 3025 
Q 903 2953 641 2809 
L 641 3341 
Q 956 3463 1253 3523 
Q 1550 3584 1831 3584 
Q 2591 3584 2966 3190 
Q 3341 2797 3341 1997 
z
" id="DejaVuSans-61" transform="scale(0.015625)"/>
       <path d="M 603 3500 
L 1178 3500 
L 1178 0 
L 603 0 
L 603 3500 
z
M 603 4863 
L 1178 4863 
L 1178 4134 
L 603 4134 
L 603 4863 
z
" id="DejaVuSans-69" transform="scale(0.015625)"/>
       <path id="DejaVuSans-20" transform="scale(0.015625)"/>
       <path d="M 1959 3097 
Q 1497 3097 1228 2736 
Q 959 2375 959 1747 
Q 959 1119 1226 758 
Q 1494 397 1959 397 
Q 2419 397 2687 759 
Q 2956 1122 2956 1747 
Q 2956 2369 2687 2733 
Q 2419 3097 1959 3097 
z
M 1959 3584 
Q 2709 3584 3137 3096 
Q 3566 2609 3566 1747 
Q 3566 888 3137 398 
Q 2709 -91 1959 -91 
Q 1206 -91 779 398 
Q 353 888 353 1747 
Q 353 2609 779 3096 
Q 1206 3584 1959 3584 
z
" id="DejaVuSans-6f" transform="scale(0.015625)"/>
       <path d="M 191 3500 
L 800 3500 
L 1894 563 
L 2988 3500 
L 3597 3500 
L 2284 0 
L 1503 0 
L 191 3500 
z
" id="DejaVuSans-76" transform="scale(0.015625)"/>
       <path d="M 2631 2963 
Q 2534 3019 2420 3045 
Q 2306 3072 2169 3072 
Q 1681 3072 1420 2755 
Q 1159 2438 1159 1844 
L 1159 0 
L 581 0 
L 581 3500 
L 1159 3500 
L 1159 2956 
Q 1341 3275 1631 3429 
Q 1922 3584 2338 3584 
Q 2397 3584 2469 3576 
Q 2541 3569 2628 3553 
L 2631 2963 
z
" id="DejaVuSans-72" transform="scale(0.015625)"/>
       <path d="M 1984 4856 
Q 1566 4138 1362 3434 
Q 1159 2731 1159 2009 
Q 1159 1288 1364 580 
Q 1569 -128 1984 -844 
L 1484 -844 
Q 1016 -109 783 600 
Q 550 1309 550 2009 
Q 550 2706 781 3412 
Q 1013 4119 1484 4856 
L 1984 4856 
z
" id="DejaVuSans-28" transform="scale(0.015625)"/>
       <path d="M 4653 2053 
Q 4381 2053 4226 1822 
Q 4072 1591 4072 1178 
Q 4072 772 4226 539 
Q 4381 306 4653 306 
Q 4919 306 5073 539 
Q 5228 772 5228 1178 
Q 5228 1588 5073 1820 
Q 4919 2053 4653 2053 
z
M 4653 2450 
Q 5147 2450 5437 2106 
Q 5728 1763 5728 1178 
Q 5728 594 5436 251 
Q 5144 -91 4653 -91 
Q 4153 -91 3862 251 
Q 3572 594 3572 1178 
Q 3572 1766 3864 2108 
Q 4156 2450 4653 2450 
z
M 1428 4353 
Q 1159 4353 1004 4120 
Q 850 3888 850 3481 
Q 850 3069 1003 2837 
Q 1156 2606 1428 2606 
Q 1700 2606 1854 2837 
Q 2009 3069 2009 3481 
Q 2009 3884 1853 4118 
Q 1697 4353 1428 4353 
z
M 4250 4750 
L 4750 4750 
L 1831 -91 
L 1331 -91 
L 4250 4750 
z
M 1428 4750 
Q 1922 4750 2215 4408 
Q 2509 4066 2509 3481 
Q 2509 2891 2217 2550 
Q 1925 2209 1428 2209 
Q 931 2209 642 2551 
Q 353 2894 353 3481 
Q 353 4063 643 4406 
Q 934 4750 1428 4750 
z
" id="DejaVuSans-25" transform="scale(0.015625)"/>
       <path d="M 513 4856 
L 1013 4856 
Q 1481 4119 1714 3412 
Q 1947 2706 1947 2009 
Q 1947 1309 1714 600 
Q 1481 -109 1013 -844 
L 513 -844 
Q 928 -128 1133 580 
Q 1338 1288 1338 2009 
Q 1338 2731 1133 3434 
Q 928 4138 513 4856 
z
" id="DejaVuSans-29" transform="scale(0.015625)"/>
      </defs>
      <use xlink:href="#DejaVuSans-56"/>
      <use x="60.658203" xlink:href="#DejaVuSans-61"/>
      <use x="121.9375" xlink:href="#DejaVuSans-63"/>
      <use x="176.917969" xlink:href="#DejaVuSans-63"/>
      <use x="231.898438" xlink:href="#DejaVuSans-69"/>
      <use x="259.681641" xlink:href="#DejaVuSans-6e"/>
      <use x="323.060547" xlink:href="#DejaVuSans-65"/>
      <use x="384.583984" xlink:href="#DejaVuSans-20"/>
      <use x="416.371094" xlink:href="#DejaVuSans-63"/>
      <use x="471.351562" xlink:href="#DejaVuSans-6f"/>
      <use x="532.533203" xlink:href="#DejaVuSans-76"/>
      <use x="591.712891" xlink:href="#DejaVuSans-65"/>
      <use x="653.236328" xlink:href="#DejaVuSans-72"/>
      <use x="694.349609" xlink:href="#DejaVuSans-61"/>
      <use x="755.628906" xlink:href="#DejaVuSans-67"/>
      <use x="819.105469" xlink:href="#DejaVuSans-65"/>
      <use x="880.628906" xlink:href="#DejaVuSans-20"/>
      <use x="912.416016" xlink:href="#DejaVuSans-28"/>
      <use x="951.429688" xlink:href="#DejaVuSans-25"/>
      <use x="1046.449219" xlink:href="#DejaVuSans-29"/>
     </g>
    </g>
   </g>
   <g id="line2d_43">
    <path clip-path="url(#p5e7cb1f6a4)" d="M 72 237.611407 
L 75.078621 235.632738 
L 78.157241 233.880742 
L 81.235862 230.87732 
L 84.314483 225.068815 
L 87.393103 225.068815 
L 90.471724 221.800941 
L 93.550345 221.800941 
L 96.628966 220.105613 
L 99.707586 215.070001 
L 102.786207 211.983151 
L 105.864828 207.540983 
L 108.943448 205.245915 
L 112.022069 204.855533 
L 118.17931 201.51525 
L 121.257931 201.51525 
L 124.336552 198.995083 
L 130.493793 194.330964 
L 133.572414 193.332971 
L 136.651034 192.81666 
L 139.729655 191.33069 
L 142.808276 187.165567 
L 145.886897 184.646974 
L 148.965517 182.833587 
L 152.044138 182.833587 
L 155.122759 181.934764 
L 158.201379 181.538086 
L 161.28 179.932483 
L 164.358621 175.524946 
L 167.437241 173.363678 
L 170.515862 171.758075 
L 173.594483 171.093796 
L 176.673103 171.093796 
L 182.830345 170.338219 
L 188.987586 166.654777 
L 192.066207 164.959449 
L 195.144828 163.59626 
L 198.223448 162.906796 
L 201.302069 162.574656 
L 210.537931 158.659818 
L 213.616552 157.021159 
L 216.695172 155.908256 
L 219.773793 155.325831 
L 222.852414 155.059805 
L 225.931034 153.939031 
L 229.009655 152.692328 
L 232.088276 150.981259 
L 238.245517 148.292661 
L 241.324138 147.666161 
L 244.402759 147.423746 
L 247.481379 146.430476 
L 256.717241 142.934354 
L 259.795862 142.035532 
L 262.874483 141.470422 
L 265.953103 141.1981 
L 269.031724 140.264646 
L 281.346207 135.866553 
L 284.424828 135.117272 
L 287.503448 134.885876 
L 293.66069 132.797018 
L 302.896552 129.459883 
L 305.975172 129.001814 
L 309.053793 128.754677 
L 318.289655 125.7607 
L 321.368276 124.628907 
L 324.446897 123.62934 
L 327.525517 123.14766 
L 330.604138 122.865892 
L 336.761379 120.947039 
L 345.997241 117.751574 
L 349.075862 117.290357 
L 352.154483 117.000719 
L 355.233103 116.054672 
L 361.390345 113.825718 
L 364.468966 112.823003 
L 367.547586 111.632968 
L 370.626207 111.071007 
L 373.704828 110.740442 
L 376.783448 109.770783 
L 389.097931 105.489176 
L 392.176552 104.950826 
L 395.255172 104.659614 
L 401.412414 102.734465 
L 410.648276 99.518536 
L 413.726897 99.000651 
L 416.805517 98.709438 
L 419.884138 97.827931 
L 432.198621 93.658086 
L 435.277241 93.207887 
L 438.355862 92.971769 
L 444.513103 91.032453 
L 450.670345 88.603585 
L 453.748966 87.693743 
L 456.827586 87.139653 
L 459.906207 86.84844 
L 466.063448 85.112185 
L 475.29931 82.514887 
L 481.456552 81.738845 
L 490.692414 79.352478 
L 493.771034 78.425321 
L 496.849655 77.838175 
L 503.006897 77.158154 
L 512.242759 75.069297 
L 518.4 73.671477 
L 527.635862 72.547555 
L 539.950345 69.706268 
L 543.028966 69.243476 
L 546.107586 69.007358 
L 549.186207 68.442249 
L 558.422069 66.454135 
L 558.422069 66.454135 
" style="fill:none;stroke:#1f77b4;stroke-linecap:square;stroke-width:1.5;"/>
   </g>
   <g id="line2d_44">
    <path clip-path="url(#p5e7cb1f6a4)" d="M 72 249.334238 
L 75.078621 246.797492 
L 78.157241 244.063732 
L 81.235862 240.861474 
L 84.314483 236.83767 
L 87.393103 236.83767 
L 90.471724 233.04319 
L 93.550345 233.04319 
L 96.628966 230.901653 
L 99.707586 227.377869 
L 102.786207 224.259539 
L 105.864828 221.338616 
L 108.943448 217.793161 
L 112.022069 217.460602 
L 115.10069 215.256415 
L 118.17931 212.781925 
L 121.257931 212.781925 
L 127.415172 206.992091 
L 130.493793 204.568825 
L 133.572414 203.427329 
L 136.651034 202.906031 
L 139.729655 200.461487 
L 142.808276 195.212259 
L 145.886897 192.291336 
L 148.965517 190.014254 
L 152.044138 190.014254 
L 155.122759 188.903097 
L 158.201379 188.424355 
L 161.28 186.314734 
L 164.358621 181.022556 
L 167.437241 178.1962 
L 170.515862 176.105887 
L 173.594483 175.315863 
L 176.673103 175.315863 
L 179.751724 174.983304 
L 182.830345 174.391081 
L 192.066207 167.768275 
L 195.144828 165.845423 
L 198.223448 164.961226 
L 201.302069 164.628667 
L 204.38069 163.13294 
L 207.45931 161.374792 
L 210.537931 159.452334 
L 213.616552 157.715856 
L 216.695172 156.125957 
L 219.773793 155.460052 
L 222.852414 155.222059 
L 225.931034 153.870152 
L 229.009655 152.206964 
L 232.088276 150.296327 
L 235.166897 148.591372 
L 238.245517 147.22528 
L 241.324138 146.627541 
L 244.402759 146.420283 
L 247.481379 145.228351 
L 256.717241 140.992954 
L 259.795862 139.869583 
L 262.874483 139.332918 
L 265.953103 139.135117 
L 269.031724 138.018838 
L 281.346207 133.153786 
L 284.424828 132.598996 
L 287.503448 132.405923 
L 293.66069 130.045307 
L 302.896552 126.384402 
L 305.975172 125.884775 
L 309.053793 125.682245 
L 315.211034 123.443778 
L 321.368276 121.092224 
L 324.446897 120.000769 
L 327.525517 119.571674 
L 330.604138 119.360081 
L 336.761379 117.169291 
L 345.997241 113.513114 
L 349.075862 113.043828 
L 352.154483 112.807017 
L 355.233103 111.833771 
L 367.547586 107.130664 
L 370.626207 106.6137 
L 373.704828 106.390287 
L 376.783448 105.379214 
L 389.097931 100.773825 
L 392.176552 100.285626 
L 395.255172 100.012565 
L 401.412414 97.812318 
L 410.648276 94.378372 
L 413.726897 93.843678 
L 416.805517 93.599775 
L 419.884138 92.662384 
L 429.12 89.488103 
L 432.198621 88.547954 
L 435.277241 88.116888 
L 438.355862 87.89978 
L 444.513103 85.848081 
L 450.670345 83.520563 
L 453.748966 82.564653 
L 456.827586 82.089851 
L 459.906207 81.886533 
L 466.063448 80.040516 
L 475.29931 77.358374 
L 481.456552 76.637698 
L 490.692414 74.071006 
L 493.771034 73.163956 
L 496.849655 72.516963 
L 499.928276 72.135545 
L 503.006897 71.88258 
L 509.164138 70.437683 
L 518.4 68.111741 
L 521.478621 67.706287 
L 524.557241 67.466325 
L 527.635862 67.017922 
L 539.950345 63.982732 
L 543.028966 63.632048 
L 546.107586 63.418091 
L 552.264828 62.194637 
L 558.422069 60.917595 
L 558.422069 60.917595 
" style="fill:none;stroke:#ff7f0e;stroke-linecap:square;stroke-width:1.5;"/>
   </g>
   <g id="line2d_45">
    <path clip-path="url(#p5e7cb1f6a4)" d="M 72 260.277597 
L 78.157241 254.818197 
L 84.314483 248.224112 
L 87.393103 248.224112 
L 90.471724 244.427996 
L 93.550345 244.427996 
L 96.628966 241.86693 
L 102.786207 235.843468 
L 105.864828 232.778275 
L 108.943448 229.386453 
L 112.022069 229.053797 
L 115.10069 226.796661 
L 118.17931 223.902583 
L 121.257931 223.902583 
L 124.336552 220.647832 
L 127.415172 217.582639 
L 130.493793 214.760022 
L 133.572414 213.525149 
L 136.651034 213.096739 
L 139.729655 210.33583 
L 142.808276 204.015531 
L 145.886897 200.689319 
L 148.965517 198.028243 
L 152.044138 198.028243 
L 155.122759 196.834686 
L 158.201379 196.169373 
L 161.28 193.840953 
L 164.358621 187.657724 
L 167.437241 184.331335 
L 170.515862 182.074376 
L 173.594483 181.142193 
L 176.673103 181.142193 
L 179.751724 180.809536 
L 182.830345 180.144223 
L 192.066207 172.825954 
L 195.144828 170.730358 
L 198.223448 169.898007 
L 201.302069 169.49389 
L 204.38069 167.902067 
L 207.45931 165.906305 
L 213.616552 162.147249 
L 216.695172 160.679729 
L 219.773793 160.014416 
L 222.852414 159.681759 
L 225.931034 158.351133 
L 229.009655 156.588194 
L 232.088276 154.265981 
L 235.166897 152.366859 
L 238.245517 150.870081 
L 241.324138 150.266654 
L 244.402759 150.065215 
L 247.481379 148.738667 
L 256.717241 144.262697 
L 259.795862 143.081199 
L 262.874483 142.580795 
L 265.953103 142.381307 
L 269.031724 141.225698 
L 278.267586 137.095152 
L 281.346207 135.920391 
L 284.424828 135.427435 
L 287.503448 135.230076 
L 293.66069 132.771324 
L 299.817931 130.112199 
L 302.896552 128.94063 
L 305.975172 128.433311 
L 309.053793 128.238434 
L 315.211034 125.922959 
L 324.446897 122.246004 
L 327.525517 121.794896 
L 330.604138 121.586187 
L 333.682759 120.517643 
L 339.84 117.926964 
L 345.997241 115.26642 
L 349.075862 114.756086 
L 352.154483 114.52805 
L 355.233103 113.442128 
L 364.468966 109.621009 
L 367.547586 108.464868 
L 370.626207 107.937334 
L 373.704828 107.690324 
L 379.862069 105.39666 
L 386.01931 102.770693 
L 389.097931 101.618985 
L 392.176552 101.116276 
L 395.255172 100.877955 
L 401.412414 98.524533 
L 407.569655 95.964354 
L 410.648276 94.832505 
L 413.726897 94.341677 
L 416.805517 94.101405 
L 419.884138 93.09386 
L 429.12 89.535178 
L 432.198621 88.465215 
L 435.277241 87.999567 
L 438.355862 87.797597 
L 444.513103 85.564222 
L 450.670345 83.225696 
L 453.748966 82.204496 
L 456.827586 81.756048 
L 459.906207 81.543971 
L 475.29931 76.909297 
L 481.456552 76.121454 
L 493.771034 72.444144 
L 496.849655 71.77493 
L 499.928276 71.399361 
L 503.006897 71.181432 
L 506.085517 70.496436 
L 518.4 67.276617 
L 521.478621 66.904063 
L 524.557241 66.708476 
L 527.635862 66.262156 
L 536.871724 63.837451 
L 539.950345 63.161675 
L 543.028966 62.845864 
L 546.107586 62.6634 
L 558.422069 60.200215 
L 558.422069 60.200215 
" style="fill:none;stroke:#2ca02c;stroke-linecap:square;stroke-width:1.5;"/>
   </g>
   <g id="line2d_46">
    <path clip-path="url(#p5e7cb1f6a4)" d="M 72 339.172606 
L 75.078621 337.11265 
L 81.235862 332.344304 
L 84.314483 329.705252 
L 87.393103 329.705252 
L 90.471724 326.159483 
L 93.550345 326.159483 
L 96.628966 323.697738 
L 105.864828 313.645346 
L 108.943448 309.589448 
L 112.022069 309.176639 
L 115.10069 306.129856 
L 118.17931 302.73923 
L 121.257931 302.73923 
L 130.493793 291.339205 
L 133.572414 289.343387 
L 136.651034 288.678114 
L 139.729655 284.788627 
L 142.808276 276.339303 
L 145.886897 271.956897 
L 148.965517 268.475142 
L 152.044138 268.475142 
L 155.122759 266.720892 
L 158.201379 265.46538 
L 161.28 261.822414 
L 164.358621 253.104529 
L 167.437241 248.791337 
L 170.515862 245.55115 
L 173.594483 244.220481 
L 176.673103 244.220481 
L 179.751724 243.801729 
L 182.830345 243.050155 
L 185.908966 239.563571 
L 188.987586 236.414514 
L 192.066207 233.598032 
L 195.144828 230.93694 
L 198.223448 229.606395 
L 201.302069 229.27382 
L 204.38069 227.277878 
L 207.45931 224.874204 
L 216.695172 218.731357 
L 219.773793 217.82464 
L 222.852414 217.492065 
L 225.931034 215.737691 
L 229.009655 213.500304 
L 232.088276 210.436434 
L 235.166897 207.911542 
L 238.245517 205.808745 
L 241.324138 204.922086 
L 244.402759 204.609199 
L 247.481379 202.758742 
L 250.56 200.752523 
L 259.795862 195.242261 
L 262.874483 194.488459 
L 265.953103 194.196249 
L 269.031724 192.623392 
L 281.346207 185.622984 
L 284.424828 184.857418 
L 287.503448 184.589972 
L 293.66069 181.233892 
L 302.896552 175.855991 
L 305.975172 175.076806 
L 309.053793 174.768995 
L 315.211034 171.396695 
L 321.368276 167.81217 
L 324.446897 166.17629 
L 327.525517 165.513989 
L 330.604138 165.19553 
L 333.682759 163.641988 
L 339.84 159.980945 
L 345.997241 156.014071 
L 349.075862 155.172977 
L 352.154483 154.775646 
L 355.233103 153.16552 
L 364.468966 147.565243 
L 367.547586 145.791925 
L 370.626207 144.95306 
L 373.704828 144.568482 
L 379.862069 141.16857 
L 386.01931 137.384451 
L 389.097931 135.559625 
L 392.176552 134.746762 
L 395.255172 134.3264 
L 401.412414 130.754877 
L 407.569655 126.975835 
L 410.648276 125.183078 
L 413.726897 124.315982 
L 416.805517 123.907879 
L 419.884138 122.356814 
L 429.12 117.225063 
L 432.198621 115.548694 
L 435.277241 114.765795 
L 438.355862 114.430372 
L 447.591724 109.611385 
L 453.748966 106.441898 
L 456.827586 105.759539 
L 459.906207 105.416811 
L 472.22069 100.228971 
L 475.29931 98.961077 
L 481.456552 97.693059 
L 493.771034 92.594863 
L 496.849655 91.634409 
L 499.928276 91.076857 
L 503.006897 90.777466 
L 506.085517 89.842394 
L 518.4 85.538613 
L 521.478621 84.978337 
L 524.557241 84.664583 
L 527.635862 84.030389 
L 533.793103 81.882274 
L 539.950345 79.98972 
L 543.028966 79.538899 
L 546.107586 79.291016 
L 558.422069 76.111748 
L 558.422069 76.111748 
" style="fill:none;stroke:#d62728;stroke-linecap:square;stroke-width:1.5;"/>
   </g>
   <g id="line2d_47">
    <path clip-path="url(#p5e7cb1f6a4)" d="M 72 353.372376 
L 75.078621 352.208688 
L 81.235862 349.55656 
L 84.314483 348.060223 
L 87.393103 348.060223 
L 90.471724 345.817264 
L 93.550345 345.817264 
L 96.628966 344.572574 
L 102.786207 340.505217 
L 105.864828 338.513799 
L 108.943448 335.686862 
L 112.022069 335.521231 
L 115.10069 333.529813 
L 118.17931 331.290483 
L 121.257931 331.290483 
L 124.336552 328.966522 
L 127.415172 326.309805 
L 130.493793 323.401973 
L 133.572414 321.572559 
L 136.651034 320.907366 
L 139.729655 317.999534 
L 142.808276 311.680572 
L 145.886897 308.269443 
L 148.965517 305.527349 
L 152.044138 305.527349 
L 155.122759 304.031012 
L 158.201379 302.862948 
L 161.28 299.617984 
L 164.358621 292.304381 
L 167.437241 288.645339 
L 170.515862 285.818508 
L 173.594483 284.650445 
L 176.673103 284.650445 
L 179.751724 284.23626 
L 182.830345 283.319845 
L 185.908966 280.496216 
L 188.987586 278.002035 
L 192.066207 276.173154 
L 195.144828 274.510012 
L 198.223448 273.844712 
L 201.302069 273.426578 
L 204.38069 272.676648 
L 210.537931 270.599747 
L 219.773793 267.934919 
L 222.852414 267.26962 
L 225.931034 266.353205 
L 232.088276 263.28273 
L 235.166897 261.682446 
L 238.245517 260.29539 
L 241.324138 259.228392 
L 244.402759 258.416991 
L 247.481379 256.944559 
L 253.638621 253.683586 
L 259.795862 250.402657 
L 262.874483 249.148683 
L 265.953103 248.319033 
L 272.110345 244.792751 
L 281.346207 239.198961 
L 284.424828 237.83357 
L 287.503448 236.986524 
L 296.73931 230.278991 
L 302.896552 225.552096 
L 305.975172 223.901973 
L 309.053793 222.921632 
L 312.132414 220.585719 
L 315.211034 218.458766 
L 318.289655 215.842603 
L 321.368276 213.598577 
L 324.446897 211.096285 
L 327.525517 209.628335 
L 330.604138 208.702102 
L 333.682759 206.631711 
L 339.84 202.050384 
L 345.997241 197.076643 
L 349.075862 195.520862 
L 352.154483 194.565601 
L 355.233103 192.495957 
L 361.390345 187.641851 
L 367.547586 182.738119 
L 370.626207 181.20731 
L 373.704828 180.264002 
L 386.01931 170.400403 
L 389.097931 167.885305 
L 392.176552 166.305298 
L 395.255172 165.230936 
L 401.412414 160.446305 
L 404.491034 157.913278 
L 410.648276 153.187344 
L 413.726897 151.544798 
L 416.805517 150.451866 
L 419.884138 148.401753 
L 426.041379 143.870798 
L 432.198621 139.591812 
L 435.277241 138.172954 
L 438.355862 137.344157 
L 447.591724 131.941718 
L 453.748966 128.360048 
L 456.827586 127.288034 
L 459.906207 126.608754 
L 469.142069 121.925935 
L 475.29931 118.717469 
L 478.377931 117.691132 
L 481.456552 116.940561 
L 490.692414 112.432979 
L 493.771034 110.799931 
L 496.849655 109.533685 
L 499.928276 108.64982 
L 503.006897 108.08313 
L 509.164138 105.376361 
L 512.242759 104.032635 
L 515.321379 102.566712 
L 518.4 101.260125 
L 521.478621 100.482661 
L 524.557241 100.04233 
L 527.635862 99.290799 
L 533.793103 96.719672 
L 539.950345 94.311936 
L 543.028966 93.650584 
L 546.107586 93.25006 
L 558.422069 89.181208 
L 558.422069 89.181208 
" style="fill:none;stroke:#9467bd;stroke-linecap:square;stroke-width:1.5;"/>
   </g>
   <g id="line2d_48">
    <path clip-path="url(#p5e7cb1f6a4)" d="M 72 366.789301 
L 78.157241 366.370762 
L 81.235862 366.038171 
L 84.314483 365.537417 
L 87.393103 365.537417 
L 90.471724 364.953339 
L 93.550345 364.953339 
L 96.628966 364.703064 
L 99.707586 363.786394 
L 102.786207 362.618239 
L 105.864828 362.120007 
L 108.943448 360.781268 
L 112.022069 360.781268 
L 118.17931 359.363846 
L 121.257931 359.363846 
L 124.336552 358.615237 
L 127.415172 357.617261 
L 130.493793 356.782907 
L 133.572414 355.366594 
L 136.651034 354.70121 
L 139.729655 353.701216 
L 142.808276 350.703958 
L 145.886897 349.036159 
L 148.965517 348.28291 
L 152.044138 348.28291 
L 155.122759 347.700951 
L 158.201379 346.201213 
L 161.28 343.953976 
L 164.358621 337.128537 
L 167.437241 334.634454 
L 170.515862 332.552756 
L 173.594483 331.469034 
L 176.673103 331.469034 
L 179.751724 331.053118 
L 182.830345 330.471159 
L 185.908966 326.726302 
L 188.987586 324.397859 
L 192.066207 322.983967 
L 195.144828 320.487362 
L 198.223448 319.156794 
L 201.302069 318.242243 
L 204.38069 316.828351 
L 207.45931 315.079346 
L 216.695172 311.170967 
L 219.773793 310.172991 
L 222.852414 309.425392 
L 225.931034 308.258345 
L 229.009655 306.099073 
L 232.088276 304.729567 
L 235.166897 302.49383 
L 238.245517 300.957978 
L 241.324138 299.737467 
L 244.402759 298.895951 
L 247.481379 297.271327 
L 250.56 295.329747 
L 259.795862 290.348037 
L 262.874483 289.003044 
L 265.953103 288.084761 
L 269.031724 286.358352 
L 275.188966 282.411438 
L 281.346207 278.606559 
L 284.424828 277.093808 
L 287.503448 276.072125 
L 293.66069 271.595103 
L 296.73931 269.058248 
L 302.896552 264.21474 
L 305.975172 262.291419 
L 309.053793 261.10793 
L 312.132414 258.724913 
L 315.211034 256.509654 
L 318.289655 253.680558 
L 321.368276 251.26072 
L 324.446897 248.548441 
L 327.525517 246.760497 
L 330.604138 245.628657 
L 333.682759 243.4712 
L 336.761379 240.9636 
L 339.84 238.604692 
L 345.997241 233.196978 
L 349.075862 231.349517 
L 352.154483 230.127392 
L 355.233103 227.799252 
L 358.311724 225.018375 
L 364.468966 219.724955 
L 367.547586 216.816268 
L 370.626207 214.947017 
L 373.704828 213.739217 
L 376.783448 210.874209 
L 379.862069 208.16667 
L 386.01931 202.45572 
L 389.097931 199.565393 
L 392.176552 197.595769 
L 395.255172 196.18218 
L 398.333793 193.493101 
L 410.648276 182.082702 
L 413.726897 179.938763 
L 416.805517 178.224358 
L 419.884138 175.604582 
L 422.962759 172.690347 
L 426.041379 169.977058 
L 432.198621 165.052545 
L 435.277241 163.238272 
L 438.355862 162.165345 
L 444.513103 158.1113 
L 453.748966 151.793776 
L 456.827586 150.392494 
L 459.906207 149.481272 
L 462.984828 147.705534 
L 475.29931 140.076711 
L 478.377931 138.691468 
L 481.456552 137.637303 
L 493.771034 130.157374 
L 496.849655 128.541426 
L 499.928276 127.400708 
L 503.006897 126.655933 
L 509.164138 123.445725 
L 512.242759 121.838855 
L 515.321379 120.064025 
L 518.4 118.436677 
L 521.478621 117.404302 
L 524.557241 116.78522 
L 527.635862 115.849283 
L 536.871724 111.321519 
L 539.950345 109.901978 
L 543.028966 109.027677 
L 546.107586 108.474972 
L 558.422069 103.524938 
L 558.422069 103.524938 
" style="fill:none;stroke:#8c564b;stroke-linecap:square;stroke-width:1.5;"/>
   </g>
   <g id="line2d_49">
    <path clip-path="url(#p5e7cb1f6a4)" d="M 72 369.819254 
L 75.078621 369.819254 
L 84.314483 368.905274 
L 87.393103 368.905274 
L 90.471724 368.490705 
L 93.550345 368.490705 
L 96.628966 368.240071 
L 99.707586 367.825414 
L 102.786207 367.160122 
L 105.864828 366.827476 
L 108.943448 366.246142 
L 112.022069 366.246142 
L 115.10069 365.913585 
L 118.17931 365.334551 
L 121.257931 365.334551 
L 124.336552 365.001905 
L 130.493793 364.087925 
L 133.572414 363.75528 
L 136.651034 363.592938 
L 139.729655 363.260203 
L 142.808276 362.180343 
L 145.886897 361.685355 
L 148.965517 361.35271 
L 152.044138 361.35271 
L 155.122759 361.100483 
L 158.201379 360.687418 
L 161.28 360.024073 
L 164.358621 358.44489 
L 167.437241 357.697586 
L 173.594483 356.950372 
L 176.673103 356.950372 
L 182.830345 356.537307 
L 188.987586 355.124801 
L 195.144828 353.878087 
L 204.38069 352.63385 
L 213.616552 350.972655 
L 222.852414 349.812288 
L 225.931034 349.47973 
L 238.245517 346.23024 
L 241.324138 345.680402 
L 244.402759 345.251501 
L 247.481379 344.629913 
L 256.717241 342.286972 
L 262.874483 340.914896 
L 265.953103 340.400445 
L 269.031724 339.622355 
L 281.346207 335.972451 
L 284.424828 335.20595 
L 287.503448 334.750863 
L 293.66069 332.716857 
L 296.73931 331.437055 
L 302.896552 329.063946 
L 305.975172 328.165094 
L 309.053793 327.552442 
L 315.211034 325.072638 
L 318.289655 323.392246 
L 321.368276 321.926038 
L 324.446897 320.257147 
L 327.525517 319.16959 
L 330.604138 318.48917 
L 333.682759 317.05835 
L 339.84 313.563181 
L 345.997241 309.474556 
L 349.075862 308.160428 
L 352.154483 307.210176 
L 355.233103 305.210762 
L 364.468966 297.435342 
L 367.547586 294.48143 
L 370.626207 292.545714 
L 373.704828 291.212742 
L 379.862069 284.730749 
L 389.097931 273.56013 
L 392.176552 270.800319 
L 395.255172 268.22311 
L 401.412414 260.508823 
L 404.491034 256.129045 
L 407.569655 252.468172 
L 410.648276 248.244454 
L 413.726897 244.805286 
L 416.805517 241.870128 
L 419.884138 238.704508 
L 426.041379 229.666273 
L 429.12 225.811827 
L 432.198621 221.719222 
L 435.277241 218.513967 
L 438.355862 216.259141 
L 441.434483 213.15775 
L 444.513103 209.647363 
L 450.670345 201.822223 
L 453.748966 198.211866 
L 456.827586 195.586087 
L 459.906207 193.463258 
L 466.063448 187.175279 
L 472.22069 180.73637 
L 475.29931 177.315957 
L 478.377931 174.775197 
L 481.456552 172.591767 
L 487.613793 166.500455 
L 493.771034 160.053142 
L 496.849655 157.390383 
L 499.928276 155.352042 
L 503.006897 153.811963 
L 518.4 141.227864 
L 521.478621 139.599492 
L 524.557241 138.432932 
L 527.635862 137.019983 
L 533.793103 132.697003 
L 539.950345 128.721266 
L 543.028966 127.437837 
L 546.107586 126.515187 
L 558.422069 119.80503 
L 558.422069 119.80503 
" style="fill:none;stroke:#e377c2;stroke-linecap:square;stroke-width:1.5;"/>
   </g>
   <g id="line2d_50">
    <path clip-path="url(#p5e7cb1f6a4)" d="M 72 372.293695 
L 75.078621 372.293695 
L 84.314483 371.629754 
L 87.393103 371.629754 
L 90.471724 371.301552 
L 93.550345 371.301552 
L 99.707586 370.793671 
L 102.786207 370.297646 
L 108.943448 369.545382 
L 112.022069 369.545382 
L 118.17931 368.961033 
L 121.257931 368.961033 
L 130.493793 368.043979 
L 133.572414 367.799781 
L 139.729655 367.547954 
L 142.808276 366.795782 
L 148.965517 366.287901 
L 152.044138 366.287901 
L 161.28 365.207527 
L 164.358621 364.126969 
L 170.515862 363.211385 
L 173.594483 363.036118 
L 179.751724 362.95965 
L 182.830345 362.790449 
L 188.987586 361.874865 
L 198.223448 360.706076 
L 201.302069 360.706076 
L 207.45931 359.953904 
L 216.695172 359.03685 
L 225.931034 358.365557 
L 238.245517 356.082021 
L 247.481379 354.999349 
L 259.795862 352.840072 
L 272.110345 350.846963 
L 284.424828 348.436503 
L 287.503448 348.136424 
L 299.817931 344.983074 
L 302.896552 344.092949 
L 305.975172 343.445276 
L 309.053793 343.00991 
L 315.211034 341.247122 
L 318.289655 340.047544 
L 321.368276 339.054299 
L 324.446897 337.888451 
L 327.525517 337.109993 
L 330.604138 336.625089 
L 333.682759 335.574033 
L 339.84 333.108612 
L 345.997241 330.13393 
L 349.075862 329.179562 
L 352.154483 328.438051 
L 355.233103 326.826727 
L 364.468966 320.741433 
L 367.547586 318.421409 
L 370.626207 316.88067 
L 373.704828 315.732192 
L 379.862069 310.425631 
L 389.097931 300.733515 
L 395.255172 296.222138 
L 401.412414 289.586501 
L 404.491034 285.89108 
L 407.569655 282.79894 
L 410.648276 279.234304 
L 416.805517 273.916897 
L 419.884138 270.729725 
L 426.041379 262.058978 
L 429.12 258.304553 
L 432.198621 254.314292 
L 435.277241 251.202944 
L 438.355862 248.770793 
L 441.434483 245.87892 
L 444.513103 242.421724 
L 450.670345 234.336428 
L 453.748966 230.745506 
L 456.827586 228.254166 
L 459.906207 226.052979 
L 472.22069 213.589389 
L 475.29931 210.153331 
L 481.456552 205.294636 
L 487.613793 198.694383 
L 493.771034 191.439197 
L 496.849655 188.442733 
L 499.928276 186.40459 
L 503.006897 184.570941 
L 515.321379 172.740778 
L 518.4 170.070586 
L 521.478621 168.225266 
L 524.557241 166.743807 
L 527.635862 165.026146 
L 533.793103 159.942276 
L 536.871724 157.562697 
L 539.950345 155.345701 
L 543.028966 153.864794 
L 546.107586 152.703266 
L 558.422069 144.813458 
L 558.422069 144.813458 
" style="fill:none;stroke:#7f7f7f;stroke-linecap:square;stroke-width:1.5;"/>
   </g>
   <g id="line2d_51">
    <path clip-path="url(#p5e7cb1f6a4)" d="M 72 382.996853 
L 81.235862 382.996853 
L 84.314483 382.826031 
L 87.393103 382.826031 
L 90.471724 382.66439 
L 99.707586 382.66439 
L 102.786207 382.331649 
L 105.864828 382.331649 
L 115.10069 381.837266 
L 121.257931 381.837266 
L 127.415172 381.504803 
L 136.651034 381.504803 
L 139.729655 381.172062 
L 148.965517 380.67768 
L 158.201379 380.67768 
L 167.437241 379.679734 
L 170.515862 379.679734 
L 173.594483 379.518093 
L 182.830345 379.518093 
L 185.908966 379.185352 
L 188.987586 379.185352 
L 192.066207 378.852889 
L 195.144828 378.852889 
L 198.223448 378.520148 
L 204.38069 378.520148 
L 207.45931 378.187685 
L 210.537931 378.025765 
L 213.616552 378.025765 
L 219.773793 377.693302 
L 222.852414 377.693302 
L 229.009655 377.360561 
L 238.245517 376.53455 
L 253.638621 375.611444 
L 265.953103 374.68472 
L 272.110345 374.149719 
L 284.424828 372.97344 
L 287.503448 372.820423 
L 299.817931 371.382625 
L 305.975172 370.621994 
L 309.053793 370.360475 
L 315.211034 369.487168 
L 324.446897 367.756969 
L 327.525517 367.347163 
L 330.604138 367.052815 
L 333.682759 366.515588 
L 342.918621 364.404796 
L 345.997241 363.557919 
L 352.154483 362.575275 
L 355.233103 361.51807 
L 361.390345 357.297598 
L 367.547586 353.730923 
L 370.626207 352.472293 
L 373.704828 351.400621 
L 379.862069 348.181433 
L 386.01931 343.986556 
L 389.097931 341.536623 
L 395.255172 337.855325 
L 401.412414 332.412112 
L 404.491034 329.148688 
L 407.569655 326.572725 
L 410.648276 323.10732 
L 413.726897 320.231445 
L 416.805517 316.958005 
L 419.884138 313.384653 
L 422.962759 309.262946 
L 426.041379 304.592605 
L 429.12 302.629265 
L 432.198621 298.570433 
L 435.277241 294.321583 
L 438.355862 291.504411 
L 441.434483 288.193413 
L 444.513103 283.962368 
L 450.670345 274.478407 
L 456.827586 265.587038 
L 459.906207 262.414867 
L 469.142069 250.185791 
L 472.22069 246.077994 
L 475.29931 241.660548 
L 478.377931 237.823451 
L 481.456552 234.799289 
L 490.692414 220.534259 
L 493.771034 215.771274 
L 496.849655 211.797297 
L 499.928276 208.575883 
L 503.006897 206.362708 
L 506.085517 202.288575 
L 509.164138 197.968225 
L 512.242759 193.901047 
L 515.321379 189.465517 
L 518.4 185.773647 
L 521.478621 183.19991 
L 524.557241 181.425753 
L 527.635862 179.157215 
L 533.793103 172.167979 
L 536.871724 169.072038 
L 539.950345 166.214803 
L 543.028966 164.122095 
L 546.107586 162.552702 
L 552.264828 157.212149 
L 555.343448 154.763329 
L 558.422069 152.472533 
L 558.422069 152.472533 
" style="fill:none;stroke:#bcbd22;stroke-linecap:square;stroke-width:1.5;"/>
   </g>
   <g id="patch_3">
    <path d="M 72 384.48 
L 72 51.84 
" style="fill:none;stroke:#000000;stroke-linecap:square;stroke-linejoin:miter;stroke-width:0.8;"/>
   </g>
   <g id="patch_4">
    <path d="M 518.4 384.48 
L 518.4 51.84 
" style="fill:none;stroke:#000000;stroke-linecap:square;stroke-linejoin:miter;stroke-width:0.8;"/>
   </g>
   <g id="patch_5">
    <path d="M 72 384.48 
L 518.4 384.48 
" style="fill:none;stroke:#000000;stroke-linecap:square;stroke-linejoin:miter;stroke-width:0.8;"/>
   </g>
   <g id="patch_6">
    <path d="M 72 51.84 
L 518.4 51.84 
" style="fill:none;stroke:#000000;stroke-linecap:square;stroke-linejoin:miter;stroke-width:0.8;"/>
   </g>
   <g id="text_24">
    <!-- First dose coverage by age group -->
    <g transform="translate(194.92125 45.84)scale(0.12 -0.12)">
     <defs>
      <path d="M 628 4666 
L 3309 4666 
L 3309 4134 
L 1259 4134 
L 1259 2759 
L 3109 2759 
L 3109 2228 
L 1259 2228 
L 1259 0 
L 628 0 
L 628 4666 
z
" id="DejaVuSans-46" transform="scale(0.015625)"/>
      <path d="M 2834 3397 
L 2834 2853 
Q 2591 2978 2328 3040 
Q 2066 3103 1784 3103 
Q 1356 3103 1142 2972 
Q 928 2841 928 2578 
Q 928 2378 1081 2264 
Q 1234 2150 1697 2047 
L 1894 2003 
Q 2506 1872 2764 1633 
Q 3022 1394 3022 966 
Q 3022 478 2636 193 
Q 2250 -91 1575 -91 
Q 1294 -91 989 -36 
Q 684 19 347 128 
L 347 722 
Q 666 556 975 473 
Q 1284 391 1588 391 
Q 1994 391 2212 530 
Q 2431 669 2431 922 
Q 2431 1156 2273 1281 
Q 2116 1406 1581 1522 
L 1381 1569 
Q 847 1681 609 1914 
Q 372 2147 372 2553 
Q 372 3047 722 3315 
Q 1072 3584 1716 3584 
Q 2034 3584 2315 3537 
Q 2597 3491 2834 3397 
z
" id="DejaVuSans-73" transform="scale(0.015625)"/>
      <path d="M 2906 2969 
L 2906 4863 
L 3481 4863 
L 3481 0 
L 2906 0 
L 2906 525 
Q 2725 213 2448 61 
Q 2172 -91 1784 -91 
Q 1150 -91 751 415 
Q 353 922 353 1747 
Q 353 2572 751 3078 
Q 1150 3584 1784 3584 
Q 2172 3584 2448 3432 
Q 2725 3281 2906 2969 
z
M 947 1747 
Q 947 1113 1208 752 
Q 1469 391 1925 391 
Q 2381 391 2643 752 
Q 2906 1113 2906 1747 
Q 2906 2381 2643 2742 
Q 2381 3103 1925 3103 
Q 1469 3103 1208 2742 
Q 947 2381 947 1747 
z
" id="DejaVuSans-64" transform="scale(0.015625)"/>
      <path d="M 3116 1747 
Q 3116 2381 2855 2742 
Q 2594 3103 2138 3103 
Q 1681 3103 1420 2742 
Q 1159 2381 1159 1747 
Q 1159 1113 1420 752 
Q 1681 391 2138 391 
Q 2594 391 2855 752 
Q 3116 1113 3116 1747 
z
M 1159 2969 
Q 1341 3281 1617 3432 
Q 1894 3584 2278 3584 
Q 2916 3584 3314 3078 
Q 3713 2572 3713 1747 
Q 3713 922 3314 415 
Q 2916 -91 2278 -91 
Q 1894 -91 1617 61 
Q 1341 213 1159 525 
L 1159 0 
L 581 0 
L 581 4863 
L 1159 4863 
L 1159 2969 
z
" id="DejaVuSans-62" transform="scale(0.015625)"/>
      <path d="M 2059 -325 
Q 1816 -950 1584 -1140 
Q 1353 -1331 966 -1331 
L 506 -1331 
L 506 -850 
L 844 -850 
Q 1081 -850 1212 -737 
Q 1344 -625 1503 -206 
L 1606 56 
L 191 3500 
L 800 3500 
L 1894 763 
L 2988 3500 
L 3597 3500 
L 2059 -325 
z
" id="DejaVuSans-79" transform="scale(0.015625)"/>
     </defs>
     <use xlink:href="#DejaVuSans-46"/>
     <use x="50.269531" xlink:href="#DejaVuSans-69"/>
     <use x="78.052734" xlink:href="#DejaVuSans-72"/>
     <use x="119.166016" xlink:href="#DejaVuSans-73"/>
     <use x="171.265625" xlink:href="#DejaVuSans-74"/>
     <use x="210.474609" xlink:href="#DejaVuSans-20"/>
     <use x="242.261719" xlink:href="#DejaVuSans-64"/>
     <use x="305.738281" xlink:href="#DejaVuSans-6f"/>
     <use x="366.919922" xlink:href="#DejaVuSans-73"/>
     <use x="419.019531" xlink:href="#DejaVuSans-65"/>
     <use x="480.542969" xlink:href="#DejaVuSans-20"/>
     <use x="512.330078" xlink:href="#DejaVuSans-63"/>
     <use x="567.310547" xlink:href="#DejaVuSans-6f"/>
     <use x="628.492188" xlink:href="#DejaVuSans-76"/>
     <use x="687.671875" xlink:href="#DejaVuSans-65"/>
     <use x="749.195312" xlink:href="#DejaVuSans-72"/>
     <use x="790.308594" xlink:href="#DejaVuSans-61"/>
     <use x="851.587891" xlink:href="#DejaVuSans-67"/>
     <use x="915.064453" xlink:href="#DejaVuSans-65"/>
     <use x="976.587891" xlink:href="#DejaVuSans-20"/>
     <use x="1008.375" xlink:href="#DejaVuSans-62"/>
     <use x="1071.851562" xlink:href="#DejaVuSans-79"/>
     <use x="1131.03125" xlink:href="#DejaVuSans-20"/>
     <use x="1162.818359" xlink:href="#DejaVuSans-61"/>
     <use x="1224.097656" xlink:href="#DejaVuSans-67"/>
     <use x="1287.574219" xlink:href="#DejaVuSans-65"/>
     <use x="1349.097656" xlink:href="#DejaVuSans-20"/>
     <use x="1380.884766" xlink:href="#DejaVuSans-67"/>
     <use x="1444.361328" xlink:href="#DejaVuSans-72"/>
     <use x="1483.224609" xlink:href="#DejaVuSans-6f"/>
     <use x="1544.40625" xlink:href="#DejaVuSans-75"/>
     <use x="1607.785156" xlink:href="#DejaVuSans-70"/>
    </g>
   </g>
   <g id="legend_1">
    <g id="patch_7">
     <path d="M 78.3 177.932812 
L 200.795625 177.932812 
Q 202.595625 177.932812 202.595625 176.132812 
L 202.595625 58.14 
Q 202.595625 56.34 200.795625 56.34 
L 78.3 56.34 
Q 76.5 56.34 76.5 58.14 
L 76.5 176.132812 
Q 76.5 177.932812 78.3 177.932812 
z
" style="fill:#ffffff;opacity:0.8;stroke:#cccccc;stroke-linejoin:miter;"/>
    </g>
    <g id="line2d_52">
     <path d="M 80.1 63.628594 
L 98.1 63.628594 
" style="fill:none;stroke:#1f77b4;stroke-linecap:square;stroke-width:1.5;"/>
    </g>
    <g id="line2d_53"/>
    <g id="text_25">
     <!-- Ages 90+ (95.6 %) -->
     <g transform="translate(105.3 66.778594)scale(0.09 -0.09)">
      <defs>
       <path d="M 2944 4013 
L 2944 2272 
L 4684 2272 
L 4684 1741 
L 2944 1741 
L 2944 0 
L 2419 0 
L 2419 1741 
L 678 1741 
L 678 2272 
L 2419 2272 
L 2419 4013 
L 2944 4013 
z
" id="DejaVuSans-2b" transform="scale(0.015625)"/>
       <path d="M 684 794 
L 1344 794 
L 1344 0 
L 684 0 
L 684 794 
z
" id="DejaVuSans-2e" transform="scale(0.015625)"/>
      </defs>
      <use xlink:href="#DejaVuSans-41"/>
      <use x="68.408203" xlink:href="#DejaVuSans-67"/>
      <use x="131.884766" xlink:href="#DejaVuSans-65"/>
      <use x="193.408203" xlink:href="#DejaVuSans-73"/>
      <use x="245.507812" xlink:href="#DejaVuSans-20"/>
      <use x="277.294922" xlink:href="#DejaVuSans-39"/>
      <use x="340.917969" xlink:href="#DejaVuSans-30"/>
      <use x="404.541016" xlink:href="#DejaVuSans-2b"/>
      <use x="488.330078" xlink:href="#DejaVuSans-20"/>
      <use x="520.117188" xlink:href="#DejaVuSans-28"/>
      <use x="559.130859" xlink:href="#DejaVuSans-39"/>
      <use x="622.753906" xlink:href="#DejaVuSans-35"/>
      <use x="686.376953" xlink:href="#DejaVuSans-2e"/>
      <use x="718.164062" xlink:href="#DejaVuSans-36"/>
      <use x="781.787109" xlink:href="#DejaVuSans-20"/>
      <use x="813.574219" xlink:href="#DejaVuSans-25"/>
      <use x="908.59375" xlink:href="#DejaVuSans-29"/>
     </g>
    </g>
    <g id="line2d_54">
     <path d="M 80.1 76.838906 
L 98.1 76.838906 
" style="fill:none;stroke:#ff7f0e;stroke-linecap:square;stroke-width:1.5;"/>
    </g>
    <g id="line2d_55"/>
    <g id="text_26">
     <!-- Ages 8089 (97.3 %) -->
     <g transform="translate(105.3 79.988906)scale(0.09 -0.09)">
      <defs>
       <path d="M 313 1978 
L 2888 1978 
L 2888 1528 
L 313 1528 
L 313 1978 
z
" id="DejaVuSans-2013" transform="scale(0.015625)"/>
      </defs>
      <use xlink:href="#DejaVuSans-41"/>
      <use x="68.408203" xlink:href="#DejaVuSans-67"/>
      <use x="131.884766" xlink:href="#DejaVuSans-65"/>
      <use x="193.408203" xlink:href="#DejaVuSans-73"/>
      <use x="245.507812" xlink:href="#DejaVuSans-20"/>
      <use x="277.294922" xlink:href="#DejaVuSans-38"/>
      <use x="340.917969" xlink:href="#DejaVuSans-30"/>
      <use x="404.541016" xlink:href="#DejaVuSans-2013"/>
      <use x="454.541016" xlink:href="#DejaVuSans-38"/>
      <use x="518.164062" xlink:href="#DejaVuSans-39"/>
      <use x="581.787109" xlink:href="#DejaVuSans-20"/>
      <use x="613.574219" xlink:href="#DejaVuSans-28"/>
      <use x="652.587891" xlink:href="#DejaVuSans-39"/>
      <use x="716.210938" xlink:href="#DejaVuSans-37"/>
      <use x="779.833984" xlink:href="#DejaVuSans-2e"/>
      <use x="811.621094" xlink:href="#DejaVuSans-33"/>
      <use x="875.244141" xlink:href="#DejaVuSans-20"/>
      <use x="907.03125" xlink:href="#DejaVuSans-25"/>
      <use x="1002.050781" xlink:href="#DejaVuSans-29"/>
     </g>
    </g>
    <g id="line2d_56">
     <path d="M 80.1 90.049219 
L 98.1 90.049219 
" style="fill:none;stroke:#2ca02c;stroke-linecap:square;stroke-width:1.5;"/>
    </g>
    <g id="line2d_57"/>
    <g id="text_27">
     <!-- Ages 7079 (97.5 %) -->
     <g transform="translate(105.3 93.199219)scale(0.09 -0.09)">
      <use xlink:href="#DejaVuSans-41"/>
      <use x="68.408203" xlink:href="#DejaVuSans-67"/>
      <use x="131.884766" xlink:href="#DejaVuSans-65"/>
      <use x="193.408203" xlink:href="#DejaVuSans-73"/>
      <use x="245.507812" xlink:href="#DejaVuSans-20"/>
      <use x="277.294922" xlink:href="#DejaVuSans-37"/>
      <use x="340.917969" xlink:href="#DejaVuSans-30"/>
      <use x="404.541016" xlink:href="#DejaVuSans-2013"/>
      <use x="454.541016" xlink:href="#DejaVuSans-37"/>
      <use x="518.164062" xlink:href="#DejaVuSans-39"/>
      <use x="581.787109" xlink:href="#DejaVuSans-20"/>
      <use x="613.574219" xlink:href="#DejaVuSans-28"/>
      <use x="652.587891" xlink:href="#DejaVuSans-39"/>
      <use x="716.210938" xlink:href="#DejaVuSans-37"/>
      <use x="779.833984" xlink:href="#DejaVuSans-2e"/>
      <use x="811.621094" xlink:href="#DejaVuSans-35"/>
      <use x="875.244141" xlink:href="#DejaVuSans-20"/>
      <use x="907.03125" xlink:href="#DejaVuSans-25"/>
      <use x="1002.050781" xlink:href="#DejaVuSans-29"/>
     </g>
    </g>
    <g id="line2d_58">
     <path d="M 80.1 103.259531 
L 98.1 103.259531 
" style="fill:none;stroke:#d62728;stroke-linecap:square;stroke-width:1.5;"/>
    </g>
    <g id="line2d_59"/>
    <g id="text_28">
     <!-- Ages 6069 (92.7 %) -->
     <g transform="translate(105.3 106.409531)scale(0.09 -0.09)">
      <use xlink:href="#DejaVuSans-41"/>
      <use x="68.408203" xlink:href="#DejaVuSans-67"/>
      <use x="131.884766" xlink:href="#DejaVuSans-65"/>
      <use x="193.408203" xlink:href="#DejaVuSans-73"/>
      <use x="245.507812" xlink:href="#DejaVuSans-20"/>
      <use x="277.294922" xlink:href="#DejaVuSans-36"/>
      <use x="340.917969" xlink:href="#DejaVuSans-30"/>
      <use x="404.541016" xlink:href="#DejaVuSans-2013"/>
      <use x="454.541016" xlink:href="#DejaVuSans-36"/>
      <use x="518.164062" xlink:href="#DejaVuSans-39"/>
      <use x="581.787109" xlink:href="#DejaVuSans-20"/>
      <use x="613.574219" xlink:href="#DejaVuSans-28"/>
      <use x="652.587891" xlink:href="#DejaVuSans-39"/>
      <use x="716.210938" xlink:href="#DejaVuSans-32"/>
      <use x="779.833984" xlink:href="#DejaVuSans-2e"/>
      <use x="811.621094" xlink:href="#DejaVuSans-37"/>
      <use x="875.244141" xlink:href="#DejaVuSans-20"/>
      <use x="907.03125" xlink:href="#DejaVuSans-25"/>
      <use x="1002.050781" xlink:href="#DejaVuSans-29"/>
     </g>
    </g>
    <g id="line2d_60">
     <path d="M 80.1 116.469844 
L 98.1 116.469844 
" style="fill:none;stroke:#9467bd;stroke-linecap:square;stroke-width:1.5;"/>
    </g>
    <g id="line2d_61"/>
    <g id="text_29">
     <!-- Ages 5059 (88.8 %) -->
     <g transform="translate(105.3 119.619844)scale(0.09 -0.09)">
      <use xlink:href="#DejaVuSans-41"/>
      <use x="68.408203" xlink:href="#DejaVuSans-67"/>
      <use x="131.884766" xlink:href="#DejaVuSans-65"/>
      <use x="193.408203" xlink:href="#DejaVuSans-73"/>
      <use x="245.507812" xlink:href="#DejaVuSans-20"/>
      <use x="277.294922" xlink:href="#DejaVuSans-35"/>
      <use x="340.917969" xlink:href="#DejaVuSans-30"/>
      <use x="404.541016" xlink:href="#DejaVuSans-2013"/>
      <use x="454.541016" xlink:href="#DejaVuSans-35"/>
      <use x="518.164062" xlink:href="#DejaVuSans-39"/>
      <use x="581.787109" xlink:href="#DejaVuSans-20"/>
      <use x="613.574219" xlink:href="#DejaVuSans-28"/>
      <use x="652.587891" xlink:href="#DejaVuSans-38"/>
      <use x="716.210938" xlink:href="#DejaVuSans-38"/>
      <use x="779.833984" xlink:href="#DejaVuSans-2e"/>
      <use x="811.621094" xlink:href="#DejaVuSans-38"/>
      <use x="875.244141" xlink:href="#DejaVuSans-20"/>
      <use x="907.03125" xlink:href="#DejaVuSans-25"/>
      <use x="1002.050781" xlink:href="#DejaVuSans-29"/>
     </g>
    </g>
    <g id="line2d_62">
     <path d="M 80.1 129.680156 
L 98.1 129.680156 
" style="fill:none;stroke:#8c564b;stroke-linecap:square;stroke-width:1.5;"/>
    </g>
    <g id="line2d_63"/>
    <g id="text_30">
     <!-- Ages 4049 (84.5 %) -->
     <g transform="translate(105.3 132.830156)scale(0.09 -0.09)">
      <use xlink:href="#DejaVuSans-41"/>
      <use x="68.408203" xlink:href="#DejaVuSans-67"/>
      <use x="131.884766" xlink:href="#DejaVuSans-65"/>
      <use x="193.408203" xlink:href="#DejaVuSans-73"/>
      <use x="245.507812" xlink:href="#DejaVuSans-20"/>
      <use x="277.294922" xlink:href="#DejaVuSans-34"/>
      <use x="340.917969" xlink:href="#DejaVuSans-30"/>
      <use x="404.541016" xlink:href="#DejaVuSans-2013"/>
      <use x="454.541016" xlink:href="#DejaVuSans-34"/>
      <use x="518.164062" xlink:href="#DejaVuSans-39"/>
      <use x="581.787109" xlink:href="#DejaVuSans-20"/>
      <use x="613.574219" xlink:href="#DejaVuSans-28"/>
      <use x="652.587891" xlink:href="#DejaVuSans-38"/>
      <use x="716.210938" xlink:href="#DejaVuSans-34"/>
      <use x="779.833984" xlink:href="#DejaVuSans-2e"/>
      <use x="811.621094" xlink:href="#DejaVuSans-35"/>
      <use x="875.244141" xlink:href="#DejaVuSans-20"/>
      <use x="907.03125" xlink:href="#DejaVuSans-25"/>
      <use x="1002.050781" xlink:href="#DejaVuSans-29"/>
     </g>
    </g>
    <g id="line2d_64">
     <path d="M 80.1 142.890469 
L 98.1 142.890469 
" style="fill:none;stroke:#e377c2;stroke-linecap:square;stroke-width:1.5;"/>
    </g>
    <g id="line2d_65"/>
    <g id="text_31">
     <!-- Ages 3039 (79.6 %) -->
     <g transform="translate(105.3 146.040469)scale(0.09 -0.09)">
      <use xlink:href="#DejaVuSans-41"/>
      <use x="68.408203" xlink:href="#DejaVuSans-67"/>
      <use x="131.884766" xlink:href="#DejaVuSans-65"/>
      <use x="193.408203" xlink:href="#DejaVuSans-73"/>
      <use x="245.507812" xlink:href="#DejaVuSans-20"/>
      <use x="277.294922" xlink:href="#DejaVuSans-33"/>
      <use x="340.917969" xlink:href="#DejaVuSans-30"/>
      <use x="404.541016" xlink:href="#DejaVuSans-2013"/>
      <use x="454.541016" xlink:href="#DejaVuSans-33"/>
      <use x="518.164062" xlink:href="#DejaVuSans-39"/>
      <use x="581.787109" xlink:href="#DejaVuSans-20"/>
      <use x="613.574219" xlink:href="#DejaVuSans-28"/>
      <use x="652.587891" xlink:href="#DejaVuSans-37"/>
      <use x="716.210938" xlink:href="#DejaVuSans-39"/>
      <use x="779.833984" xlink:href="#DejaVuSans-2e"/>
      <use x="811.621094" xlink:href="#DejaVuSans-36"/>
      <use x="875.244141" xlink:href="#DejaVuSans-20"/>
      <use x="907.03125" xlink:href="#DejaVuSans-25"/>
      <use x="1002.050781" xlink:href="#DejaVuSans-29"/>
     </g>
    </g>
    <g id="line2d_66">
     <path d="M 80.1 156.100781 
L 98.1 156.100781 
" style="fill:none;stroke:#7f7f7f;stroke-linecap:square;stroke-width:1.5;"/>
    </g>
    <g id="line2d_67"/>
    <g id="text_32">
     <!-- Ages 2029 (72.0 %) -->
     <g transform="translate(105.3 159.250781)scale(0.09 -0.09)">
      <use xlink:href="#DejaVuSans-41"/>
      <use x="68.408203" xlink:href="#DejaVuSans-67"/>
      <use x="131.884766" xlink:href="#DejaVuSans-65"/>
      <use x="193.408203" xlink:href="#DejaVuSans-73"/>
      <use x="245.507812" xlink:href="#DejaVuSans-20"/>
      <use x="277.294922" xlink:href="#DejaVuSans-32"/>
      <use x="340.917969" xlink:href="#DejaVuSans-30"/>
      <use x="404.541016" xlink:href="#DejaVuSans-2013"/>
      <use x="454.541016" xlink:href="#DejaVuSans-32"/>
      <use x="518.164062" xlink:href="#DejaVuSans-39"/>
      <use x="581.787109" xlink:href="#DejaVuSans-20"/>
      <use x="613.574219" xlink:href="#DejaVuSans-28"/>
      <use x="652.587891" xlink:href="#DejaVuSans-37"/>
      <use x="716.210938" xlink:href="#DejaVuSans-32"/>
      <use x="779.833984" xlink:href="#DejaVuSans-2e"/>
      <use x="811.621094" xlink:href="#DejaVuSans-30"/>
      <use x="875.244141" xlink:href="#DejaVuSans-20"/>
      <use x="907.03125" xlink:href="#DejaVuSans-25"/>
      <use x="1002.050781" xlink:href="#DejaVuSans-29"/>
     </g>
    </g>
    <g id="line2d_68">
     <path d="M 80.1 169.311094 
L 98.1 169.311094 
" style="fill:none;stroke:#bcbd22;stroke-linecap:square;stroke-width:1.5;"/>
    </g>
    <g id="line2d_69"/>
    <g id="text_33">
     <!-- Ages 1619 (69.7 %) -->
     <g transform="translate(105.3 172.461094)scale(0.09 -0.09)">
      <use xlink:href="#DejaVuSans-41"/>
      <use x="68.408203" xlink:href="#DejaVuSans-67"/>
      <use x="131.884766" xlink:href="#DejaVuSans-65"/>
      <use x="193.408203" xlink:href="#DejaVuSans-73"/>
      <use x="245.507812" xlink:href="#DejaVuSans-20"/>
      <use x="277.294922" xlink:href="#DejaVuSans-31"/>
      <use x="340.917969" xlink:href="#DejaVuSans-36"/>
      <use x="404.541016" xlink:href="#DejaVuSans-2013"/>
      <use x="454.541016" xlink:href="#DejaVuSans-31"/>
      <use x="518.164062" xlink:href="#DejaVuSans-39"/>
      <use x="581.787109" xlink:href="#DejaVuSans-20"/>
      <use x="613.574219" xlink:href="#DejaVuSans-28"/>
      <use x="652.587891" xlink:href="#DejaVuSans-36"/>
      <use x="716.210938" xlink:href="#DejaVuSans-39"/>
      <use x="779.833984" xlink:href="#DejaVuSans-2e"/>
      <use x="811.621094" xlink:href="#DejaVuSans-37"/>
      <use x="875.244141" xlink:href="#DejaVuSans-20"/>
      <use x="907.03125" xlink:href="#DejaVuSans-25"/>
      <use x="1002.050781" xlink:href="#DejaVuSans-29"/>
     </g>
    </g>
   </g>
  </g>
 </g>
 <defs>
  <clipPath id="p5e7cb1f6a4">
   <rect height="332.64" width="446.4" x="72" y="51.84"/>
  </clipPath>
 </defs>
</svg>
