<?xml version="1.0" encoding="utf-8" standalone="no"?>
<!DOCTYPE svg PUBLIC "-//W3C//DTD SVG 1.1//EN"
  "http://www.w3.org/Graphics/SVG/1.1/DTD/svg11.dtd">
<svg xmlns:xlink="http://www.w3.org/1999/xlink" width="576pt" height="432pt" viewBox="0 0 576 432" xmlns="http://www.w3.org/2000/svg" version="1.1">
 <metadata>
  <rdf:RDF xmlns:dc="http://purl.org/dc/elements/1.1/" xmlns:cc="http://creativecommons.org/ns#" xmlns:rdf="http://www.w3.org/1999/02/22-rdf-syntax-ns#">
   <cc:Work>
    <dc:type rdf:resource="http://purl.org/dc/dcmitype/StillImage"/>
    <dc:date>2021-12-02T04:47:37.536097</dc:date>
    <dc:format>image/svg+xml</dc:format>
    <dc:creator>
     <cc:Agent>
      <dc:title>Matplotlib v3.5.0, https://matplotlib.org/</dc:title>
     </cc:Agent>
    </dc:creator>
   </cc:Work>
  </rdf:RDF>
 </metadata>
 <defs>
  <style type="text/css">*{stroke-linejoin: round; stroke-linecap: butt}</style>
 </defs>
 <g id="figure_1">
  <g id="patch_1">
   <path d="M 0 432 
L 576 432 
L 576 0 
L 0 0 
z
" style="fill: #ffffff"/>
  </g>
  <g id="axes_1">
   <g id="patch_2">
    <path d="M 72 384.48 
L 518.4 384.48 
L 518.4 51.84 
L 72 51.84 
z
" style="fill: #ffffff"/>
   </g>
   <g id="matplotlib.axis_1">
    <g id="xtick_1">
     <g id="line2d_1">
      <path d="M 90.471724 384.48 
L 90.471724 51.84 
" clip-path="url(#p815ecdaeaa)" style="fill: none; stroke-dasharray: 0.8,1.32; stroke-dashoffset: 0; stroke: #000000; stroke-opacity: 0.5; stroke-width: 0.8"/>
     </g>
     <g id="line2d_2">
      <defs>
       <path id="m2cda4f032a" d="M 0 0 
L 0 3.5 
" style="stroke: #000000; stroke-width: 0.8"/>
      </defs>
      <g>
       <use xlink:href="#m2cda4f032a" x="90.471724" y="384.48" style="stroke: #000000; stroke-width: 0.8"/>
      </g>
     </g>
     <g id="text_1">
      <!-- 15 -->
      <g transform="translate(84.109224 399.078438)scale(0.1 -0.1)">
       <defs>
        <path id="DejaVuSans-31" d="M 794 531 
L 1825 531 
L 1825 4091 
L 703 3866 
L 703 4441 
L 1819 4666 
L 2450 4666 
L 2450 531 
L 3481 531 
L 3481 0 
L 794 0 
L 794 531 
z
" transform="scale(0.015625)"/>
        <path id="DejaVuSans-35" d="M 691 4666 
L 3169 4666 
L 3169 4134 
L 1269 4134 
L 1269 2991 
Q 1406 3038 1543 3061 
Q 1681 3084 1819 3084 
Q 2600 3084 3056 2656 
Q 3513 2228 3513 1497 
Q 3513 744 3044 326 
Q 2575 -91 1722 -91 
Q 1428 -91 1123 -41 
Q 819 9 494 109 
L 494 744 
Q 775 591 1075 516 
Q 1375 441 1709 441 
Q 2250 441 2565 725 
Q 2881 1009 2881 1497 
Q 2881 1984 2565 2268 
Q 2250 2553 1709 2553 
Q 1456 2553 1204 2497 
Q 953 2441 691 2322 
L 691 4666 
z
" transform="scale(0.015625)"/>
       </defs>
       <use xlink:href="#DejaVuSans-31"/>
       <use xlink:href="#DejaVuSans-35" x="63.623047"/>
      </g>
     </g>
    </g>
    <g id="xtick_2">
     <g id="line2d_3">
      <path d="M 142.808276 384.48 
L 142.808276 51.84 
" clip-path="url(#p815ecdaeaa)" style="fill: none; stroke-dasharray: 0.8,1.32; stroke-dashoffset: 0; stroke: #000000; stroke-opacity: 0.5; stroke-width: 0.8"/>
     </g>
     <g id="line2d_4">
      <g>
       <use xlink:href="#m2cda4f032a" x="142.808276" y="384.48" style="stroke: #000000; stroke-width: 0.8"/>
      </g>
     </g>
     <g id="text_2">
      <!-- Jun -->
      <g transform="translate(134.995776 399.078438)scale(0.1 -0.1)">
       <defs>
        <path id="DejaVuSans-4a" d="M 628 4666 
L 1259 4666 
L 1259 325 
Q 1259 -519 939 -900 
Q 619 -1281 -91 -1281 
L -331 -1281 
L -331 -750 
L -134 -750 
Q 284 -750 456 -515 
Q 628 -281 628 325 
L 628 4666 
z
" transform="scale(0.015625)"/>
        <path id="DejaVuSans-75" d="M 544 1381 
L 544 3500 
L 1119 3500 
L 1119 1403 
Q 1119 906 1312 657 
Q 1506 409 1894 409 
Q 2359 409 2629 706 
Q 2900 1003 2900 1516 
L 2900 3500 
L 3475 3500 
L 3475 0 
L 2900 0 
L 2900 538 
Q 2691 219 2414 64 
Q 2138 -91 1772 -91 
Q 1169 -91 856 284 
Q 544 659 544 1381 
z
M 1991 3584 
L 1991 3584 
z
" transform="scale(0.015625)"/>
        <path id="DejaVuSans-6e" d="M 3513 2113 
L 3513 0 
L 2938 0 
L 2938 2094 
Q 2938 2591 2744 2837 
Q 2550 3084 2163 3084 
Q 1697 3084 1428 2787 
Q 1159 2491 1159 1978 
L 1159 0 
L 581 0 
L 581 3500 
L 1159 3500 
L 1159 2956 
Q 1366 3272 1645 3428 
Q 1925 3584 2291 3584 
Q 2894 3584 3203 3211 
Q 3513 2838 3513 2113 
z
" transform="scale(0.015625)"/>
       </defs>
       <use xlink:href="#DejaVuSans-4a"/>
       <use xlink:href="#DejaVuSans-75" x="29.492188"/>
       <use xlink:href="#DejaVuSans-6e" x="92.871094"/>
      </g>
     </g>
    </g>
    <g id="xtick_3">
     <g id="line2d_5">
      <path d="M 185.908966 384.48 
L 185.908966 51.84 
" clip-path="url(#p815ecdaeaa)" style="fill: none; stroke-dasharray: 0.8,1.32; stroke-dashoffset: 0; stroke: #000000; stroke-opacity: 0.5; stroke-width: 0.8"/>
     </g>
     <g id="line2d_6">
      <g>
       <use xlink:href="#m2cda4f032a" x="185.908966" y="384.48" style="stroke: #000000; stroke-width: 0.8"/>
      </g>
     </g>
     <g id="text_3">
      <!-- 15 -->
      <g transform="translate(179.546466 399.078438)scale(0.1 -0.1)">
       <use xlink:href="#DejaVuSans-31"/>
       <use xlink:href="#DejaVuSans-35" x="63.623047"/>
      </g>
     </g>
    </g>
    <g id="xtick_4">
     <g id="line2d_7">
      <path d="M 235.166897 384.48 
L 235.166897 51.84 
" clip-path="url(#p815ecdaeaa)" style="fill: none; stroke-dasharray: 0.8,1.32; stroke-dashoffset: 0; stroke: #000000; stroke-opacity: 0.5; stroke-width: 0.8"/>
     </g>
     <g id="line2d_8">
      <g>
       <use xlink:href="#m2cda4f032a" x="235.166897" y="384.48" style="stroke: #000000; stroke-width: 0.8"/>
      </g>
     </g>
     <g id="text_4">
      <!-- Jul -->
      <g transform="translate(229.134084 399.078438)scale(0.1 -0.1)">
       <defs>
        <path id="DejaVuSans-6c" d="M 603 4863 
L 1178 4863 
L 1178 0 
L 603 0 
L 603 4863 
z
" transform="scale(0.015625)"/>
       </defs>
       <use xlink:href="#DejaVuSans-4a"/>
       <use xlink:href="#DejaVuSans-75" x="29.492188"/>
       <use xlink:href="#DejaVuSans-6c" x="92.871094"/>
      </g>
     </g>
    </g>
    <g id="xtick_5">
     <g id="line2d_9">
      <path d="M 278.267586 384.48 
L 278.267586 51.84 
" clip-path="url(#p815ecdaeaa)" style="fill: none; stroke-dasharray: 0.8,1.32; stroke-dashoffset: 0; stroke: #000000; stroke-opacity: 0.5; stroke-width: 0.8"/>
     </g>
     <g id="line2d_10">
      <g>
       <use xlink:href="#m2cda4f032a" x="278.267586" y="384.48" style="stroke: #000000; stroke-width: 0.8"/>
      </g>
     </g>
     <g id="text_5">
      <!-- 15 -->
      <g transform="translate(271.905086 399.078438)scale(0.1 -0.1)">
       <use xlink:href="#DejaVuSans-31"/>
       <use xlink:href="#DejaVuSans-35" x="63.623047"/>
      </g>
     </g>
    </g>
    <g id="xtick_6">
     <g id="line2d_11">
      <path d="M 330.604138 384.48 
L 330.604138 51.84 
" clip-path="url(#p815ecdaeaa)" style="fill: none; stroke-dasharray: 0.8,1.32; stroke-dashoffset: 0; stroke: #000000; stroke-opacity: 0.5; stroke-width: 0.8"/>
     </g>
     <g id="line2d_12">
      <g>
       <use xlink:href="#m2cda4f032a" x="330.604138" y="384.48" style="stroke: #000000; stroke-width: 0.8"/>
      </g>
     </g>
     <g id="text_6">
      <!-- Aug -->
      <g transform="translate(320.840857 399.078438)scale(0.1 -0.1)">
       <defs>
        <path id="DejaVuSans-41" d="M 2188 4044 
L 1331 1722 
L 3047 1722 
L 2188 4044 
z
M 1831 4666 
L 2547 4666 
L 4325 0 
L 3669 0 
L 3244 1197 
L 1141 1197 
L 716 0 
L 50 0 
L 1831 4666 
z
" transform="scale(0.015625)"/>
        <path id="DejaVuSans-67" d="M 2906 1791 
Q 2906 2416 2648 2759 
Q 2391 3103 1925 3103 
Q 1463 3103 1205 2759 
Q 947 2416 947 1791 
Q 947 1169 1205 825 
Q 1463 481 1925 481 
Q 2391 481 2648 825 
Q 2906 1169 2906 1791 
z
M 3481 434 
Q 3481 -459 3084 -895 
Q 2688 -1331 1869 -1331 
Q 1566 -1331 1297 -1286 
Q 1028 -1241 775 -1147 
L 775 -588 
Q 1028 -725 1275 -790 
Q 1522 -856 1778 -856 
Q 2344 -856 2625 -561 
Q 2906 -266 2906 331 
L 2906 616 
Q 2728 306 2450 153 
Q 2172 0 1784 0 
Q 1141 0 747 490 
Q 353 981 353 1791 
Q 353 2603 747 3093 
Q 1141 3584 1784 3584 
Q 2172 3584 2450 3431 
Q 2728 3278 2906 2969 
L 2906 3500 
L 3481 3500 
L 3481 434 
z
" transform="scale(0.015625)"/>
       </defs>
       <use xlink:href="#DejaVuSans-41"/>
       <use xlink:href="#DejaVuSans-75" x="68.408203"/>
       <use xlink:href="#DejaVuSans-67" x="131.787109"/>
      </g>
     </g>
    </g>
    <g id="xtick_7">
     <g id="line2d_13">
      <path d="M 373.704828 384.48 
L 373.704828 51.84 
" clip-path="url(#p815ecdaeaa)" style="fill: none; stroke-dasharray: 0.8,1.32; stroke-dashoffset: 0; stroke: #000000; stroke-opacity: 0.5; stroke-width: 0.8"/>
     </g>
     <g id="line2d_14">
      <g>
       <use xlink:href="#m2cda4f032a" x="373.704828" y="384.48" style="stroke: #000000; stroke-width: 0.8"/>
      </g>
     </g>
     <g id="text_7">
      <!-- 15 -->
      <g transform="translate(367.342328 399.078438)scale(0.1 -0.1)">
       <use xlink:href="#DejaVuSans-31"/>
       <use xlink:href="#DejaVuSans-35" x="63.623047"/>
      </g>
     </g>
    </g>
    <g id="xtick_8">
     <g id="line2d_15">
      <path d="M 426.041379 384.48 
L 426.041379 51.84 
" clip-path="url(#p815ecdaeaa)" style="fill: none; stroke-dasharray: 0.8,1.32; stroke-dashoffset: 0; stroke: #000000; stroke-opacity: 0.5; stroke-width: 0.8"/>
     </g>
     <g id="line2d_16">
      <g>
       <use xlink:href="#m2cda4f032a" x="426.041379" y="384.48" style="stroke: #000000; stroke-width: 0.8"/>
      </g>
     </g>
     <g id="text_8">
      <!-- Sep -->
      <g transform="translate(416.616379 399.078438)scale(0.1 -0.1)">
       <defs>
        <path id="DejaVuSans-53" d="M 3425 4513 
L 3425 3897 
Q 3066 4069 2747 4153 
Q 2428 4238 2131 4238 
Q 1616 4238 1336 4038 
Q 1056 3838 1056 3469 
Q 1056 3159 1242 3001 
Q 1428 2844 1947 2747 
L 2328 2669 
Q 3034 2534 3370 2195 
Q 3706 1856 3706 1288 
Q 3706 609 3251 259 
Q 2797 -91 1919 -91 
Q 1588 -91 1214 -16 
Q 841 59 441 206 
L 441 856 
Q 825 641 1194 531 
Q 1563 422 1919 422 
Q 2459 422 2753 634 
Q 3047 847 3047 1241 
Q 3047 1584 2836 1778 
Q 2625 1972 2144 2069 
L 1759 2144 
Q 1053 2284 737 2584 
Q 422 2884 422 3419 
Q 422 4038 858 4394 
Q 1294 4750 2059 4750 
Q 2388 4750 2728 4690 
Q 3069 4631 3425 4513 
z
" transform="scale(0.015625)"/>
        <path id="DejaVuSans-65" d="M 3597 1894 
L 3597 1613 
L 953 1613 
Q 991 1019 1311 708 
Q 1631 397 2203 397 
Q 2534 397 2845 478 
Q 3156 559 3463 722 
L 3463 178 
Q 3153 47 2828 -22 
Q 2503 -91 2169 -91 
Q 1331 -91 842 396 
Q 353 884 353 1716 
Q 353 2575 817 3079 
Q 1281 3584 2069 3584 
Q 2775 3584 3186 3129 
Q 3597 2675 3597 1894 
z
M 3022 2063 
Q 3016 2534 2758 2815 
Q 2500 3097 2075 3097 
Q 1594 3097 1305 2825 
Q 1016 2553 972 2059 
L 3022 2063 
z
" transform="scale(0.015625)"/>
        <path id="DejaVuSans-70" d="M 1159 525 
L 1159 -1331 
L 581 -1331 
L 581 3500 
L 1159 3500 
L 1159 2969 
Q 1341 3281 1617 3432 
Q 1894 3584 2278 3584 
Q 2916 3584 3314 3078 
Q 3713 2572 3713 1747 
Q 3713 922 3314 415 
Q 2916 -91 2278 -91 
Q 1894 -91 1617 61 
Q 1341 213 1159 525 
z
M 3116 1747 
Q 3116 2381 2855 2742 
Q 2594 3103 2138 3103 
Q 1681 3103 1420 2742 
Q 1159 2381 1159 1747 
Q 1159 1113 1420 752 
Q 1681 391 2138 391 
Q 2594 391 2855 752 
Q 3116 1113 3116 1747 
z
" transform="scale(0.015625)"/>
       </defs>
       <use xlink:href="#DejaVuSans-53"/>
       <use xlink:href="#DejaVuSans-65" x="63.476562"/>
       <use xlink:href="#DejaVuSans-70" x="125"/>
      </g>
     </g>
    </g>
    <g id="xtick_9">
     <g id="line2d_17">
      <path d="M 469.142069 384.48 
L 469.142069 51.84 
" clip-path="url(#p815ecdaeaa)" style="fill: none; stroke-dasharray: 0.8,1.32; stroke-dashoffset: 0; stroke: #000000; stroke-opacity: 0.5; stroke-width: 0.8"/>
     </g>
     <g id="line2d_18">
      <g>
       <use xlink:href="#m2cda4f032a" x="469.142069" y="384.48" style="stroke: #000000; stroke-width: 0.8"/>
      </g>
     </g>
     <g id="text_9">
      <!-- 15 -->
      <g transform="translate(462.779569 399.078438)scale(0.1 -0.1)">
       <use xlink:href="#DejaVuSans-31"/>
       <use xlink:href="#DejaVuSans-35" x="63.623047"/>
      </g>
     </g>
    </g>
    <g id="xtick_10">
     <g id="line2d_19">
      <path d="M 518.4 384.48 
L 518.4 51.84 
" clip-path="url(#p815ecdaeaa)" style="fill: none; stroke-dasharray: 0.8,1.32; stroke-dashoffset: 0; stroke: #000000; stroke-opacity: 0.5; stroke-width: 0.8"/>
     </g>
     <g id="line2d_20">
      <g>
       <use xlink:href="#m2cda4f032a" x="518.4" y="384.48" style="stroke: #000000; stroke-width: 0.8"/>
      </g>
     </g>
     <g id="text_10">
      <!-- Oct -->
      <g transform="translate(509.754687 399.078438)scale(0.1 -0.1)">
       <defs>
        <path id="DejaVuSans-4f" d="M 2522 4238 
Q 1834 4238 1429 3725 
Q 1025 3213 1025 2328 
Q 1025 1447 1429 934 
Q 1834 422 2522 422 
Q 3209 422 3611 934 
Q 4013 1447 4013 2328 
Q 4013 3213 3611 3725 
Q 3209 4238 2522 4238 
z
M 2522 4750 
Q 3503 4750 4090 4092 
Q 4678 3434 4678 2328 
Q 4678 1225 4090 567 
Q 3503 -91 2522 -91 
Q 1538 -91 948 565 
Q 359 1222 359 2328 
Q 359 3434 948 4092 
Q 1538 4750 2522 4750 
z
" transform="scale(0.015625)"/>
        <path id="DejaVuSans-63" d="M 3122 3366 
L 3122 2828 
Q 2878 2963 2633 3030 
Q 2388 3097 2138 3097 
Q 1578 3097 1268 2742 
Q 959 2388 959 1747 
Q 959 1106 1268 751 
Q 1578 397 2138 397 
Q 2388 397 2633 464 
Q 2878 531 3122 666 
L 3122 134 
Q 2881 22 2623 -34 
Q 2366 -91 2075 -91 
Q 1284 -91 818 406 
Q 353 903 353 1747 
Q 353 2603 823 3093 
Q 1294 3584 2113 3584 
Q 2378 3584 2631 3529 
Q 2884 3475 3122 3366 
z
" transform="scale(0.015625)"/>
        <path id="DejaVuSans-74" d="M 1172 4494 
L 1172 3500 
L 2356 3500 
L 2356 3053 
L 1172 3053 
L 1172 1153 
Q 1172 725 1289 603 
Q 1406 481 1766 481 
L 2356 481 
L 2356 0 
L 1766 0 
Q 1100 0 847 248 
Q 594 497 594 1153 
L 594 3053 
L 172 3053 
L 172 3500 
L 594 3500 
L 594 4494 
L 1172 4494 
z
" transform="scale(0.015625)"/>
       </defs>
       <use xlink:href="#DejaVuSans-4f"/>
       <use xlink:href="#DejaVuSans-63" x="78.710938"/>
       <use xlink:href="#DejaVuSans-74" x="133.691406"/>
      </g>
     </g>
    </g>
    <g id="text_11">
     <!-- 2021-Oct -->
     <g transform="translate(471.776562 411.756563)scale(0.1 -0.1)">
      <defs>
       <path id="DejaVuSans-32" d="M 1228 531 
L 3431 531 
L 3431 0 
L 469 0 
L 469 531 
Q 828 903 1448 1529 
Q 2069 2156 2228 2338 
Q 2531 2678 2651 2914 
Q 2772 3150 2772 3378 
Q 2772 3750 2511 3984 
Q 2250 4219 1831 4219 
Q 1534 4219 1204 4116 
Q 875 4013 500 3803 
L 500 4441 
Q 881 4594 1212 4672 
Q 1544 4750 1819 4750 
Q 2544 4750 2975 4387 
Q 3406 4025 3406 3419 
Q 3406 3131 3298 2873 
Q 3191 2616 2906 2266 
Q 2828 2175 2409 1742 
Q 1991 1309 1228 531 
z
" transform="scale(0.015625)"/>
       <path id="DejaVuSans-30" d="M 2034 4250 
Q 1547 4250 1301 3770 
Q 1056 3291 1056 2328 
Q 1056 1369 1301 889 
Q 1547 409 2034 409 
Q 2525 409 2770 889 
Q 3016 1369 3016 2328 
Q 3016 3291 2770 3770 
Q 2525 4250 2034 4250 
z
M 2034 4750 
Q 2819 4750 3233 4129 
Q 3647 3509 3647 2328 
Q 3647 1150 3233 529 
Q 2819 -91 2034 -91 
Q 1250 -91 836 529 
Q 422 1150 422 2328 
Q 422 3509 836 4129 
Q 1250 4750 2034 4750 
z
" transform="scale(0.015625)"/>
       <path id="DejaVuSans-2d" d="M 313 2009 
L 1997 2009 
L 1997 1497 
L 313 1497 
L 313 2009 
z
" transform="scale(0.015625)"/>
      </defs>
      <use xlink:href="#DejaVuSans-32"/>
      <use xlink:href="#DejaVuSans-30" x="63.623047"/>
      <use xlink:href="#DejaVuSans-32" x="127.246094"/>
      <use xlink:href="#DejaVuSans-31" x="190.869141"/>
      <use xlink:href="#DejaVuSans-2d" x="254.492188"/>
      <use xlink:href="#DejaVuSans-4f" x="293.326172"/>
      <use xlink:href="#DejaVuSans-63" x="372.037109"/>
      <use xlink:href="#DejaVuSans-74" x="427.017578"/>
     </g>
    </g>
   </g>
   <g id="matplotlib.axis_2">
    <g id="ytick_1">
     <g id="line2d_21">
      <path d="M 72 384.48 
L 518.4 384.48 
" clip-path="url(#p815ecdaeaa)" style="fill: none; stroke-dasharray: 0.8,1.32; stroke-dashoffset: 0; stroke: #000000; stroke-opacity: 0.5; stroke-width: 0.8"/>
     </g>
     <g id="line2d_22">
      <defs>
       <path id="m6d66e968e5" d="M 0 0 
L -3.5 0 
" style="stroke: #000000; stroke-width: 0.8"/>
      </defs>
      <g>
       <use xlink:href="#m6d66e968e5" x="72" y="384.48" style="stroke: #000000; stroke-width: 0.8"/>
      </g>
     </g>
     <g id="text_12">
      <!-- 0 -->
      <g transform="translate(58.6375 388.279219)scale(0.1 -0.1)">
       <use xlink:href="#DejaVuSans-30"/>
      </g>
     </g>
    </g>
    <g id="ytick_2">
     <g id="line2d_23">
      <path d="M 72 351.216 
L 518.4 351.216 
" clip-path="url(#p815ecdaeaa)" style="fill: none; stroke-dasharray: 0.8,1.32; stroke-dashoffset: 0; stroke: #000000; stroke-opacity: 0.5; stroke-width: 0.8"/>
     </g>
     <g id="line2d_24">
      <g>
       <use xlink:href="#m6d66e968e5" x="72" y="351.216" style="stroke: #000000; stroke-width: 0.8"/>
      </g>
     </g>
     <g id="text_13">
      <!-- 1 -->
      <g transform="translate(58.6375 355.015219)scale(0.1 -0.1)">
       <use xlink:href="#DejaVuSans-31"/>
      </g>
     </g>
    </g>
    <g id="ytick_3">
     <g id="line2d_25">
      <path d="M 72 317.952 
L 518.4 317.952 
" clip-path="url(#p815ecdaeaa)" style="fill: none; stroke-dasharray: 0.8,1.32; stroke-dashoffset: 0; stroke: #000000; stroke-opacity: 0.5; stroke-width: 0.8"/>
     </g>
     <g id="line2d_26">
      <g>
       <use xlink:href="#m6d66e968e5" x="72" y="317.952" style="stroke: #000000; stroke-width: 0.8"/>
      </g>
     </g>
     <g id="text_14">
      <!-- 2 -->
      <g transform="translate(58.6375 321.751219)scale(0.1 -0.1)">
       <use xlink:href="#DejaVuSans-32"/>
      </g>
     </g>
    </g>
    <g id="ytick_4">
     <g id="line2d_27">
      <path d="M 72 284.688 
L 518.4 284.688 
" clip-path="url(#p815ecdaeaa)" style="fill: none; stroke-dasharray: 0.8,1.32; stroke-dashoffset: 0; stroke: #000000; stroke-opacity: 0.5; stroke-width: 0.8"/>
     </g>
     <g id="line2d_28">
      <g>
       <use xlink:href="#m6d66e968e5" x="72" y="284.688" style="stroke: #000000; stroke-width: 0.8"/>
      </g>
     </g>
     <g id="text_15">
      <!-- 3 -->
      <g transform="translate(58.6375 288.487219)scale(0.1 -0.1)">
       <defs>
        <path id="DejaVuSans-33" d="M 2597 2516 
Q 3050 2419 3304 2112 
Q 3559 1806 3559 1356 
Q 3559 666 3084 287 
Q 2609 -91 1734 -91 
Q 1441 -91 1130 -33 
Q 819 25 488 141 
L 488 750 
Q 750 597 1062 519 
Q 1375 441 1716 441 
Q 2309 441 2620 675 
Q 2931 909 2931 1356 
Q 2931 1769 2642 2001 
Q 2353 2234 1838 2234 
L 1294 2234 
L 1294 2753 
L 1863 2753 
Q 2328 2753 2575 2939 
Q 2822 3125 2822 3475 
Q 2822 3834 2567 4026 
Q 2313 4219 1838 4219 
Q 1578 4219 1281 4162 
Q 984 4106 628 3988 
L 628 4550 
Q 988 4650 1302 4700 
Q 1616 4750 1894 4750 
Q 2613 4750 3031 4423 
Q 3450 4097 3450 3541 
Q 3450 3153 3228 2886 
Q 3006 2619 2597 2516 
z
" transform="scale(0.015625)"/>
       </defs>
       <use xlink:href="#DejaVuSans-33"/>
      </g>
     </g>
    </g>
    <g id="ytick_5">
     <g id="line2d_29">
      <path d="M 72 251.424 
L 518.4 251.424 
" clip-path="url(#p815ecdaeaa)" style="fill: none; stroke-dasharray: 0.8,1.32; stroke-dashoffset: 0; stroke: #000000; stroke-opacity: 0.5; stroke-width: 0.8"/>
     </g>
     <g id="line2d_30">
      <g>
       <use xlink:href="#m6d66e968e5" x="72" y="251.424" style="stroke: #000000; stroke-width: 0.8"/>
      </g>
     </g>
     <g id="text_16">
      <!-- 4 -->
      <g transform="translate(58.6375 255.223219)scale(0.1 -0.1)">
       <defs>
        <path id="DejaVuSans-34" d="M 2419 4116 
L 825 1625 
L 2419 1625 
L 2419 4116 
z
M 2253 4666 
L 3047 4666 
L 3047 1625 
L 3713 1625 
L 3713 1100 
L 3047 1100 
L 3047 0 
L 2419 0 
L 2419 1100 
L 313 1100 
L 313 1709 
L 2253 4666 
z
" transform="scale(0.015625)"/>
       </defs>
       <use xlink:href="#DejaVuSans-34"/>
      </g>
     </g>
    </g>
    <g id="ytick_6">
     <g id="line2d_31">
      <path d="M 72 218.16 
L 518.4 218.16 
" clip-path="url(#p815ecdaeaa)" style="fill: none; stroke-dasharray: 0.8,1.32; stroke-dashoffset: 0; stroke: #000000; stroke-opacity: 0.5; stroke-width: 0.8"/>
     </g>
     <g id="line2d_32">
      <g>
       <use xlink:href="#m6d66e968e5" x="72" y="218.16" style="stroke: #000000; stroke-width: 0.8"/>
      </g>
     </g>
     <g id="text_17">
      <!-- 5 -->
      <g transform="translate(58.6375 221.959219)scale(0.1 -0.1)">
       <use xlink:href="#DejaVuSans-35"/>
      </g>
     </g>
    </g>
    <g id="ytick_7">
     <g id="line2d_33">
      <path d="M 72 184.896 
L 518.4 184.896 
" clip-path="url(#p815ecdaeaa)" style="fill: none; stroke-dasharray: 0.8,1.32; stroke-dashoffset: 0; stroke: #000000; stroke-opacity: 0.5; stroke-width: 0.8"/>
     </g>
     <g id="line2d_34">
      <g>
       <use xlink:href="#m6d66e968e5" x="72" y="184.896" style="stroke: #000000; stroke-width: 0.8"/>
      </g>
     </g>
     <g id="text_18">
      <!-- 6 -->
      <g transform="translate(58.6375 188.695219)scale(0.1 -0.1)">
       <defs>
        <path id="DejaVuSans-36" d="M 2113 2584 
Q 1688 2584 1439 2293 
Q 1191 2003 1191 1497 
Q 1191 994 1439 701 
Q 1688 409 2113 409 
Q 2538 409 2786 701 
Q 3034 994 3034 1497 
Q 3034 2003 2786 2293 
Q 2538 2584 2113 2584 
z
M 3366 4563 
L 3366 3988 
Q 3128 4100 2886 4159 
Q 2644 4219 2406 4219 
Q 1781 4219 1451 3797 
Q 1122 3375 1075 2522 
Q 1259 2794 1537 2939 
Q 1816 3084 2150 3084 
Q 2853 3084 3261 2657 
Q 3669 2231 3669 1497 
Q 3669 778 3244 343 
Q 2819 -91 2113 -91 
Q 1303 -91 875 529 
Q 447 1150 447 2328 
Q 447 3434 972 4092 
Q 1497 4750 2381 4750 
Q 2619 4750 2861 4703 
Q 3103 4656 3366 4563 
z
" transform="scale(0.015625)"/>
       </defs>
       <use xlink:href="#DejaVuSans-36"/>
      </g>
     </g>
    </g>
    <g id="ytick_8">
     <g id="line2d_35">
      <path d="M 72 151.632 
L 518.4 151.632 
" clip-path="url(#p815ecdaeaa)" style="fill: none; stroke-dasharray: 0.8,1.32; stroke-dashoffset: 0; stroke: #000000; stroke-opacity: 0.5; stroke-width: 0.8"/>
     </g>
     <g id="line2d_36">
      <g>
       <use xlink:href="#m6d66e968e5" x="72" y="151.632" style="stroke: #000000; stroke-width: 0.8"/>
      </g>
     </g>
     <g id="text_19">
      <!-- 7 -->
      <g transform="translate(58.6375 155.431219)scale(0.1 -0.1)">
       <defs>
        <path id="DejaVuSans-37" d="M 525 4666 
L 3525 4666 
L 3525 4397 
L 1831 0 
L 1172 0 
L 2766 4134 
L 525 4134 
L 525 4666 
z
" transform="scale(0.015625)"/>
       </defs>
       <use xlink:href="#DejaVuSans-37"/>
      </g>
     </g>
    </g>
    <g id="ytick_9">
     <g id="line2d_37">
      <path d="M 72 118.368 
L 518.4 118.368 
" clip-path="url(#p815ecdaeaa)" style="fill: none; stroke-dasharray: 0.8,1.32; stroke-dashoffset: 0; stroke: #000000; stroke-opacity: 0.5; stroke-width: 0.8"/>
     </g>
     <g id="line2d_38">
      <g>
       <use xlink:href="#m6d66e968e5" x="72" y="118.368" style="stroke: #000000; stroke-width: 0.8"/>
      </g>
     </g>
     <g id="text_20">
      <!-- 8 -->
      <g transform="translate(58.6375 122.167219)scale(0.1 -0.1)">
       <defs>
        <path id="DejaVuSans-38" d="M 2034 2216 
Q 1584 2216 1326 1975 
Q 1069 1734 1069 1313 
Q 1069 891 1326 650 
Q 1584 409 2034 409 
Q 2484 409 2743 651 
Q 3003 894 3003 1313 
Q 3003 1734 2745 1975 
Q 2488 2216 2034 2216 
z
M 1403 2484 
Q 997 2584 770 2862 
Q 544 3141 544 3541 
Q 544 4100 942 4425 
Q 1341 4750 2034 4750 
Q 2731 4750 3128 4425 
Q 3525 4100 3525 3541 
Q 3525 3141 3298 2862 
Q 3072 2584 2669 2484 
Q 3125 2378 3379 2068 
Q 3634 1759 3634 1313 
Q 3634 634 3220 271 
Q 2806 -91 2034 -91 
Q 1263 -91 848 271 
Q 434 634 434 1313 
Q 434 1759 690 2068 
Q 947 2378 1403 2484 
z
M 1172 3481 
Q 1172 3119 1398 2916 
Q 1625 2713 2034 2713 
Q 2441 2713 2670 2916 
Q 2900 3119 2900 3481 
Q 2900 3844 2670 4047 
Q 2441 4250 2034 4250 
Q 1625 4250 1398 4047 
Q 1172 3844 1172 3481 
z
" transform="scale(0.015625)"/>
       </defs>
       <use xlink:href="#DejaVuSans-38"/>
      </g>
     </g>
    </g>
    <g id="ytick_10">
     <g id="line2d_39">
      <path d="M 72 85.104 
L 518.4 85.104 
" clip-path="url(#p815ecdaeaa)" style="fill: none; stroke-dasharray: 0.8,1.32; stroke-dashoffset: 0; stroke: #000000; stroke-opacity: 0.5; stroke-width: 0.8"/>
     </g>
     <g id="line2d_40">
      <g>
       <use xlink:href="#m6d66e968e5" x="72" y="85.104" style="stroke: #000000; stroke-width: 0.8"/>
      </g>
     </g>
     <g id="text_21">
      <!-- 9 -->
      <g transform="translate(58.6375 88.903219)scale(0.1 -0.1)">
       <defs>
        <path id="DejaVuSans-39" d="M 703 97 
L 703 672 
Q 941 559 1184 500 
Q 1428 441 1663 441 
Q 2288 441 2617 861 
Q 2947 1281 2994 2138 
Q 2813 1869 2534 1725 
Q 2256 1581 1919 1581 
Q 1219 1581 811 2004 
Q 403 2428 403 3163 
Q 403 3881 828 4315 
Q 1253 4750 1959 4750 
Q 2769 4750 3195 4129 
Q 3622 3509 3622 2328 
Q 3622 1225 3098 567 
Q 2575 -91 1691 -91 
Q 1453 -91 1209 -44 
Q 966 3 703 97 
z
M 1959 2075 
Q 2384 2075 2632 2365 
Q 2881 2656 2881 3163 
Q 2881 3666 2632 3958 
Q 2384 4250 1959 4250 
Q 1534 4250 1286 3958 
Q 1038 3666 1038 3163 
Q 1038 2656 1286 2365 
Q 1534 2075 1959 2075 
z
" transform="scale(0.015625)"/>
       </defs>
       <use xlink:href="#DejaVuSans-39"/>
      </g>
     </g>
    </g>
    <g id="ytick_11">
     <g id="line2d_41">
      <path d="M 72 51.84 
L 518.4 51.84 
" clip-path="url(#p815ecdaeaa)" style="fill: none; stroke-dasharray: 0.8,1.32; stroke-dashoffset: 0; stroke: #000000; stroke-opacity: 0.5; stroke-width: 0.8"/>
     </g>
     <g id="line2d_42">
      <g>
       <use xlink:href="#m6d66e968e5" x="72" y="51.84" style="stroke: #000000; stroke-width: 0.8"/>
      </g>
     </g>
     <g id="text_22">
      <!-- 10 -->
      <g transform="translate(52.275 55.639219)scale(0.1 -0.1)">
       <use xlink:href="#DejaVuSans-31"/>
       <use xlink:href="#DejaVuSans-30" x="63.623047"/>
      </g>
     </g>
    </g>
    <g id="text_23">
     <!-- Vaccination rate (% of age group / week) -->
     <g transform="translate(46.195312 320.362344)rotate(-90)scale(0.1 -0.1)">
      <defs>
       <path id="DejaVuSans-56" d="M 1831 0 
L 50 4666 
L 709 4666 
L 2188 738 
L 3669 4666 
L 4325 4666 
L 2547 0 
L 1831 0 
z
" transform="scale(0.015625)"/>
       <path id="DejaVuSans-61" d="M 2194 1759 
Q 1497 1759 1228 1600 
Q 959 1441 959 1056 
Q 959 750 1161 570 
Q 1363 391 1709 391 
Q 2188 391 2477 730 
Q 2766 1069 2766 1631 
L 2766 1759 
L 2194 1759 
z
M 3341 1997 
L 3341 0 
L 2766 0 
L 2766 531 
Q 2569 213 2275 61 
Q 1981 -91 1556 -91 
Q 1019 -91 701 211 
Q 384 513 384 1019 
Q 384 1609 779 1909 
Q 1175 2209 1959 2209 
L 2766 2209 
L 2766 2266 
Q 2766 2663 2505 2880 
Q 2244 3097 1772 3097 
Q 1472 3097 1187 3025 
Q 903 2953 641 2809 
L 641 3341 
Q 956 3463 1253 3523 
Q 1550 3584 1831 3584 
Q 2591 3584 2966 3190 
Q 3341 2797 3341 1997 
z
" transform="scale(0.015625)"/>
       <path id="DejaVuSans-69" d="M 603 3500 
L 1178 3500 
L 1178 0 
L 603 0 
L 603 3500 
z
M 603 4863 
L 1178 4863 
L 1178 4134 
L 603 4134 
L 603 4863 
z
" transform="scale(0.015625)"/>
       <path id="DejaVuSans-6f" d="M 1959 3097 
Q 1497 3097 1228 2736 
Q 959 2375 959 1747 
Q 959 1119 1226 758 
Q 1494 397 1959 397 
Q 2419 397 2687 759 
Q 2956 1122 2956 1747 
Q 2956 2369 2687 2733 
Q 2419 3097 1959 3097 
z
M 1959 3584 
Q 2709 3584 3137 3096 
Q 3566 2609 3566 1747 
Q 3566 888 3137 398 
Q 2709 -91 1959 -91 
Q 1206 -91 779 398 
Q 353 888 353 1747 
Q 353 2609 779 3096 
Q 1206 3584 1959 3584 
z
" transform="scale(0.015625)"/>
       <path id="DejaVuSans-20" transform="scale(0.015625)"/>
       <path id="DejaVuSans-72" d="M 2631 2963 
Q 2534 3019 2420 3045 
Q 2306 3072 2169 3072 
Q 1681 3072 1420 2755 
Q 1159 2438 1159 1844 
L 1159 0 
L 581 0 
L 581 3500 
L 1159 3500 
L 1159 2956 
Q 1341 3275 1631 3429 
Q 1922 3584 2338 3584 
Q 2397 3584 2469 3576 
Q 2541 3569 2628 3553 
L 2631 2963 
z
" transform="scale(0.015625)"/>
       <path id="DejaVuSans-28" d="M 1984 4856 
Q 1566 4138 1362 3434 
Q 1159 2731 1159 2009 
Q 1159 1288 1364 580 
Q 1569 -128 1984 -844 
L 1484 -844 
Q 1016 -109 783 600 
Q 550 1309 550 2009 
Q 550 2706 781 3412 
Q 1013 4119 1484 4856 
L 1984 4856 
z
" transform="scale(0.015625)"/>
       <path id="DejaVuSans-25" d="M 4653 2053 
Q 4381 2053 4226 1822 
Q 4072 1591 4072 1178 
Q 4072 772 4226 539 
Q 4381 306 4653 306 
Q 4919 306 5073 539 
Q 5228 772 5228 1178 
Q 5228 1588 5073 1820 
Q 4919 2053 4653 2053 
z
M 4653 2450 
Q 5147 2450 5437 2106 
Q 5728 1763 5728 1178 
Q 5728 594 5436 251 
Q 5144 -91 4653 -91 
Q 4153 -91 3862 251 
Q 3572 594 3572 1178 
Q 3572 1766 3864 2108 
Q 4156 2450 4653 2450 
z
M 1428 4353 
Q 1159 4353 1004 4120 
Q 850 3888 850 3481 
Q 850 3069 1003 2837 
Q 1156 2606 1428 2606 
Q 1700 2606 1854 2837 
Q 2009 3069 2009 3481 
Q 2009 3884 1853 4118 
Q 1697 4353 1428 4353 
z
M 4250 4750 
L 4750 4750 
L 1831 -91 
L 1331 -91 
L 4250 4750 
z
M 1428 4750 
Q 1922 4750 2215 4408 
Q 2509 4066 2509 3481 
Q 2509 2891 2217 2550 
Q 1925 2209 1428 2209 
Q 931 2209 642 2551 
Q 353 2894 353 3481 
Q 353 4063 643 4406 
Q 934 4750 1428 4750 
z
" transform="scale(0.015625)"/>
       <path id="DejaVuSans-66" d="M 2375 4863 
L 2375 4384 
L 1825 4384 
Q 1516 4384 1395 4259 
Q 1275 4134 1275 3809 
L 1275 3500 
L 2222 3500 
L 2222 3053 
L 1275 3053 
L 1275 0 
L 697 0 
L 697 3053 
L 147 3053 
L 147 3500 
L 697 3500 
L 697 3744 
Q 697 4328 969 4595 
Q 1241 4863 1831 4863 
L 2375 4863 
z
" transform="scale(0.015625)"/>
       <path id="DejaVuSans-2f" d="M 1625 4666 
L 2156 4666 
L 531 -594 
L 0 -594 
L 1625 4666 
z
" transform="scale(0.015625)"/>
       <path id="DejaVuSans-77" d="M 269 3500 
L 844 3500 
L 1563 769 
L 2278 3500 
L 2956 3500 
L 3675 769 
L 4391 3500 
L 4966 3500 
L 4050 0 
L 3372 0 
L 2619 2869 
L 1863 0 
L 1184 0 
L 269 3500 
z
" transform="scale(0.015625)"/>
       <path id="DejaVuSans-6b" d="M 581 4863 
L 1159 4863 
L 1159 1991 
L 2875 3500 
L 3609 3500 
L 1753 1863 
L 3688 0 
L 2938 0 
L 1159 1709 
L 1159 0 
L 581 0 
L 581 4863 
z
" transform="scale(0.015625)"/>
       <path id="DejaVuSans-29" d="M 513 4856 
L 1013 4856 
Q 1481 4119 1714 3412 
Q 1947 2706 1947 2009 
Q 1947 1309 1714 600 
Q 1481 -109 1013 -844 
L 513 -844 
Q 928 -128 1133 580 
Q 1338 1288 1338 2009 
Q 1338 2731 1133 3434 
Q 928 4138 513 4856 
z
" transform="scale(0.015625)"/>
      </defs>
      <use xlink:href="#DejaVuSans-56"/>
      <use xlink:href="#DejaVuSans-61" x="60.658203"/>
      <use xlink:href="#DejaVuSans-63" x="121.9375"/>
      <use xlink:href="#DejaVuSans-63" x="176.917969"/>
      <use xlink:href="#DejaVuSans-69" x="231.898438"/>
      <use xlink:href="#DejaVuSans-6e" x="259.681641"/>
      <use xlink:href="#DejaVuSans-61" x="323.060547"/>
      <use xlink:href="#DejaVuSans-74" x="384.339844"/>
      <use xlink:href="#DejaVuSans-69" x="423.548828"/>
      <use xlink:href="#DejaVuSans-6f" x="451.332031"/>
      <use xlink:href="#DejaVuSans-6e" x="512.513672"/>
      <use xlink:href="#DejaVuSans-20" x="575.892578"/>
      <use xlink:href="#DejaVuSans-72" x="607.679688"/>
      <use xlink:href="#DejaVuSans-61" x="648.792969"/>
      <use xlink:href="#DejaVuSans-74" x="710.072266"/>
      <use xlink:href="#DejaVuSans-65" x="749.28125"/>
      <use xlink:href="#DejaVuSans-20" x="810.804688"/>
      <use xlink:href="#DejaVuSans-28" x="842.591797"/>
      <use xlink:href="#DejaVuSans-25" x="881.605469"/>
      <use xlink:href="#DejaVuSans-20" x="976.625"/>
      <use xlink:href="#DejaVuSans-6f" x="1008.412109"/>
      <use xlink:href="#DejaVuSans-66" x="1069.59375"/>
      <use xlink:href="#DejaVuSans-20" x="1104.798828"/>
      <use xlink:href="#DejaVuSans-61" x="1136.585938"/>
      <use xlink:href="#DejaVuSans-67" x="1197.865234"/>
      <use xlink:href="#DejaVuSans-65" x="1261.341797"/>
      <use xlink:href="#DejaVuSans-20" x="1322.865234"/>
      <use xlink:href="#DejaVuSans-67" x="1354.652344"/>
      <use xlink:href="#DejaVuSans-72" x="1418.128906"/>
      <use xlink:href="#DejaVuSans-6f" x="1456.992188"/>
      <use xlink:href="#DejaVuSans-75" x="1518.173828"/>
      <use xlink:href="#DejaVuSans-70" x="1581.552734"/>
      <use xlink:href="#DejaVuSans-20" x="1645.029297"/>
      <use xlink:href="#DejaVuSans-2f" x="1676.816406"/>
      <use xlink:href="#DejaVuSans-20" x="1710.507812"/>
      <use xlink:href="#DejaVuSans-77" x="1742.294922"/>
      <use xlink:href="#DejaVuSans-65" x="1824.082031"/>
      <use xlink:href="#DejaVuSans-65" x="1885.605469"/>
      <use xlink:href="#DejaVuSans-6b" x="1947.128906"/>
      <use xlink:href="#DejaVuSans-29" x="2005.039062"/>
     </g>
    </g>
   </g>
   <g id="line2d_43">
    <path d="M 256.717241 230.200448 
L 259.795862 231.223626 
L 262.874483 232.782006 
L 265.953103 233.191277 
L 269.031724 231.302332 
L 272.110345 232.010686 
L 275.188966 232.05791 
L 278.267586 233.632031 
L 281.346207 235.599681 
L 284.424828 236.323777 
L 287.503448 237.992344 
L 290.582069 242.966565 
L 293.66069 246.209254 
L 296.73931 251.356628 
L 299.817931 253.387243 
L 302.896552 254.709504 
L 305.975172 256.897532 
L 309.053793 256.425296 
L 312.132414 257.479956 
L 318.289655 262.044906 
L 321.368276 266.043172 
L 324.446897 268.026564 
L 327.525517 267.680257 
L 330.604138 266.767268 
L 333.682759 267.459881 
L 336.761379 268.750659 
L 339.84 269.317343 
L 342.918621 269.584943 
L 349.075862 268.577506 
L 352.154483 269.396049 
L 358.311724 270.639604 
L 361.390345 272.969302 
L 364.468966 273.45728 
L 367.547586 274.11841 
L 370.626207 274.338787 
L 376.783448 274.480458 
L 379.862069 273.740621 
L 382.94069 270.419227 
L 386.01931 271.379441 
L 392.176552 272.54429 
L 398.333793 272.02483 
L 401.412414 272.166501 
L 404.491034 272.796149 
L 407.569655 270.985911 
L 410.648276 269.821061 
L 413.726897 268.908071 
L 416.805517 268.577506 
L 419.884138 267.947858 
L 422.962759 266.845974 
L 426.041379 268.797883 
L 429.12 269.207154 
L 435.277241 273.362833 
L 438.355862 274.433234 
L 441.434483 276.574038 
L 444.513103 278.872254 
L 447.591724 278.573171 
L 450.670345 278.762066 
L 453.748966 279.533385 
L 456.827586 279.675056 
L 459.906207 279.155596 
L 462.984828 277.691664 
L 466.063448 278.321312 
L 472.22069 284.6965 
L 475.29931 285.656714 
L 478.377931 286.223397 
L 481.456552 286.191915 
L 484.535172 288.773472 
L 487.613793 291.166136 
L 490.692414 292.189314 
L 493.771034 295.337555 
L 496.849655 299.745092 
L 499.928276 300.658082 
L 503.006897 301.838673 
L 506.085517 303.412793 
L 509.164138 304.640607 
L 512.242759 307.521248 
L 515.321379 307.647177 
L 518.4 308.056449 
L 521.478621 309.048145 
L 524.557241 308.46572 
L 527.635862 315.958534 
L 530.714483 316.084463 
L 533.793103 315.297403 
L 536.871724 316.257617 
L 539.950345 314.510343 
L 543.028966 313.156599 
L 546.107586 313.439941 
L 549.186207 305.962868 
L 558.422069 306.623999 
L 561.50069 307.348095 
L 564.57931 308.544426 
L 567.657931 307.788848 
L 570.736552 308.135155 
L 573.815172 307.300871 
L 577 308.643761 
L 577 308.643761 
" clip-path="url(#p815ecdaeaa)" style="fill: none; stroke: #1f77b4; stroke-width: 1.5; stroke-linecap: square"/>
   </g>
   <g id="line2d_44">
    <path d="M 256.717241 175.271338 
L 259.795862 175.184652 
L 262.874483 174.026212 
L 265.953103 175.60232 
L 269.031724 175.176771 
L 275.188966 169.62493 
L 278.267586 168.828995 
L 281.346207 168.230074 
L 287.503448 170.921279 
L 290.582069 175.405307 
L 293.66069 179.424383 
L 296.73931 183.928112 
L 299.817931 187.576802 
L 302.896552 189.570579 
L 305.975172 193.108942 
L 309.053793 193.022256 
L 312.132414 196.686708 
L 315.211034 200.79641 
L 318.289655 204.311131 
L 321.368276 206.903829 
L 324.446897 209.752645 
L 327.525517 210.584042 
L 330.604138 210.201836 
L 333.682759 208.495699 
L 336.761379 210.513117 
L 339.84 212.104986 
L 342.918621 215.966451 
L 345.997241 217.11307 
L 349.075862 217.128831 
L 352.154483 217.353427 
L 355.233103 219.347204 
L 358.311724 220.336211 
L 361.390345 222.463957 
L 367.547586 225.367937 
L 370.626207 225.107879 
L 373.704828 225.423101 
L 376.783448 225.178804 
L 379.862069 227.810905 
L 382.94069 228.500452 
L 386.01931 230.064739 
L 389.097931 230.817331 
L 392.176552 231.168015 
L 395.255172 230.604556 
L 398.333793 233.410029 
L 401.412414 231.577803 
L 404.491034 228.606839 
L 407.569655 227.464161 
L 413.726897 226.884941 
L 416.805517 226.810076 
L 419.884138 227.483862 
L 422.962759 228.736868 
L 426.041379 234.091696 
L 429.12 237.366061 
L 432.198621 240.868961 
L 435.277241 243.678374 
L 438.355862 244.580696 
L 441.434483 247.925985 
L 444.513103 252.134194 
L 447.591724 254.565341 
L 453.748966 257.386575 
L 456.827586 258.249494 
L 459.906207 258.548955 
L 462.984828 257.047712 
L 466.063448 258.277076 
L 469.142069 260.999803 
L 472.22069 265.026759 
L 475.29931 267.036297 
L 478.377931 268.155334 
L 481.456552 268.758196 
L 484.535172 272.186231 
L 490.692414 278.443381 
L 493.771034 280.957273 
L 496.849655 286.469712 
L 499.928276 288.030059 
L 503.006897 288.04582 
L 506.085517 291.012843 
L 509.164138 292.750503 
L 512.242759 295.859376 
L 515.321379 297.277874 
L 518.4 296.572565 
L 521.478621 297.557633 
L 524.557241 297.912257 
L 527.635862 305.954349 
L 530.714483 305.867663 
L 533.793103 305.457875 
L 536.871724 306.454764 
L 539.950345 306.730582 
L 543.028966 305.280563 
L 546.107586 304.059079 
L 549.186207 294.815204 
L 552.264828 295.272276 
L 555.343448 293.956225 
L 558.422069 293.845898 
L 561.50069 292.99874 
L 564.57931 293.707988 
L 570.736552 294.184761 
L 573.815172 294.763981 
L 577 296.121619 
L 577 296.121619 
" clip-path="url(#p815ecdaeaa)" style="fill: none; stroke: #ff7f0e; stroke-width: 1.5; stroke-linecap: square"/>
   </g>
   <g id="line2d_45">
    <path d="M 256.717241 178.067956 
L 259.795862 179.642578 
L 262.874483 178.037811 
L 265.953103 178.289609 
L 269.031724 176.456096 
L 272.110345 171.092096 
L 275.188966 166.41256 
L 278.267586 163.288141 
L 281.346207 159.697364 
L 284.424828 160.72406 
L 287.503448 161.919212 
L 290.582069 166.084514 
L 293.66069 170.991022 
L 299.817931 177.293057 
L 302.896552 179.431565 
L 305.975172 182.211978 
L 309.053793 182.701388 
L 312.132414 184.854081 
L 315.211034 187.865014 
L 321.368276 192.886782 
L 324.446897 196.057305 
L 327.525517 197.060949 
L 330.604138 196.810925 
L 333.682759 195.679609 
L 339.84 198.61252 
L 342.918621 201.486914 
L 349.075862 200.0045 
L 352.154483 199.678227 
L 355.233103 201.630545 
L 358.311724 201.678423 
L 361.390345 204.084686 
L 364.468966 204.423372 
L 367.547586 206.579611 
L 370.626207 206.953761 
L 373.704828 207.154136 
L 376.783448 206.515775 
L 379.862069 208.831605 
L 382.94069 208.992968 
L 386.01931 210.791016 
L 392.176552 210.195213 
L 395.255172 209.799785 
L 398.333793 211.757423 
L 401.412414 210.636746 
L 404.491034 207.72334 
L 407.569655 206.528188 
L 410.648276 206.492723 
L 413.726897 205.645123 
L 416.805517 205.320623 
L 419.884138 206.714376 
L 422.962759 208.521291 
L 426.041379 214.844605 
L 429.12 219.243971 
L 435.277241 227.180918 
L 438.355862 228.517929 
L 441.434483 232.755932 
L 444.513103 237.761741 
L 447.591724 240.256666 
L 450.670345 243.443148 
L 453.748966 245.900835 
L 456.827586 246.711198 
L 459.906207 246.968316 
L 462.984828 246.991368 
L 466.063448 250.43674 
L 469.142069 255.639377 
L 472.22069 260.405801 
L 475.29931 263.613562 
L 478.377931 265.52687 
L 481.456552 266.216653 
L 484.535172 268.743496 
L 487.613793 271.84309 
L 490.692414 274.47278 
L 493.771034 276.503121 
L 496.849655 281.945143 
L 499.928276 283.241369 
L 503.006897 283.301659 
L 506.085517 286.736392 
L 509.164138 287.906719 
L 512.242759 290.472573 
L 515.321379 291.809583 
L 518.4 290.515131 
L 521.478621 291.612756 
L 524.557241 292.23693 
L 527.635862 301.381442 
L 530.714483 300.686339 
L 533.793103 299.43799 
L 536.871724 300.399077 
L 539.950345 300.237713 
L 543.028966 298.210919 
L 546.107586 296.370313 
L 549.186207 285.207874 
L 552.264828 284.23792 
L 555.343448 283.530404 
L 558.422069 283.094192 
L 561.50069 282.831755 
L 567.657931 284.714918 
L 570.736552 285.519961 
L 573.815172 288.082268 
L 577 290.039931 
L 577 290.039931 
" clip-path="url(#p815ecdaeaa)" style="fill: none; stroke: #2ca02c; stroke-width: 1.5; stroke-linecap: square"/>
   </g>
   <g id="line2d_46">
    <path d="M 256.717241 319.032409 
L 259.795862 319.304808 
L 262.874483 318.287026 
L 265.953103 317.867284 
L 269.031724 314.363241 
L 275.188966 304.950615 
L 281.346207 293.180499 
L 284.424828 291.968323 
L 287.503448 291.609252 
L 290.582069 289.361959 
L 293.66069 287.902148 
L 296.73931 285.675905 
L 299.817931 284.323815 
L 302.896552 283.319653 
L 309.053793 282.220151 
L 312.132414 278.279032 
L 315.211034 271.670878 
L 318.289655 263.487762 
L 324.446897 248.728685 
L 327.525517 246.090129 
L 330.604138 244.579552 
L 333.682759 238.355234 
L 336.761379 232.694286 
L 339.84 229.81057 
L 342.918621 224.664704 
L 345.997241 219.163481 
L 349.075862 214.020091 
L 352.154483 212.011767 
L 355.233103 206.250527 
L 358.311724 198.300189 
L 361.390345 191.454305 
L 364.468966 185.164363 
L 367.547586 181.246769 
L 370.626207 180.720543 
L 373.704828 182.169211 
L 376.783448 177.027059 
L 379.862069 177.168212 
L 382.94069 174.092579 
L 386.01931 171.988915 
L 389.097931 168.754795 
L 392.176552 166.370065 
L 395.255172 163.413297 
L 398.333793 163.182996 
L 401.412414 158.287242 
L 404.491034 154.332502 
L 407.569655 152.227601 
L 410.648276 151.472312 
L 413.726897 148.571262 
L 416.805517 148.567548 
L 419.884138 151.478503 
L 422.962759 152.242459 
L 426.041379 157.624817 
L 429.12 161.49536 
L 432.198621 165.749738 
L 435.277241 171.582793 
L 438.355862 173.831323 
L 441.434483 179.266923 
L 444.513103 187.821492 
L 447.591724 192.585999 
L 453.748966 201.195048 
L 456.827586 203.541394 
L 459.906207 204.222392 
L 462.984828 204.695376 
L 466.063448 209.121861 
L 469.142069 215.009395 
L 472.22069 221.71908 
L 475.29931 225.889262 
L 478.377931 228.053596 
L 481.456552 228.636778 
L 484.535172 231.578688 
L 487.613793 234.856144 
L 490.692414 237.541751 
L 493.771034 238.351519 
L 496.849655 244.012467 
L 499.928276 245.986122 
L 503.006897 247.059622 
L 506.085517 250.831111 
L 509.164138 252.090338 
L 512.242759 254.919573 
L 515.321379 256.291474 
L 518.4 254.527071 
L 521.478621 255.650098 
L 524.557241 255.822205 
L 527.635862 267.687661 
L 530.714483 265.626095 
L 533.793103 264.157616 
L 536.871724 264.742036 
L 539.950345 264.105613 
L 546.107586 258.266367 
L 549.186207 243.097454 
L 552.264828 242.395407 
L 555.343448 240.434134 
L 561.50069 239.321012 
L 564.57931 241.073033 
L 567.657931 242.286448 
L 570.736552 243.748735 
L 573.815172 247.614326 
L 577 251.330393 
L 577 251.330393 
" clip-path="url(#p815ecdaeaa)" style="fill: none; stroke: #d62728; stroke-width: 1.5; stroke-linecap: square"/>
   </g>
   <g id="line2d_47">
    <path d="M 256.717241 337.886599 
L 259.795862 337.930355 
L 262.874483 336.395704 
L 265.953103 335.18015 
L 269.031724 331.895272 
L 275.188966 322.029966 
L 278.267586 316.093066 
L 281.346207 310.596926 
L 284.424828 308.018542 
L 287.503448 304.950308 
L 290.582069 300.613159 
L 293.66069 296.801078 
L 296.73931 292.146968 
L 299.817931 289.056322 
L 302.896552 285.617766 
L 305.975172 282.379845 
L 309.053793 279.863359 
L 312.132414 273.905116 
L 315.211034 266.540287 
L 318.289655 257.515944 
L 321.368276 249.665534 
L 324.446897 240.735105 
L 327.525517 236.343529 
L 330.604138 233.439645 
L 333.682759 227.600929 
L 336.761379 222.307559 
L 339.84 219.068571 
L 345.997241 206.47227 
L 349.075862 199.153331 
L 352.154483 197.622949 
L 355.233103 191.484347 
L 358.311724 183.97331 
L 364.468966 169.831686 
L 367.547586 161.986612 
L 370.626207 162.23634 
L 373.704828 164.637566 
L 376.783448 156.874667 
L 379.862069 156.001688 
L 382.94069 152.335816 
L 386.01931 149.890833 
L 389.097931 146.389311 
L 392.176552 143.120441 
L 395.255172 138.951912 
L 398.333793 139.257135 
L 404.491034 133.354386 
L 407.569655 132.786629 
L 410.648276 135.325526 
L 413.726897 132.667102 
L 416.805517 132.929636 
L 419.884138 137.731022 
L 422.962759 135.429046 
L 426.041379 140.137584 
L 432.198621 148.032817 
L 435.277241 154.535339 
L 438.355862 157.83836 
L 441.434483 162.717652 
L 444.513103 172.689679 
L 447.591724 179.672446 
L 450.670345 185.103487 
L 453.748966 194.136368 
L 456.827586 201.126606 
L 459.906207 203.224744 
L 462.984828 207.542683 
L 466.063448 215.995001 
L 469.142069 223.984148 
L 472.22069 233.375612 
L 475.29931 236.713851 
L 478.377931 237.520663 
L 481.456552 237.003065 
L 484.535172 240.782063 
L 487.613793 242.451182 
L 490.692414 244.775569 
L 493.771034 244.547186 
L 496.849655 248.830974 
L 503.006897 251.861856 
L 506.085517 254.104068 
L 512.242759 257.256611 
L 515.321379 257.698437 
L 518.4 257.191512 
L 521.478621 257.972711 
L 524.557241 258.273664 
L 527.635862 267.112313 
L 530.714483 264.13906 
L 533.793103 261.814673 
L 536.871724 262.019578 
L 539.950345 261.278933 
L 543.028966 259.683451 
L 546.107586 258.413469 
L 549.186207 247.858744 
L 552.264828 249.36458 
L 555.343448 251.405089 
L 558.422069 252.630248 
L 564.57931 258.224573 
L 567.657931 259.616217 
L 570.736552 263.406953 
L 573.815172 268.81665 
L 577 272.331061 
L 577 272.331061 
" clip-path="url(#p815ecdaeaa)" style="fill: none; stroke: #9467bd; stroke-width: 1.5; stroke-linecap: square"/>
   </g>
   <g id="line2d_48">
    <path d="M 256.717241 273.033105 
L 259.795862 275.941389 
L 262.874483 277.610903 
L 265.953103 278.755857 
L 269.031724 277.405114 
L 272.110345 280.782476 
L 275.188966 278.702392 
L 278.267586 280.681599 
L 281.346207 282.253263 
L 284.424828 284.034751 
L 287.503448 283.398217 
L 290.582069 283.62519 
L 293.66069 283.631243 
L 296.73931 282.830279 
L 299.817931 282.329929 
L 302.896552 281.233396 
L 305.975172 278.599498 
L 309.053793 277.372834 
L 315.211034 277.173097 
L 318.289655 275.548977 
L 321.368276 275.935336 
L 324.446897 275.373451 
L 327.525517 275.714416 
L 330.604138 275.486434 
L 333.682759 276.840203 
L 336.761379 275.309899 
L 339.84 276.575905 
L 342.918621 273.918805 
L 345.997241 272.216001 
L 349.075862 265.210093 
L 352.154483 264.625007 
L 355.233103 263.183474 
L 361.390345 258.278834 
L 364.468966 255.587436 
L 367.547586 250.30249 
L 370.626207 255.502699 
L 373.704828 256.826206 
L 376.783448 251.287049 
L 379.862069 251.745031 
L 382.94069 249.217053 
L 386.01931 246.969514 
L 389.097931 247.264075 
L 392.176552 246.100963 
L 395.255172 243.619388 
L 398.333793 246.233112 
L 401.412414 246.388462 
L 407.569655 248.521002 
L 410.648276 251.510996 
L 413.726897 250.792752 
L 419.884138 250.493147 
L 422.962759 249.056659 
L 426.041379 249.592316 
L 429.12 250.338806 
L 432.198621 248.979992 
L 435.277241 249.717403 
L 438.355862 251.049988 
L 441.434483 250.898673 
L 444.513103 249.601395 
L 447.591724 249.206966 
L 453.748966 243.643599 
L 459.906207 243.772721 
L 462.984828 239.530843 
L 466.063448 238.096372 
L 469.142069 234.906642 
L 472.22069 235.753 
L 475.29931 232.428094 
L 478.377931 230.754544 
L 481.456552 228.711785 
L 484.535172 229.078977 
L 487.613793 227.691918 
L 490.692414 228.864109 
L 493.771034 226.644815 
L 496.849655 230.193668 
L 499.928276 231.73406 
L 503.006897 233.618442 
L 506.085517 235.254667 
L 509.164138 236.052604 
L 512.242759 237.182427 
L 515.321379 237.141067 
L 518.4 236.885848 
L 521.478621 237.093655 
L 524.557241 236.486376 
L 527.635862 245.735788 
L 530.714483 242.704434 
L 533.793103 238.938695 
L 536.871724 238.302162 
L 539.950345 236.736551 
L 543.028966 234.272125 
L 546.107586 232.910286 
L 549.186207 221.383071 
L 552.264828 222.809471 
L 555.343448 225.249686 
L 558.422069 227.138104 
L 564.57931 234.518265 
L 567.657931 236.249315 
L 570.736552 240.798867 
L 573.815172 247.312495 
L 577 251.931258 
L 577 251.931258 
" clip-path="url(#p815ecdaeaa)" style="fill: none; stroke: #8c564b; stroke-width: 1.5; stroke-linecap: square"/>
   </g>
   <g id="line2d_49">
    <path d="M 256.717241 350.804032 
L 259.795862 352.527421 
L 269.031724 352.176196 
L 272.110345 352.225739 
L 275.188966 351.701114 
L 278.267586 351.368469 
L 281.346207 351.738272 
L 284.424828 352.423027 
L 287.503448 351.420666 
L 290.582069 350.743873 
L 293.66069 351.139332 
L 296.73931 350.297986 
L 299.817931 350.182091 
L 302.896552 349.349591 
L 305.975172 347.813759 
L 309.053793 347.014878 
L 312.132414 346.622072 
L 318.289655 344.236046 
L 321.368276 343.538906 
L 324.446897 342.328641 
L 327.525517 342.174704 
L 330.604138 341.808439 
L 333.682759 341.240464 
L 336.761379 340.092129 
L 339.84 339.892187 
L 342.918621 338.270539 
L 345.997241 337.200941 
L 349.075862 334.607011 
L 352.154483 334.881267 
L 355.233103 334.126621 
L 361.390345 330.927559 
L 364.468966 329.80134 
L 367.547586 327.098593 
L 370.626207 328.420329 
L 373.704828 328.001868 
L 376.783448 325.054059 
L 379.862069 325.099179 
L 382.94069 322.837895 
L 386.01931 321.139278 
L 389.097931 320.132493 
L 395.255172 315.811636 
L 398.333793 315.908068 
L 401.412414 314.201489 
L 404.491034 313.19382 
L 407.569655 311.980901 
L 410.648276 311.229794 
L 413.726897 310.646779 
L 416.805517 310.219471 
L 419.884138 307.269008 
L 422.962759 304.909523 
L 426.041379 302.916302 
L 429.12 300.639093 
L 432.198621 296.988836 
L 435.277241 293.953443 
L 438.355862 293.333271 
L 441.434483 289.429106 
L 444.513103 283.417594 
L 447.591724 278.230619 
L 450.670345 270.178112 
L 453.748966 261.784998 
L 456.827586 257.178384 
L 459.906207 252.276281 
L 462.984828 243.53725 
L 466.063448 236.588845 
L 469.142069 228.798209 
L 472.22069 223.87045 
L 475.29931 213.4098 
L 478.377931 207.213386 
L 481.456552 203.471121 
L 484.535172 199.040561 
L 487.613793 191.916986 
L 490.692414 186.112493 
L 493.771034 178.543915 
L 496.849655 176.110116 
L 499.928276 173.382597 
L 503.006897 172.006009 
L 506.085517 167.141948 
L 509.164138 161.868273 
L 512.242759 160.980038 
L 515.321379 157.024561 
L 518.4 152.654161 
L 521.478621 149.670964 
L 524.557241 147.882108 
L 527.635862 157.0396 
L 530.714483 149.046369 
L 533.793103 139.051069 
L 536.871724 133.724312 
L 539.950345 128.081719 
L 543.028966 121.066961 
L 546.107586 114.569751 
L 549.186207 97.327018 
L 555.343448 96.33085 
L 558.422069 98.307262 
L 561.50069 102.329976 
L 564.57931 107.966377 
L 567.657931 108.077849 
L 570.736552 112.999415 
L 573.815172 123.885604 
L 577 133.423023 
L 577 133.423023 
" clip-path="url(#p815ecdaeaa)" style="fill: none; stroke: #e377c2; stroke-width: 1.5; stroke-linecap: square"/>
   </g>
   <g id="line2d_50">
    <path d="M 256.717241 359.79086 
L 259.795862 361.440602 
L 262.874483 361.602359 
L 265.953103 361.569272 
L 269.031724 361.795365 
L 272.110345 362.250308 
L 278.267586 362.485591 
L 281.346207 362.987407 
L 284.424828 363.63076 
L 290.582069 362.446071 
L 293.66069 362.742932 
L 296.73931 362.083036 
L 299.817931 362.11888 
L 302.896552 361.534347 
L 305.975172 360.201687 
L 309.053793 359.644727 
L 312.132414 359.295478 
L 315.211034 358.213726 
L 318.289655 357.345199 
L 321.368276 356.734932 
L 324.446897 355.507047 
L 327.525517 354.997878 
L 330.604138 354.247912 
L 333.682759 354.035606 
L 336.761379 353.153293 
L 339.84 352.685483 
L 342.918621 351.387748 
L 345.997241 350.972325 
L 349.075862 349.401624 
L 352.154483 349.71411 
L 355.233103 348.964144 
L 358.311724 347.65538 
L 361.390345 347.016622 
L 364.468966 346.048835 
L 367.547586 344.085689 
L 370.626207 344.831978 
L 373.704828 344.509383 
L 376.783448 342.320143 
L 379.862069 342.615167 
L 382.94069 340.731061 
L 386.01931 339.969147 
L 389.097931 339.610707 
L 392.176552 338.4637 
L 395.255172 337.142988 
L 398.333793 337.367243 
L 401.412414 336.533641 
L 404.491034 336.465629 
L 410.648276 335.440859 
L 413.726897 335.434426 
L 416.805517 334.950073 
L 419.884138 332.387689 
L 422.962759 330.399727 
L 429.12 326.789596 
L 435.277241 322.12069 
L 438.355862 321.771441 
L 441.434483 319.799104 
L 444.513103 315.382024 
L 447.591724 310.424528 
L 450.670345 303.146365 
L 453.748966 295.235877 
L 456.827586 290.428191 
L 459.906207 286.504655 
L 462.984828 279.064734 
L 469.142069 266.770254 
L 472.22069 263.563598 
L 475.29931 255.237688 
L 478.377931 250.332579 
L 481.456552 246.03406 
L 484.535172 239.699788 
L 487.613793 231.333439 
L 490.692414 223.841131 
L 493.771034 214.14304 
L 496.849655 208.180994 
L 499.928276 202.490075 
L 503.006897 200.024194 
L 506.085517 193.398575 
L 509.164138 185.38607 
L 512.242759 182.376096 
L 515.321379 176.596026 
L 518.4 171.132119 
L 524.557241 166.229768 
L 527.635862 175.392956 
L 530.714483 166.485271 
L 533.793103 155.809283 
L 539.950345 142.565397 
L 543.028966 132.894879 
L 546.107586 124.989906 
L 549.186207 103.205966 
L 552.264828 99.682228 
L 555.343448 92.790996 
L 558.422069 90.751566 
L 561.50069 92.37925 
L 564.57931 96.578508 
L 567.657931 92.915071 
L 570.736552 95.315698 
L 573.815172 102.578237 
L 577 110.812317 
L 577 110.812317 
" clip-path="url(#p815ecdaeaa)" style="fill: none; stroke: #7f7f7f; stroke-width: 1.5; stroke-linecap: square"/>
   </g>
   <g id="line2d_51">
    <path d="M 256.717241 376.200418 
L 259.795862 376.489758 
L 265.953103 376.002888 
L 269.031724 375.891603 
L 275.188966 375.938899 
L 278.267586 376.100262 
L 281.346207 376.014016 
L 284.424828 376.250496 
L 290.582069 375.566095 
L 293.66069 375.485414 
L 296.73931 374.845527 
L 302.896552 374.405952 
L 305.975172 373.841182 
L 309.053793 373.512892 
L 312.132414 373.426647 
L 315.211034 372.925865 
L 321.368276 372.319364 
L 324.446897 371.462472 
L 327.525517 371.056282 
L 333.682759 370.085323 
L 339.84 369.100454 
L 342.918621 368.368757 
L 345.997241 368.087763 
L 349.075862 366.958223 
L 352.154483 367.211396 
L 355.233103 366.866413 
L 358.311724 366.351721 
L 361.390345 366.076292 
L 364.468966 365.656192 
L 367.547586 364.893892 
L 370.626207 365.461444 
L 373.704828 364.715836 
L 376.783448 363.831123 
L 379.862069 363.39433 
L 382.94069 362.409461 
L 386.01931 361.5943 
L 389.097931 360.915464 
L 392.176552 360.386861 
L 395.255172 359.733064 
L 401.412414 359.218372 
L 410.648276 358.035972 
L 413.726897 357.582487 
L 416.805517 357.248633 
L 419.884138 355.417999 
L 422.962759 354.079801 
L 426.041379 352.955825 
L 429.12 352.763859 
L 432.198621 351.331068 
L 435.277241 349.536603 
L 438.355862 349.208313 
L 441.434483 347.775522 
L 444.513103 345.007315 
L 447.591724 341.771712 
L 453.748966 330.64046 
L 456.827586 326.689852 
L 459.906207 323.304015 
L 466.063448 311.944629 
L 469.142069 305.025502 
L 472.22069 300.33207 
L 475.29931 288.747332 
L 478.377931 278.598167 
L 481.456552 270.235121 
L 484.535172 252.003905 
L 490.692414 208.324658 
L 493.771034 188.162651 
L 496.849655 174.958721 
L 499.928276 162.408588 
L 503.006897 158.828003 
L 506.085517 156.312969 
L 509.164138 152.551546 
L 512.242759 152.011815 
L 515.321379 144.199628 
L 518.4 136.760246 
L 521.478621 132.767907 
L 524.557241 127.022834 
L 527.635862 134.718171 
L 530.714483 126.118646 
L 533.793103 115.52156 
L 536.871724 110.33291 
L 539.950345 103.313628 
L 543.028966 90.902601 
L 546.107586 80.252655 
L 549.186207 52.286808 
L 552.264828 39.681033 
L 555.343448 31.145496 
L 558.422069 25.383731 
L 561.50069 27.108644 
L 564.57931 34.319892 
L 567.657931 34.556372 
L 570.736552 39.238676 
L 573.815172 51.827759 
L 577 60.099953 
L 577 60.099953 
" clip-path="url(#p815ecdaeaa)" style="fill: none; stroke: #bcbd22; stroke-width: 1.5; stroke-linecap: square"/>
   </g>
   <g id="patch_3">
    <path d="M 72 384.48 
L 72 51.84 
" style="fill: none; stroke: #000000; stroke-width: 0.8; stroke-linejoin: miter; stroke-linecap: square"/>
   </g>
   <g id="patch_4">
    <path d="M 518.4 384.48 
L 518.4 51.84 
" style="fill: none; stroke: #000000; stroke-width: 0.8; stroke-linejoin: miter; stroke-linecap: square"/>
   </g>
   <g id="patch_5">
    <path d="M 72 384.48 
L 518.4 384.48 
" style="fill: none; stroke: #000000; stroke-width: 0.8; stroke-linejoin: miter; stroke-linecap: square"/>
   </g>
   <g id="patch_6">
    <path d="M 72 51.84 
L 518.4 51.84 
" style="fill: none; stroke: #000000; stroke-width: 0.8; stroke-linejoin: miter; stroke-linecap: square"/>
   </g>
   <g id="text_24">
    <!-- Second dose weekly increase by age group -->
    <g transform="translate(165.147188 45.84)scale(0.12 -0.12)">
     <defs>
      <path id="DejaVuSans-64" d="M 2906 2969 
L 2906 4863 
L 3481 4863 
L 3481 0 
L 2906 0 
L 2906 525 
Q 2725 213 2448 61 
Q 2172 -91 1784 -91 
Q 1150 -91 751 415 
Q 353 922 353 1747 
Q 353 2572 751 3078 
Q 1150 3584 1784 3584 
Q 2172 3584 2448 3432 
Q 2725 3281 2906 2969 
z
M 947 1747 
Q 947 1113 1208 752 
Q 1469 391 1925 391 
Q 2381 391 2643 752 
Q 2906 1113 2906 1747 
Q 2906 2381 2643 2742 
Q 2381 3103 1925 3103 
Q 1469 3103 1208 2742 
Q 947 2381 947 1747 
z
" transform="scale(0.015625)"/>
      <path id="DejaVuSans-73" d="M 2834 3397 
L 2834 2853 
Q 2591 2978 2328 3040 
Q 2066 3103 1784 3103 
Q 1356 3103 1142 2972 
Q 928 2841 928 2578 
Q 928 2378 1081 2264 
Q 1234 2150 1697 2047 
L 1894 2003 
Q 2506 1872 2764 1633 
Q 3022 1394 3022 966 
Q 3022 478 2636 193 
Q 2250 -91 1575 -91 
Q 1294 -91 989 -36 
Q 684 19 347 128 
L 347 722 
Q 666 556 975 473 
Q 1284 391 1588 391 
Q 1994 391 2212 530 
Q 2431 669 2431 922 
Q 2431 1156 2273 1281 
Q 2116 1406 1581 1522 
L 1381 1569 
Q 847 1681 609 1914 
Q 372 2147 372 2553 
Q 372 3047 722 3315 
Q 1072 3584 1716 3584 
Q 2034 3584 2315 3537 
Q 2597 3491 2834 3397 
z
" transform="scale(0.015625)"/>
      <path id="DejaVuSans-79" d="M 2059 -325 
Q 1816 -950 1584 -1140 
Q 1353 -1331 966 -1331 
L 506 -1331 
L 506 -850 
L 844 -850 
Q 1081 -850 1212 -737 
Q 1344 -625 1503 -206 
L 1606 56 
L 191 3500 
L 800 3500 
L 1894 763 
L 2988 3500 
L 3597 3500 
L 2059 -325 
z
" transform="scale(0.015625)"/>
      <path id="DejaVuSans-62" d="M 3116 1747 
Q 3116 2381 2855 2742 
Q 2594 3103 2138 3103 
Q 1681 3103 1420 2742 
Q 1159 2381 1159 1747 
Q 1159 1113 1420 752 
Q 1681 391 2138 391 
Q 2594 391 2855 752 
Q 3116 1113 3116 1747 
z
M 1159 2969 
Q 1341 3281 1617 3432 
Q 1894 3584 2278 3584 
Q 2916 3584 3314 3078 
Q 3713 2572 3713 1747 
Q 3713 922 3314 415 
Q 2916 -91 2278 -91 
Q 1894 -91 1617 61 
Q 1341 213 1159 525 
L 1159 0 
L 581 0 
L 581 4863 
L 1159 4863 
L 1159 2969 
z
" transform="scale(0.015625)"/>
     </defs>
     <use xlink:href="#DejaVuSans-53"/>
     <use xlink:href="#DejaVuSans-65" x="63.476562"/>
     <use xlink:href="#DejaVuSans-63" x="125"/>
     <use xlink:href="#DejaVuSans-6f" x="179.980469"/>
     <use xlink:href="#DejaVuSans-6e" x="241.162109"/>
     <use xlink:href="#DejaVuSans-64" x="304.541016"/>
     <use xlink:href="#DejaVuSans-20" x="368.017578"/>
     <use xlink:href="#DejaVuSans-64" x="399.804688"/>
     <use xlink:href="#DejaVuSans-6f" x="463.28125"/>
     <use xlink:href="#DejaVuSans-73" x="524.462891"/>
     <use xlink:href="#DejaVuSans-65" x="576.5625"/>
     <use xlink:href="#DejaVuSans-20" x="638.085938"/>
     <use xlink:href="#DejaVuSans-77" x="669.873047"/>
     <use xlink:href="#DejaVuSans-65" x="751.660156"/>
     <use xlink:href="#DejaVuSans-65" x="813.183594"/>
     <use xlink:href="#DejaVuSans-6b" x="874.707031"/>
     <use xlink:href="#DejaVuSans-6c" x="932.617188"/>
     <use xlink:href="#DejaVuSans-79" x="960.400391"/>
     <use xlink:href="#DejaVuSans-20" x="1019.580078"/>
     <use xlink:href="#DejaVuSans-69" x="1051.367188"/>
     <use xlink:href="#DejaVuSans-6e" x="1079.150391"/>
     <use xlink:href="#DejaVuSans-63" x="1142.529297"/>
     <use xlink:href="#DejaVuSans-72" x="1197.509766"/>
     <use xlink:href="#DejaVuSans-65" x="1236.373047"/>
     <use xlink:href="#DejaVuSans-61" x="1297.896484"/>
     <use xlink:href="#DejaVuSans-73" x="1359.175781"/>
     <use xlink:href="#DejaVuSans-65" x="1411.275391"/>
     <use xlink:href="#DejaVuSans-20" x="1472.798828"/>
     <use xlink:href="#DejaVuSans-62" x="1504.585938"/>
     <use xlink:href="#DejaVuSans-79" x="1568.0625"/>
     <use xlink:href="#DejaVuSans-20" x="1627.242188"/>
     <use xlink:href="#DejaVuSans-61" x="1659.029297"/>
     <use xlink:href="#DejaVuSans-67" x="1720.308594"/>
     <use xlink:href="#DejaVuSans-65" x="1783.785156"/>
     <use xlink:href="#DejaVuSans-20" x="1845.308594"/>
     <use xlink:href="#DejaVuSans-67" x="1877.095703"/>
     <use xlink:href="#DejaVuSans-72" x="1940.572266"/>
     <use xlink:href="#DejaVuSans-6f" x="1979.435547"/>
     <use xlink:href="#DejaVuSans-75" x="2040.617188"/>
     <use xlink:href="#DejaVuSans-70" x="2103.996094"/>
    </g>
   </g>
   <g id="legend_1">
    <g id="patch_7">
     <path d="M 78.3 177.932812 
L 221.74875 177.932812 
Q 223.54875 177.932812 223.54875 176.132812 
L 223.54875 58.14 
Q 223.54875 56.34 221.74875 56.34 
L 78.3 56.34 
Q 76.5 56.34 76.5 58.14 
L 76.5 176.132812 
Q 76.5 177.932812 78.3 177.932812 
z
" style="fill: #ffffff; opacity: 0.8; stroke: #cccccc; stroke-linejoin: miter"/>
    </g>
    <g id="line2d_52">
     <path d="M 80.1 63.628594 
L 89.1 63.628594 
L 98.1 63.628594 
" style="fill: none; stroke: #1f77b4; stroke-width: 1.5; stroke-linecap: square"/>
    </g>
    <g id="text_25">
     <!-- Ages 90+ (1.3 %/week) -->
     <g transform="translate(105.3 66.778594)scale(0.09 -0.09)">
      <defs>
       <path id="DejaVuSans-2b" d="M 2944 4013 
L 2944 2272 
L 4684 2272 
L 4684 1741 
L 2944 1741 
L 2944 0 
L 2419 0 
L 2419 1741 
L 678 1741 
L 678 2272 
L 2419 2272 
L 2419 4013 
L 2944 4013 
z
" transform="scale(0.015625)"/>
       <path id="DejaVuSans-2e" d="M 684 794 
L 1344 794 
L 1344 0 
L 684 0 
L 684 794 
z
" transform="scale(0.015625)"/>
      </defs>
      <use xlink:href="#DejaVuSans-41"/>
      <use xlink:href="#DejaVuSans-67" x="68.408203"/>
      <use xlink:href="#DejaVuSans-65" x="131.884766"/>
      <use xlink:href="#DejaVuSans-73" x="193.408203"/>
      <use xlink:href="#DejaVuSans-20" x="245.507812"/>
      <use xlink:href="#DejaVuSans-39" x="277.294922"/>
      <use xlink:href="#DejaVuSans-30" x="340.917969"/>
      <use xlink:href="#DejaVuSans-2b" x="404.541016"/>
      <use xlink:href="#DejaVuSans-20" x="488.330078"/>
      <use xlink:href="#DejaVuSans-28" x="520.117188"/>
      <use xlink:href="#DejaVuSans-31" x="559.130859"/>
      <use xlink:href="#DejaVuSans-2e" x="622.753906"/>
      <use xlink:href="#DejaVuSans-33" x="654.541016"/>
      <use xlink:href="#DejaVuSans-20" x="718.164062"/>
      <use xlink:href="#DejaVuSans-25" x="749.951172"/>
      <use xlink:href="#DejaVuSans-2f" x="844.970703"/>
      <use xlink:href="#DejaVuSans-77" x="878.662109"/>
      <use xlink:href="#DejaVuSans-65" x="960.449219"/>
      <use xlink:href="#DejaVuSans-65" x="1021.972656"/>
      <use xlink:href="#DejaVuSans-6b" x="1083.496094"/>
      <use xlink:href="#DejaVuSans-29" x="1141.40625"/>
     </g>
    </g>
    <g id="line2d_53">
     <path d="M 80.1 76.838906 
L 89.1 76.838906 
L 98.1 76.838906 
" style="fill: none; stroke: #ff7f0e; stroke-width: 1.5; stroke-linecap: square"/>
    </g>
    <g id="text_26">
     <!-- Ages 8089 (1.1 %/week) -->
     <g transform="translate(105.3 79.988906)scale(0.09 -0.09)">
      <defs>
       <path id="DejaVuSans-2013" d="M 313 1978 
L 2888 1978 
L 2888 1528 
L 313 1528 
L 313 1978 
z
" transform="scale(0.015625)"/>
      </defs>
      <use xlink:href="#DejaVuSans-41"/>
      <use xlink:href="#DejaVuSans-67" x="68.408203"/>
      <use xlink:href="#DejaVuSans-65" x="131.884766"/>
      <use xlink:href="#DejaVuSans-73" x="193.408203"/>
      <use xlink:href="#DejaVuSans-20" x="245.507812"/>
      <use xlink:href="#DejaVuSans-38" x="277.294922"/>
      <use xlink:href="#DejaVuSans-30" x="340.917969"/>
      <use xlink:href="#DejaVuSans-2013" x="404.541016"/>
      <use xlink:href="#DejaVuSans-38" x="454.541016"/>
      <use xlink:href="#DejaVuSans-39" x="518.164062"/>
      <use xlink:href="#DejaVuSans-20" x="581.787109"/>
      <use xlink:href="#DejaVuSans-28" x="613.574219"/>
      <use xlink:href="#DejaVuSans-31" x="652.587891"/>
      <use xlink:href="#DejaVuSans-2e" x="716.210938"/>
      <use xlink:href="#DejaVuSans-31" x="747.998047"/>
      <use xlink:href="#DejaVuSans-20" x="811.621094"/>
      <use xlink:href="#DejaVuSans-25" x="843.408203"/>
      <use xlink:href="#DejaVuSans-2f" x="938.427734"/>
      <use xlink:href="#DejaVuSans-77" x="972.119141"/>
      <use xlink:href="#DejaVuSans-65" x="1053.90625"/>
      <use xlink:href="#DejaVuSans-65" x="1115.429688"/>
      <use xlink:href="#DejaVuSans-6b" x="1176.953125"/>
      <use xlink:href="#DejaVuSans-29" x="1234.863281"/>
     </g>
    </g>
    <g id="line2d_54">
     <path d="M 80.1 90.049219 
L 89.1 90.049219 
L 98.1 90.049219 
" style="fill: none; stroke: #2ca02c; stroke-width: 1.5; stroke-linecap: square"/>
    </g>
    <g id="text_27">
     <!-- Ages 7079 (1.0 %/week) -->
     <g transform="translate(105.3 93.199219)scale(0.09 -0.09)">
      <use xlink:href="#DejaVuSans-41"/>
      <use xlink:href="#DejaVuSans-67" x="68.408203"/>
      <use xlink:href="#DejaVuSans-65" x="131.884766"/>
      <use xlink:href="#DejaVuSans-73" x="193.408203"/>
      <use xlink:href="#DejaVuSans-20" x="245.507812"/>
      <use xlink:href="#DejaVuSans-37" x="277.294922"/>
      <use xlink:href="#DejaVuSans-30" x="340.917969"/>
      <use xlink:href="#DejaVuSans-2013" x="404.541016"/>
      <use xlink:href="#DejaVuSans-37" x="454.541016"/>
      <use xlink:href="#DejaVuSans-39" x="518.164062"/>
      <use xlink:href="#DejaVuSans-20" x="581.787109"/>
      <use xlink:href="#DejaVuSans-28" x="613.574219"/>
      <use xlink:href="#DejaVuSans-31" x="652.587891"/>
      <use xlink:href="#DejaVuSans-2e" x="716.210938"/>
      <use xlink:href="#DejaVuSans-30" x="747.998047"/>
      <use xlink:href="#DejaVuSans-20" x="811.621094"/>
      <use xlink:href="#DejaVuSans-25" x="843.408203"/>
      <use xlink:href="#DejaVuSans-2f" x="938.427734"/>
      <use xlink:href="#DejaVuSans-77" x="972.119141"/>
      <use xlink:href="#DejaVuSans-65" x="1053.90625"/>
      <use xlink:href="#DejaVuSans-65" x="1115.429688"/>
      <use xlink:href="#DejaVuSans-6b" x="1176.953125"/>
      <use xlink:href="#DejaVuSans-29" x="1234.863281"/>
     </g>
    </g>
    <g id="line2d_55">
     <path d="M 80.1 103.259531 
L 89.1 103.259531 
L 98.1 103.259531 
" style="fill: none; stroke: #d62728; stroke-width: 1.5; stroke-linecap: square"/>
    </g>
    <g id="text_28">
     <!-- Ages 6069 (1.3 %/week) -->
     <g transform="translate(105.3 106.409531)scale(0.09 -0.09)">
      <use xlink:href="#DejaVuSans-41"/>
      <use xlink:href="#DejaVuSans-67" x="68.408203"/>
      <use xlink:href="#DejaVuSans-65" x="131.884766"/>
      <use xlink:href="#DejaVuSans-73" x="193.408203"/>
      <use xlink:href="#DejaVuSans-20" x="245.507812"/>
      <use xlink:href="#DejaVuSans-36" x="277.294922"/>
      <use xlink:href="#DejaVuSans-30" x="340.917969"/>
      <use xlink:href="#DejaVuSans-2013" x="404.541016"/>
      <use xlink:href="#DejaVuSans-36" x="454.541016"/>
      <use xlink:href="#DejaVuSans-39" x="518.164062"/>
      <use xlink:href="#DejaVuSans-20" x="581.787109"/>
      <use xlink:href="#DejaVuSans-28" x="613.574219"/>
      <use xlink:href="#DejaVuSans-31" x="652.587891"/>
      <use xlink:href="#DejaVuSans-2e" x="716.210938"/>
      <use xlink:href="#DejaVuSans-33" x="747.998047"/>
      <use xlink:href="#DejaVuSans-20" x="811.621094"/>
      <use xlink:href="#DejaVuSans-25" x="843.408203"/>
      <use xlink:href="#DejaVuSans-2f" x="938.427734"/>
      <use xlink:href="#DejaVuSans-77" x="972.119141"/>
      <use xlink:href="#DejaVuSans-65" x="1053.90625"/>
      <use xlink:href="#DejaVuSans-65" x="1115.429688"/>
      <use xlink:href="#DejaVuSans-6b" x="1176.953125"/>
      <use xlink:href="#DejaVuSans-29" x="1234.863281"/>
     </g>
    </g>
    <g id="line2d_56">
     <path d="M 80.1 116.469844 
L 89.1 116.469844 
L 98.1 116.469844 
" style="fill: none; stroke: #9467bd; stroke-width: 1.5; stroke-linecap: square"/>
    </g>
    <g id="text_29">
     <!-- Ages 5059 (1.0 %/week) -->
     <g transform="translate(105.3 119.619844)scale(0.09 -0.09)">
      <use xlink:href="#DejaVuSans-41"/>
      <use xlink:href="#DejaVuSans-67" x="68.408203"/>
      <use xlink:href="#DejaVuSans-65" x="131.884766"/>
      <use xlink:href="#DejaVuSans-73" x="193.408203"/>
      <use xlink:href="#DejaVuSans-20" x="245.507812"/>
      <use xlink:href="#DejaVuSans-35" x="277.294922"/>
      <use xlink:href="#DejaVuSans-30" x="340.917969"/>
      <use xlink:href="#DejaVuSans-2013" x="404.541016"/>
      <use xlink:href="#DejaVuSans-35" x="454.541016"/>
      <use xlink:href="#DejaVuSans-39" x="518.164062"/>
      <use xlink:href="#DejaVuSans-20" x="581.787109"/>
      <use xlink:href="#DejaVuSans-28" x="613.574219"/>
      <use xlink:href="#DejaVuSans-31" x="652.587891"/>
      <use xlink:href="#DejaVuSans-2e" x="716.210938"/>
      <use xlink:href="#DejaVuSans-30" x="747.998047"/>
      <use xlink:href="#DejaVuSans-20" x="811.621094"/>
      <use xlink:href="#DejaVuSans-25" x="843.408203"/>
      <use xlink:href="#DejaVuSans-2f" x="938.427734"/>
      <use xlink:href="#DejaVuSans-77" x="972.119141"/>
      <use xlink:href="#DejaVuSans-65" x="1053.90625"/>
      <use xlink:href="#DejaVuSans-65" x="1115.429688"/>
      <use xlink:href="#DejaVuSans-6b" x="1176.953125"/>
      <use xlink:href="#DejaVuSans-29" x="1234.863281"/>
     </g>
    </g>
    <g id="line2d_57">
     <path d="M 80.1 129.680156 
L 89.1 129.680156 
L 98.1 129.680156 
" style="fill: none; stroke: #8c564b; stroke-width: 1.5; stroke-linecap: square"/>
    </g>
    <g id="text_30">
     <!-- Ages 4049 (1.2 %/week) -->
     <g transform="translate(105.3 132.830156)scale(0.09 -0.09)">
      <use xlink:href="#DejaVuSans-41"/>
      <use xlink:href="#DejaVuSans-67" x="68.408203"/>
      <use xlink:href="#DejaVuSans-65" x="131.884766"/>
      <use xlink:href="#DejaVuSans-73" x="193.408203"/>
      <use xlink:href="#DejaVuSans-20" x="245.507812"/>
      <use xlink:href="#DejaVuSans-34" x="277.294922"/>
      <use xlink:href="#DejaVuSans-30" x="340.917969"/>
      <use xlink:href="#DejaVuSans-2013" x="404.541016"/>
      <use xlink:href="#DejaVuSans-34" x="454.541016"/>
      <use xlink:href="#DejaVuSans-39" x="518.164062"/>
      <use xlink:href="#DejaVuSans-20" x="581.787109"/>
      <use xlink:href="#DejaVuSans-28" x="613.574219"/>
      <use xlink:href="#DejaVuSans-31" x="652.587891"/>
      <use xlink:href="#DejaVuSans-2e" x="716.210938"/>
      <use xlink:href="#DejaVuSans-32" x="747.998047"/>
      <use xlink:href="#DejaVuSans-20" x="811.621094"/>
      <use xlink:href="#DejaVuSans-25" x="843.408203"/>
      <use xlink:href="#DejaVuSans-2f" x="938.427734"/>
      <use xlink:href="#DejaVuSans-77" x="972.119141"/>
      <use xlink:href="#DejaVuSans-65" x="1053.90625"/>
      <use xlink:href="#DejaVuSans-65" x="1115.429688"/>
      <use xlink:href="#DejaVuSans-6b" x="1176.953125"/>
      <use xlink:href="#DejaVuSans-29" x="1234.863281"/>
     </g>
    </g>
    <g id="line2d_58">
     <path d="M 80.1 142.890469 
L 89.1 142.890469 
L 98.1 142.890469 
" style="fill: none; stroke: #e377c2; stroke-width: 1.5; stroke-linecap: square"/>
    </g>
    <g id="text_31">
     <!-- Ages 3039 (1.6 %/week) -->
     <g transform="translate(105.3 146.040469)scale(0.09 -0.09)">
      <use xlink:href="#DejaVuSans-41"/>
      <use xlink:href="#DejaVuSans-67" x="68.408203"/>
      <use xlink:href="#DejaVuSans-65" x="131.884766"/>
      <use xlink:href="#DejaVuSans-73" x="193.408203"/>
      <use xlink:href="#DejaVuSans-20" x="245.507812"/>
      <use xlink:href="#DejaVuSans-33" x="277.294922"/>
      <use xlink:href="#DejaVuSans-30" x="340.917969"/>
      <use xlink:href="#DejaVuSans-2013" x="404.541016"/>
      <use xlink:href="#DejaVuSans-33" x="454.541016"/>
      <use xlink:href="#DejaVuSans-39" x="518.164062"/>
      <use xlink:href="#DejaVuSans-20" x="581.787109"/>
      <use xlink:href="#DejaVuSans-28" x="613.574219"/>
      <use xlink:href="#DejaVuSans-31" x="652.587891"/>
      <use xlink:href="#DejaVuSans-2e" x="716.210938"/>
      <use xlink:href="#DejaVuSans-36" x="747.998047"/>
      <use xlink:href="#DejaVuSans-20" x="811.621094"/>
      <use xlink:href="#DejaVuSans-25" x="843.408203"/>
      <use xlink:href="#DejaVuSans-2f" x="938.427734"/>
      <use xlink:href="#DejaVuSans-77" x="972.119141"/>
      <use xlink:href="#DejaVuSans-65" x="1053.90625"/>
      <use xlink:href="#DejaVuSans-65" x="1115.429688"/>
      <use xlink:href="#DejaVuSans-6b" x="1176.953125"/>
      <use xlink:href="#DejaVuSans-29" x="1234.863281"/>
     </g>
    </g>
    <g id="line2d_59">
     <path d="M 80.1 156.100781 
L 89.1 156.100781 
L 98.1 156.100781 
" style="fill: none; stroke: #7f7f7f; stroke-width: 1.5; stroke-linecap: square"/>
    </g>
    <g id="text_32">
     <!-- Ages 2029 (1.8 %/week) -->
     <g transform="translate(105.3 159.250781)scale(0.09 -0.09)">
      <use xlink:href="#DejaVuSans-41"/>
      <use xlink:href="#DejaVuSans-67" x="68.408203"/>
      <use xlink:href="#DejaVuSans-65" x="131.884766"/>
      <use xlink:href="#DejaVuSans-73" x="193.408203"/>
      <use xlink:href="#DejaVuSans-20" x="245.507812"/>
      <use xlink:href="#DejaVuSans-32" x="277.294922"/>
      <use xlink:href="#DejaVuSans-30" x="340.917969"/>
      <use xlink:href="#DejaVuSans-2013" x="404.541016"/>
      <use xlink:href="#DejaVuSans-32" x="454.541016"/>
      <use xlink:href="#DejaVuSans-39" x="518.164062"/>
      <use xlink:href="#DejaVuSans-20" x="581.787109"/>
      <use xlink:href="#DejaVuSans-28" x="613.574219"/>
      <use xlink:href="#DejaVuSans-31" x="652.587891"/>
      <use xlink:href="#DejaVuSans-2e" x="716.210938"/>
      <use xlink:href="#DejaVuSans-38" x="747.998047"/>
      <use xlink:href="#DejaVuSans-20" x="811.621094"/>
      <use xlink:href="#DejaVuSans-25" x="843.408203"/>
      <use xlink:href="#DejaVuSans-2f" x="938.427734"/>
      <use xlink:href="#DejaVuSans-77" x="972.119141"/>
      <use xlink:href="#DejaVuSans-65" x="1053.90625"/>
      <use xlink:href="#DejaVuSans-65" x="1115.429688"/>
      <use xlink:href="#DejaVuSans-6b" x="1176.953125"/>
      <use xlink:href="#DejaVuSans-29" x="1234.863281"/>
     </g>
    </g>
    <g id="line2d_60">
     <path d="M 80.1 169.311094 
L 89.1 169.311094 
L 98.1 169.311094 
" style="fill: none; stroke: #bcbd22; stroke-width: 1.5; stroke-linecap: square"/>
    </g>
    <g id="text_33">
     <!-- Ages 1619 (2.2 %/week) -->
     <g transform="translate(105.3 172.461094)scale(0.09 -0.09)">
      <use xlink:href="#DejaVuSans-41"/>
      <use xlink:href="#DejaVuSans-67" x="68.408203"/>
      <use xlink:href="#DejaVuSans-65" x="131.884766"/>
      <use xlink:href="#DejaVuSans-73" x="193.408203"/>
      <use xlink:href="#DejaVuSans-20" x="245.507812"/>
      <use xlink:href="#DejaVuSans-31" x="277.294922"/>
      <use xlink:href="#DejaVuSans-36" x="340.917969"/>
      <use xlink:href="#DejaVuSans-2013" x="404.541016"/>
      <use xlink:href="#DejaVuSans-31" x="454.541016"/>
      <use xlink:href="#DejaVuSans-39" x="518.164062"/>
      <use xlink:href="#DejaVuSans-20" x="581.787109"/>
      <use xlink:href="#DejaVuSans-28" x="613.574219"/>
      <use xlink:href="#DejaVuSans-32" x="652.587891"/>
      <use xlink:href="#DejaVuSans-2e" x="716.210938"/>
      <use xlink:href="#DejaVuSans-32" x="747.998047"/>
      <use xlink:href="#DejaVuSans-20" x="811.621094"/>
      <use xlink:href="#DejaVuSans-25" x="843.408203"/>
      <use xlink:href="#DejaVuSans-2f" x="938.427734"/>
      <use xlink:href="#DejaVuSans-77" x="972.119141"/>
      <use xlink:href="#DejaVuSans-65" x="1053.90625"/>
      <use xlink:href="#DejaVuSans-65" x="1115.429688"/>
      <use xlink:href="#DejaVuSans-6b" x="1176.953125"/>
      <use xlink:href="#DejaVuSans-29" x="1234.863281"/>
     </g>
    </g>
   </g>
  </g>
 </g>
 <defs>
  <clipPath id="p815ecdaeaa">
   <rect x="72" y="51.84" width="446.4" height="332.64"/>
  </clipPath>
 </defs>
</svg>
